%TF.GenerationSoftware,KiCad,Pcbnew,9.0.1*%
%TF.CreationDate,2025-09-11T01:36:26+09:00*%
%TF.ProjectId,optical_daq_vga_v0_4_1,6f707469-6361-46c5-9f64-61715f766761,rev?*%
%TF.SameCoordinates,Original*%
%TF.FileFunction,Legend,Bot*%
%TF.FilePolarity,Positive*%
%FSLAX46Y46*%
G04 Gerber Fmt 4.6, Leading zero omitted, Abs format (unit mm)*
G04 Created by KiCad (PCBNEW 9.0.1) date 2025-09-11 01:36:26*
%MOMM*%
%LPD*%
G01*
G04 APERTURE LIST*
G04 Aperture macros list*
%AMRoundRect*
0 Rectangle with rounded corners*
0 $1 Rounding radius*
0 $2 $3 $4 $5 $6 $7 $8 $9 X,Y pos of 4 corners*
0 Add a 4 corners polygon primitive as box body*
4,1,4,$2,$3,$4,$5,$6,$7,$8,$9,$2,$3,0*
0 Add four circle primitives for the rounded corners*
1,1,$1+$1,$2,$3*
1,1,$1+$1,$4,$5*
1,1,$1+$1,$6,$7*
1,1,$1+$1,$8,$9*
0 Add four rect primitives between the rounded corners*
20,1,$1+$1,$2,$3,$4,$5,0*
20,1,$1+$1,$4,$5,$6,$7,0*
20,1,$1+$1,$6,$7,$8,$9,0*
20,1,$1+$1,$8,$9,$2,$3,0*%
%AMFreePoly0*
4,1,23,0.500000,-0.750000,0.000000,-0.750000,0.000000,-0.745722,-0.065263,-0.745722,-0.191342,-0.711940,-0.304381,-0.646677,-0.396677,-0.554381,-0.461940,-0.441342,-0.495722,-0.315263,-0.495722,-0.250000,-0.500000,-0.250000,-0.500000,0.250000,-0.495722,0.250000,-0.495722,0.315263,-0.461940,0.441342,-0.396677,0.554381,-0.304381,0.646677,-0.191342,0.711940,-0.065263,0.745722,0.000000,0.745722,
0.000000,0.750000,0.500000,0.750000,0.500000,-0.750000,0.500000,-0.750000,$1*%
%AMFreePoly1*
4,1,23,0.000000,0.745722,0.065263,0.745722,0.191342,0.711940,0.304381,0.646677,0.396677,0.554381,0.461940,0.441342,0.495722,0.315263,0.495722,0.250000,0.500000,0.250000,0.500000,-0.250000,0.495722,-0.250000,0.495722,-0.315263,0.461940,-0.441342,0.396677,-0.554381,0.304381,-0.646677,0.191342,-0.711940,0.065263,-0.745722,0.000000,-0.745722,0.000000,-0.750000,-0.500000,-0.750000,
-0.500000,0.750000,0.000000,0.750000,0.000000,0.745722,0.000000,0.745722,$1*%
%AMFreePoly2*
4,1,23,0.550000,-0.750000,0.000000,-0.750000,0.000000,-0.745722,-0.065263,-0.745722,-0.191342,-0.711940,-0.304381,-0.646677,-0.396677,-0.554381,-0.461940,-0.441342,-0.495722,-0.315263,-0.495722,-0.250000,-0.500000,-0.250000,-0.500000,0.250000,-0.495722,0.250000,-0.495722,0.315263,-0.461940,0.441342,-0.396677,0.554381,-0.304381,0.646677,-0.191342,0.711940,-0.065263,0.745722,0.000000,0.745722,
0.000000,0.750000,0.550000,0.750000,0.550000,-0.750000,0.550000,-0.750000,$1*%
%AMFreePoly3*
4,1,23,0.000000,0.745722,0.065263,0.745722,0.191342,0.711940,0.304381,0.646677,0.396677,0.554381,0.461940,0.441342,0.495722,0.315263,0.495722,0.250000,0.500000,0.250000,0.500000,-0.250000,0.495722,-0.250000,0.495722,-0.315263,0.461940,-0.441342,0.396677,-0.554381,0.304381,-0.646677,0.191342,-0.711940,0.065263,-0.745722,0.000000,-0.745722,0.000000,-0.750000,-0.550000,-0.750000,
-0.550000,0.750000,0.000000,0.750000,0.000000,0.745722,0.000000,0.745722,$1*%
G04 Aperture macros list end*
%ADD10C,0.150000*%
%ADD11C,0.120000*%
%ADD12R,1.700000X1.700000*%
%ADD13C,1.700000*%
%ADD14C,2.050000*%
%ADD15C,2.250000*%
%ADD16C,5.600000*%
%ADD17C,2.000000*%
%ADD18RoundRect,0.250001X-0.799999X0.799999X-0.799999X-0.799999X0.799999X-0.799999X0.799999X0.799999X0*%
%ADD19C,2.100000*%
%ADD20FreePoly0,180.000000*%
%ADD21FreePoly1,180.000000*%
%ADD22FreePoly2,0.000000*%
%ADD23R,1.000000X1.500000*%
%ADD24FreePoly3,0.000000*%
%ADD25FreePoly0,90.000000*%
%ADD26FreePoly1,90.000000*%
G04 APERTURE END LIST*
D10*
X147300000Y-101300000D02*
X146500000Y-101300000D01*
X147300000Y-106000000D02*
X147300000Y-94600000D01*
X141100000Y-101300000D02*
X141100000Y-94600000D01*
X141100000Y-101300000D02*
X142000000Y-101300000D01*
X141100000Y-94600000D02*
X141900000Y-94600000D01*
X147300000Y-94600000D02*
X146500000Y-94600000D01*
X147331009Y-106342857D02*
X147331009Y-106676190D01*
X147854819Y-106819047D02*
X147854819Y-106342857D01*
X147854819Y-106342857D02*
X146854819Y-106342857D01*
X146854819Y-106342857D02*
X146854819Y-106819047D01*
X146854819Y-107152381D02*
X147854819Y-107819047D01*
X146854819Y-107819047D02*
X147854819Y-107152381D01*
X147950057Y-107961905D02*
X147950057Y-108723809D01*
X147759580Y-109533333D02*
X147807200Y-109485714D01*
X147807200Y-109485714D02*
X147854819Y-109342857D01*
X147854819Y-109342857D02*
X147854819Y-109247619D01*
X147854819Y-109247619D02*
X147807200Y-109104762D01*
X147807200Y-109104762D02*
X147711961Y-109009524D01*
X147711961Y-109009524D02*
X147616723Y-108961905D01*
X147616723Y-108961905D02*
X147426247Y-108914286D01*
X147426247Y-108914286D02*
X147283390Y-108914286D01*
X147283390Y-108914286D02*
X147092914Y-108961905D01*
X147092914Y-108961905D02*
X146997676Y-109009524D01*
X146997676Y-109009524D02*
X146902438Y-109104762D01*
X146902438Y-109104762D02*
X146854819Y-109247619D01*
X146854819Y-109247619D02*
X146854819Y-109342857D01*
X146854819Y-109342857D02*
X146902438Y-109485714D01*
X146902438Y-109485714D02*
X146950057Y-109533333D01*
X146854819Y-109819048D02*
X146854819Y-110390476D01*
X147854819Y-110104762D02*
X146854819Y-110104762D01*
X147854819Y-111200000D02*
X147854819Y-110723810D01*
X147854819Y-110723810D02*
X146854819Y-110723810D01*
G36*
X145695634Y-92655930D02*
G01*
X142704365Y-92655930D01*
X142704365Y-92041247D01*
X142886904Y-92041247D01*
X142886904Y-92374580D01*
X142888345Y-92389212D01*
X142892262Y-92398668D01*
X142899543Y-92416247D01*
X142908870Y-92427612D01*
X142956489Y-92475232D01*
X142967855Y-92484560D01*
X142970343Y-92485590D01*
X142972380Y-92487357D01*
X142985806Y-92493351D01*
X143128662Y-92540970D01*
X143135917Y-92542619D01*
X143137748Y-92543378D01*
X143140401Y-92543639D01*
X143142999Y-92544230D01*
X143144973Y-92544089D01*
X143152380Y-92544819D01*
X143247618Y-92544819D01*
X143255023Y-92544089D01*
X143256998Y-92544230D01*
X143259595Y-92543639D01*
X143262250Y-92543378D01*
X143264081Y-92542619D01*
X143271335Y-92540970D01*
X143414192Y-92493351D01*
X143427617Y-92487357D01*
X143429652Y-92485591D01*
X143432143Y-92484560D01*
X143443508Y-92475233D01*
X143538747Y-92379993D01*
X143543464Y-92374244D01*
X143544963Y-92372945D01*
X143546384Y-92370686D01*
X143548074Y-92368628D01*
X143548831Y-92366798D01*
X143552795Y-92360502D01*
X143600414Y-92265264D01*
X143600823Y-92264194D01*
X143601146Y-92263759D01*
X143603338Y-92257622D01*
X143605669Y-92251533D01*
X143605707Y-92250992D01*
X143606093Y-92249913D01*
X143653712Y-92059437D01*
X143654087Y-92056900D01*
X143654510Y-92055879D01*
X143655052Y-92050366D01*
X143655862Y-92044893D01*
X143655699Y-92043800D01*
X143655951Y-92041247D01*
X143655951Y-91898390D01*
X143655699Y-91895836D01*
X143655862Y-91894744D01*
X143655052Y-91889270D01*
X143654510Y-91883758D01*
X143654087Y-91882736D01*
X143653712Y-91880200D01*
X143606093Y-91689724D01*
X143605707Y-91688644D01*
X143605669Y-91688104D01*
X143603338Y-91682014D01*
X143601146Y-91675878D01*
X143600823Y-91675442D01*
X143600414Y-91674373D01*
X143552795Y-91579135D01*
X143548832Y-91572840D01*
X143548074Y-91571008D01*
X143546382Y-91568946D01*
X143544963Y-91566692D01*
X143543466Y-91565393D01*
X143538746Y-91559643D01*
X143443508Y-91464405D01*
X143432276Y-91455187D01*
X143840726Y-91455187D01*
X143840726Y-91484451D01*
X143851925Y-91511487D01*
X143872617Y-91532179D01*
X143899653Y-91543378D01*
X143914285Y-91544819D01*
X144315475Y-91544819D01*
X144315475Y-91871009D01*
X144057142Y-91871009D01*
X144042510Y-91872450D01*
X144015474Y-91883649D01*
X143994782Y-91904341D01*
X143983583Y-91931377D01*
X143983583Y-91960641D01*
X143994782Y-91987677D01*
X144015474Y-92008369D01*
X144042510Y-92019568D01*
X144057142Y-92021009D01*
X144315475Y-92021009D01*
X144315475Y-92469819D01*
X144316916Y-92484451D01*
X144328115Y-92511487D01*
X144348807Y-92532179D01*
X144375843Y-92543378D01*
X144405107Y-92543378D01*
X144432143Y-92532179D01*
X144452835Y-92511487D01*
X144464034Y-92484451D01*
X144465475Y-92469819D01*
X144465475Y-91550426D01*
X144745488Y-91550426D01*
X144745488Y-91579688D01*
X144756687Y-91606725D01*
X144777379Y-91627417D01*
X144804416Y-91638616D01*
X144833678Y-91638616D01*
X144860715Y-91627417D01*
X144872080Y-91618090D01*
X144907180Y-91582990D01*
X145021693Y-91544819D01*
X145092591Y-91544819D01*
X145207104Y-91582990D01*
X145281217Y-91657103D01*
X145319710Y-91734090D01*
X145363094Y-91907624D01*
X145363094Y-92032013D01*
X145319710Y-92205547D01*
X145281216Y-92282534D01*
X145207104Y-92356647D01*
X145092591Y-92394819D01*
X145021693Y-92394819D01*
X144907180Y-92356648D01*
X144872081Y-92321548D01*
X144860715Y-92312220D01*
X144833679Y-92301021D01*
X144804416Y-92301021D01*
X144777380Y-92312219D01*
X144756687Y-92332912D01*
X144745488Y-92359948D01*
X144745488Y-92389211D01*
X144756686Y-92416247D01*
X144766013Y-92427612D01*
X144813632Y-92475232D01*
X144824998Y-92484560D01*
X144827486Y-92485590D01*
X144829523Y-92487357D01*
X144842949Y-92493351D01*
X144985805Y-92540970D01*
X144993060Y-92542619D01*
X144994891Y-92543378D01*
X144997544Y-92543639D01*
X145000142Y-92544230D01*
X145002116Y-92544089D01*
X145009523Y-92544819D01*
X145104761Y-92544819D01*
X145112166Y-92544089D01*
X145114141Y-92544230D01*
X145116738Y-92543639D01*
X145119393Y-92543378D01*
X145121224Y-92542619D01*
X145128478Y-92540970D01*
X145271335Y-92493351D01*
X145284760Y-92487357D01*
X145286795Y-92485591D01*
X145289286Y-92484560D01*
X145300651Y-92475233D01*
X145395890Y-92379993D01*
X145400607Y-92374244D01*
X145402106Y-92372945D01*
X145403527Y-92370686D01*
X145405217Y-92368628D01*
X145405974Y-92366798D01*
X145409938Y-92360502D01*
X145457557Y-92265264D01*
X145457966Y-92264194D01*
X145458289Y-92263759D01*
X145460481Y-92257622D01*
X145462812Y-92251533D01*
X145462850Y-92250992D01*
X145463236Y-92249913D01*
X145510855Y-92059437D01*
X145511230Y-92056900D01*
X145511653Y-92055879D01*
X145512195Y-92050366D01*
X145513005Y-92044893D01*
X145512842Y-92043800D01*
X145513094Y-92041247D01*
X145513094Y-91898390D01*
X145512842Y-91895836D01*
X145513005Y-91894744D01*
X145512195Y-91889270D01*
X145511653Y-91883758D01*
X145511230Y-91882736D01*
X145510855Y-91880200D01*
X145463236Y-91689724D01*
X145462850Y-91688644D01*
X145462812Y-91688104D01*
X145460481Y-91682014D01*
X145458289Y-91675878D01*
X145457966Y-91675442D01*
X145457557Y-91674373D01*
X145409938Y-91579135D01*
X145405975Y-91572840D01*
X145405217Y-91571008D01*
X145403525Y-91568946D01*
X145402106Y-91566692D01*
X145400609Y-91565393D01*
X145395889Y-91559643D01*
X145300651Y-91464405D01*
X145289286Y-91455078D01*
X145286795Y-91454046D01*
X145284760Y-91452281D01*
X145271335Y-91446287D01*
X145128478Y-91398668D01*
X145121224Y-91397018D01*
X145119393Y-91396260D01*
X145116738Y-91395998D01*
X145114141Y-91395408D01*
X145112166Y-91395548D01*
X145104761Y-91394819D01*
X145009523Y-91394819D01*
X145002116Y-91395548D01*
X145000142Y-91395408D01*
X144997544Y-91395998D01*
X144994891Y-91396260D01*
X144993060Y-91397018D01*
X144985805Y-91398668D01*
X144842949Y-91446287D01*
X144829523Y-91452281D01*
X144827486Y-91454047D01*
X144824998Y-91455078D01*
X144813633Y-91464405D01*
X144766014Y-91512024D01*
X144756687Y-91523389D01*
X144745488Y-91550426D01*
X144465475Y-91550426D01*
X144465475Y-91469819D01*
X144464034Y-91455187D01*
X144452835Y-91428151D01*
X144432143Y-91407459D01*
X144405107Y-91396260D01*
X144390475Y-91394819D01*
X143914285Y-91394819D01*
X143899653Y-91396260D01*
X143872617Y-91407459D01*
X143851925Y-91428151D01*
X143840726Y-91455187D01*
X143432276Y-91455187D01*
X143432143Y-91455078D01*
X143429652Y-91454046D01*
X143427617Y-91452281D01*
X143414192Y-91446287D01*
X143271335Y-91398668D01*
X143264081Y-91397018D01*
X143262250Y-91396260D01*
X143259595Y-91395998D01*
X143256998Y-91395408D01*
X143255023Y-91395548D01*
X143247618Y-91394819D01*
X143104761Y-91394819D01*
X143090129Y-91396260D01*
X143087640Y-91397290D01*
X143084951Y-91397482D01*
X143071220Y-91402737D01*
X142975982Y-91450356D01*
X142963539Y-91458188D01*
X142944366Y-91480296D01*
X142935112Y-91508057D01*
X142937186Y-91537247D01*
X142950273Y-91563422D01*
X142972381Y-91582595D01*
X143000142Y-91591849D01*
X143029332Y-91589775D01*
X143043064Y-91584520D01*
X143122466Y-91544819D01*
X143235448Y-91544819D01*
X143349961Y-91582990D01*
X143424074Y-91657103D01*
X143462567Y-91734090D01*
X143505951Y-91907624D01*
X143505951Y-92032013D01*
X143462567Y-92205547D01*
X143424073Y-92282534D01*
X143349961Y-92356647D01*
X143235448Y-92394819D01*
X143164550Y-92394819D01*
X143050037Y-92356648D01*
X143036904Y-92343514D01*
X143036904Y-92116247D01*
X143152380Y-92116247D01*
X143167012Y-92114806D01*
X143194048Y-92103607D01*
X143214740Y-92082915D01*
X143225939Y-92055879D01*
X143225939Y-92026615D01*
X143214740Y-91999579D01*
X143194048Y-91978887D01*
X143167012Y-91967688D01*
X143152380Y-91966247D01*
X142961904Y-91966247D01*
X142947272Y-91967688D01*
X142920236Y-91978887D01*
X142899544Y-91999579D01*
X142888345Y-92026615D01*
X142886904Y-92041247D01*
X142704365Y-92041247D01*
X142704365Y-90050351D01*
X142815476Y-90050351D01*
X142815476Y-90145589D01*
X142816205Y-90152994D01*
X142816065Y-90154969D01*
X142816655Y-90157566D01*
X142816917Y-90160221D01*
X142817675Y-90162052D01*
X142819325Y-90169306D01*
X142866944Y-90312163D01*
X142872938Y-90325588D01*
X142874703Y-90327623D01*
X142875735Y-90330114D01*
X142885062Y-90341479D01*
X143328457Y-90784875D01*
X142890476Y-90784875D01*
X142875844Y-90786316D01*
X142848808Y-90797515D01*
X142828116Y-90818207D01*
X142816917Y-90845243D01*
X142816917Y-90874507D01*
X142828116Y-90901543D01*
X142848808Y-90922235D01*
X142875844Y-90933434D01*
X142890476Y-90934875D01*
X143509523Y-90934875D01*
X143524155Y-90933434D01*
X143532073Y-90930154D01*
X143551191Y-90922236D01*
X143571883Y-90901543D01*
X143583082Y-90874507D01*
X143583082Y-90845244D01*
X143580162Y-90838195D01*
X143573730Y-90822665D01*
X143571884Y-90818207D01*
X143562556Y-90806842D01*
X143003647Y-90247932D01*
X142965476Y-90133418D01*
X142965476Y-90068056D01*
X142999734Y-89999540D01*
X143030141Y-89969133D01*
X143098657Y-89934875D01*
X143301342Y-89934875D01*
X143369858Y-89969133D01*
X143408871Y-90008146D01*
X143420236Y-90017473D01*
X143447272Y-90028672D01*
X143476535Y-90028672D01*
X143503571Y-90017473D01*
X143524264Y-89996780D01*
X143535463Y-89969744D01*
X143535463Y-89940481D01*
X143524264Y-89913445D01*
X143514937Y-89902080D01*
X143472732Y-89859875D01*
X143815476Y-89859875D01*
X143815476Y-90859875D01*
X143815846Y-90863638D01*
X143815659Y-90865114D01*
X143816180Y-90867024D01*
X143816917Y-90874507D01*
X143820734Y-90883722D01*
X143823359Y-90893346D01*
X143826286Y-90897126D01*
X143828116Y-90901543D01*
X143835166Y-90908593D01*
X143841276Y-90916483D01*
X143845429Y-90918856D01*
X143848808Y-90922235D01*
X143858020Y-90926051D01*
X143866685Y-90931002D01*
X143871428Y-90931604D01*
X143875844Y-90933434D01*
X143885818Y-90933434D01*
X143895715Y-90934692D01*
X143900327Y-90933434D01*
X143905108Y-90933434D01*
X143914323Y-90929616D01*
X143923947Y-90926992D01*
X143927727Y-90924064D01*
X143932144Y-90922235D01*
X143939194Y-90915184D01*
X143947084Y-90909075D01*
X143951436Y-90902942D01*
X143952836Y-90901543D01*
X143953405Y-90900168D01*
X143955594Y-90897085D01*
X144386904Y-90142291D01*
X144386904Y-90859875D01*
X144388345Y-90874507D01*
X144399544Y-90901543D01*
X144420236Y-90922235D01*
X144447272Y-90933434D01*
X144476536Y-90933434D01*
X144503572Y-90922235D01*
X144524264Y-90901543D01*
X144535463Y-90874507D01*
X144536904Y-90859875D01*
X144536904Y-90431303D01*
X144815476Y-90431303D01*
X144815476Y-90764636D01*
X144816917Y-90779268D01*
X144820834Y-90788724D01*
X144828115Y-90806303D01*
X144837442Y-90817668D01*
X144885061Y-90865288D01*
X144896427Y-90874616D01*
X144898915Y-90875646D01*
X144900952Y-90877413D01*
X144914378Y-90883407D01*
X145057234Y-90931026D01*
X145064489Y-90932675D01*
X145066320Y-90933434D01*
X145068973Y-90933695D01*
X145071571Y-90934286D01*
X145073545Y-90934145D01*
X145080952Y-90934875D01*
X145176190Y-90934875D01*
X145183595Y-90934145D01*
X145185570Y-90934286D01*
X145188167Y-90933695D01*
X145190822Y-90933434D01*
X145192653Y-90932675D01*
X145199907Y-90931026D01*
X145342764Y-90883407D01*
X145356189Y-90877413D01*
X145358224Y-90875647D01*
X145360715Y-90874616D01*
X145372080Y-90865289D01*
X145467319Y-90770049D01*
X145472036Y-90764300D01*
X145473535Y-90763001D01*
X145474956Y-90760742D01*
X145476646Y-90758684D01*
X145477403Y-90756854D01*
X145481367Y-90750558D01*
X145528986Y-90655320D01*
X145529395Y-90654250D01*
X145529718Y-90653815D01*
X145531910Y-90647678D01*
X145534241Y-90641589D01*
X145534279Y-90641048D01*
X145534665Y-90639969D01*
X145582284Y-90449493D01*
X145582659Y-90446956D01*
X145583082Y-90445935D01*
X145583624Y-90440422D01*
X145584434Y-90434949D01*
X145584271Y-90433856D01*
X145584523Y-90431303D01*
X145584523Y-90288446D01*
X145584271Y-90285892D01*
X145584434Y-90284800D01*
X145583624Y-90279326D01*
X145583082Y-90273814D01*
X145582659Y-90272792D01*
X145582284Y-90270256D01*
X145534665Y-90079780D01*
X145534279Y-90078700D01*
X145534241Y-90078160D01*
X145531910Y-90072070D01*
X145529718Y-90065934D01*
X145529395Y-90065498D01*
X145528986Y-90064429D01*
X145481367Y-89969191D01*
X145477404Y-89962896D01*
X145476646Y-89961064D01*
X145474954Y-89959002D01*
X145473535Y-89956748D01*
X145472038Y-89955449D01*
X145467318Y-89949699D01*
X145372080Y-89854461D01*
X145360715Y-89845134D01*
X145358224Y-89844102D01*
X145356189Y-89842337D01*
X145342764Y-89836343D01*
X145199907Y-89788724D01*
X145192653Y-89787074D01*
X145190822Y-89786316D01*
X145188167Y-89786054D01*
X145185570Y-89785464D01*
X145183595Y-89785604D01*
X145176190Y-89784875D01*
X145033333Y-89784875D01*
X145018701Y-89786316D01*
X145016212Y-89787346D01*
X145013523Y-89787538D01*
X144999792Y-89792793D01*
X144904554Y-89840412D01*
X144892111Y-89848244D01*
X144872938Y-89870352D01*
X144863684Y-89898113D01*
X144865758Y-89927303D01*
X144878845Y-89953478D01*
X144900953Y-89972651D01*
X144928714Y-89981905D01*
X144957904Y-89979831D01*
X144971636Y-89974576D01*
X145051038Y-89934875D01*
X145164020Y-89934875D01*
X145278533Y-89973046D01*
X145352646Y-90047159D01*
X145391139Y-90124146D01*
X145434523Y-90297680D01*
X145434523Y-90422069D01*
X145391139Y-90595603D01*
X145352645Y-90672590D01*
X145278533Y-90746703D01*
X145164020Y-90784875D01*
X145093122Y-90784875D01*
X144978609Y-90746704D01*
X144965476Y-90733570D01*
X144965476Y-90506303D01*
X145080952Y-90506303D01*
X145095584Y-90504862D01*
X145122620Y-90493663D01*
X145143312Y-90472971D01*
X145154511Y-90445935D01*
X145154511Y-90416671D01*
X145143312Y-90389635D01*
X145122620Y-90368943D01*
X145095584Y-90357744D01*
X145080952Y-90356303D01*
X144890476Y-90356303D01*
X144875844Y-90357744D01*
X144848808Y-90368943D01*
X144828116Y-90389635D01*
X144816917Y-90416671D01*
X144815476Y-90431303D01*
X144536904Y-90431303D01*
X144536904Y-89859875D01*
X144536533Y-89856111D01*
X144536721Y-89854636D01*
X144536199Y-89852725D01*
X144535463Y-89845243D01*
X144531645Y-89836027D01*
X144529021Y-89826404D01*
X144526093Y-89822623D01*
X144524264Y-89818207D01*
X144517213Y-89811156D01*
X144511104Y-89803267D01*
X144506950Y-89800893D01*
X144503572Y-89797515D01*
X144494359Y-89793698D01*
X144485695Y-89788748D01*
X144480951Y-89788145D01*
X144476536Y-89786316D01*
X144466562Y-89786316D01*
X144456665Y-89785058D01*
X144452053Y-89786316D01*
X144447272Y-89786316D01*
X144438055Y-89790133D01*
X144428434Y-89792758D01*
X144424654Y-89795684D01*
X144420236Y-89797515D01*
X144413184Y-89804566D01*
X144405296Y-89810675D01*
X144400941Y-89816809D01*
X144399544Y-89818207D01*
X144398975Y-89819579D01*
X144396786Y-89822664D01*
X143965476Y-90577458D01*
X143965476Y-89859875D01*
X143964035Y-89845243D01*
X143952836Y-89818207D01*
X143932144Y-89797515D01*
X143905108Y-89786316D01*
X143875844Y-89786316D01*
X143848808Y-89797515D01*
X143828116Y-89818207D01*
X143816917Y-89845243D01*
X143815476Y-89859875D01*
X143472732Y-89859875D01*
X143467318Y-89854461D01*
X143461568Y-89849742D01*
X143460269Y-89848244D01*
X143458009Y-89846822D01*
X143455953Y-89845134D01*
X143454125Y-89844376D01*
X143447826Y-89840412D01*
X143352588Y-89792793D01*
X143338856Y-89787538D01*
X143336168Y-89787347D01*
X143333679Y-89786316D01*
X143319047Y-89784875D01*
X143080952Y-89784875D01*
X143066320Y-89786316D01*
X143063831Y-89787346D01*
X143061142Y-89787538D01*
X143047411Y-89792793D01*
X142952173Y-89840412D01*
X142945873Y-89844376D01*
X142944046Y-89845134D01*
X142941989Y-89846822D01*
X142939730Y-89848244D01*
X142938430Y-89849742D01*
X142932681Y-89854461D01*
X142885062Y-89902080D01*
X142880343Y-89907829D01*
X142878845Y-89909129D01*
X142877423Y-89911388D01*
X142875735Y-89913445D01*
X142874977Y-89915272D01*
X142871013Y-89921572D01*
X142823394Y-90016810D01*
X142818139Y-90030542D01*
X142817948Y-90033229D01*
X142816917Y-90035719D01*
X142815476Y-90050351D01*
X142704365Y-90050351D01*
X142704365Y-89673764D01*
X145695634Y-89673764D01*
X145695634Y-92655930D01*
G37*
G36*
X145695634Y-106855930D02*
G01*
X142705806Y-106855930D01*
X142705806Y-106241247D01*
X142886904Y-106241247D01*
X142886904Y-106574580D01*
X142888345Y-106589212D01*
X142892262Y-106598668D01*
X142899543Y-106616247D01*
X142908870Y-106627612D01*
X142956489Y-106675232D01*
X142967855Y-106684560D01*
X142970343Y-106685590D01*
X142972380Y-106687357D01*
X142985806Y-106693351D01*
X143128662Y-106740970D01*
X143135917Y-106742619D01*
X143137748Y-106743378D01*
X143140401Y-106743639D01*
X143142999Y-106744230D01*
X143144973Y-106744089D01*
X143152380Y-106744819D01*
X143247618Y-106744819D01*
X143255023Y-106744089D01*
X143256998Y-106744230D01*
X143259595Y-106743639D01*
X143262250Y-106743378D01*
X143264081Y-106742619D01*
X143271335Y-106740970D01*
X143414192Y-106693351D01*
X143427617Y-106687357D01*
X143429652Y-106685591D01*
X143432143Y-106684560D01*
X143443508Y-106675233D01*
X143538747Y-106579993D01*
X143543464Y-106574244D01*
X143544963Y-106572945D01*
X143546384Y-106570686D01*
X143548074Y-106568628D01*
X143548831Y-106566798D01*
X143552795Y-106560502D01*
X143600414Y-106465264D01*
X143600823Y-106464194D01*
X143601146Y-106463759D01*
X143603338Y-106457622D01*
X143605669Y-106451533D01*
X143605707Y-106450992D01*
X143606093Y-106449913D01*
X143653712Y-106259437D01*
X143654087Y-106256900D01*
X143654510Y-106255879D01*
X143655052Y-106250366D01*
X143655862Y-106244893D01*
X143655699Y-106243800D01*
X143655951Y-106241247D01*
X143655951Y-106098390D01*
X143655699Y-106095836D01*
X143655862Y-106094744D01*
X143655052Y-106089270D01*
X143654510Y-106083758D01*
X143654087Y-106082736D01*
X143653712Y-106080200D01*
X143606093Y-105889724D01*
X143605707Y-105888644D01*
X143605669Y-105888104D01*
X143603338Y-105882014D01*
X143601146Y-105875878D01*
X143600823Y-105875442D01*
X143600414Y-105874373D01*
X143552795Y-105779135D01*
X143548832Y-105772840D01*
X143548074Y-105771008D01*
X143546382Y-105768946D01*
X143544963Y-105766692D01*
X143543466Y-105765393D01*
X143538746Y-105759643D01*
X143443508Y-105664405D01*
X143432276Y-105655187D01*
X143840726Y-105655187D01*
X143840726Y-105684451D01*
X143851925Y-105711487D01*
X143872617Y-105732179D01*
X143899653Y-105743378D01*
X143914285Y-105744819D01*
X144315475Y-105744819D01*
X144315475Y-106071009D01*
X144057142Y-106071009D01*
X144042510Y-106072450D01*
X144015474Y-106083649D01*
X143994782Y-106104341D01*
X143983583Y-106131377D01*
X143983583Y-106160641D01*
X143994782Y-106187677D01*
X144015474Y-106208369D01*
X144042510Y-106219568D01*
X144057142Y-106221009D01*
X144315475Y-106221009D01*
X144315475Y-106669819D01*
X144316916Y-106684451D01*
X144328115Y-106711487D01*
X144348807Y-106732179D01*
X144375843Y-106743378D01*
X144405107Y-106743378D01*
X144432143Y-106732179D01*
X144452835Y-106711487D01*
X144464034Y-106684451D01*
X144465475Y-106669819D01*
X144465475Y-105750426D01*
X144745488Y-105750426D01*
X144745488Y-105779688D01*
X144756687Y-105806725D01*
X144777379Y-105827417D01*
X144804416Y-105838616D01*
X144833678Y-105838616D01*
X144860715Y-105827417D01*
X144872080Y-105818090D01*
X144907180Y-105782990D01*
X145021693Y-105744819D01*
X145092591Y-105744819D01*
X145207104Y-105782990D01*
X145281217Y-105857103D01*
X145319710Y-105934090D01*
X145363094Y-106107624D01*
X145363094Y-106232013D01*
X145319710Y-106405547D01*
X145281216Y-106482534D01*
X145207104Y-106556647D01*
X145092591Y-106594819D01*
X145021693Y-106594819D01*
X144907180Y-106556648D01*
X144872081Y-106521548D01*
X144860715Y-106512220D01*
X144833679Y-106501021D01*
X144804416Y-106501021D01*
X144777380Y-106512219D01*
X144756687Y-106532912D01*
X144745488Y-106559948D01*
X144745488Y-106589211D01*
X144756686Y-106616247D01*
X144766013Y-106627612D01*
X144813632Y-106675232D01*
X144824998Y-106684560D01*
X144827486Y-106685590D01*
X144829523Y-106687357D01*
X144842949Y-106693351D01*
X144985805Y-106740970D01*
X144993060Y-106742619D01*
X144994891Y-106743378D01*
X144997544Y-106743639D01*
X145000142Y-106744230D01*
X145002116Y-106744089D01*
X145009523Y-106744819D01*
X145104761Y-106744819D01*
X145112166Y-106744089D01*
X145114141Y-106744230D01*
X145116738Y-106743639D01*
X145119393Y-106743378D01*
X145121224Y-106742619D01*
X145128478Y-106740970D01*
X145271335Y-106693351D01*
X145284760Y-106687357D01*
X145286795Y-106685591D01*
X145289286Y-106684560D01*
X145300651Y-106675233D01*
X145395890Y-106579993D01*
X145400607Y-106574244D01*
X145402106Y-106572945D01*
X145403527Y-106570686D01*
X145405217Y-106568628D01*
X145405974Y-106566798D01*
X145409938Y-106560502D01*
X145457557Y-106465264D01*
X145457966Y-106464194D01*
X145458289Y-106463759D01*
X145460481Y-106457622D01*
X145462812Y-106451533D01*
X145462850Y-106450992D01*
X145463236Y-106449913D01*
X145510855Y-106259437D01*
X145511230Y-106256900D01*
X145511653Y-106255879D01*
X145512195Y-106250366D01*
X145513005Y-106244893D01*
X145512842Y-106243800D01*
X145513094Y-106241247D01*
X145513094Y-106098390D01*
X145512842Y-106095836D01*
X145513005Y-106094744D01*
X145512195Y-106089270D01*
X145511653Y-106083758D01*
X145511230Y-106082736D01*
X145510855Y-106080200D01*
X145463236Y-105889724D01*
X145462850Y-105888644D01*
X145462812Y-105888104D01*
X145460481Y-105882014D01*
X145458289Y-105875878D01*
X145457966Y-105875442D01*
X145457557Y-105874373D01*
X145409938Y-105779135D01*
X145405975Y-105772840D01*
X145405217Y-105771008D01*
X145403525Y-105768946D01*
X145402106Y-105766692D01*
X145400609Y-105765393D01*
X145395889Y-105759643D01*
X145300651Y-105664405D01*
X145289286Y-105655078D01*
X145286795Y-105654046D01*
X145284760Y-105652281D01*
X145271335Y-105646287D01*
X145128478Y-105598668D01*
X145121224Y-105597018D01*
X145119393Y-105596260D01*
X145116738Y-105595998D01*
X145114141Y-105595408D01*
X145112166Y-105595548D01*
X145104761Y-105594819D01*
X145009523Y-105594819D01*
X145002116Y-105595548D01*
X145000142Y-105595408D01*
X144997544Y-105595998D01*
X144994891Y-105596260D01*
X144993060Y-105597018D01*
X144985805Y-105598668D01*
X144842949Y-105646287D01*
X144829523Y-105652281D01*
X144827486Y-105654047D01*
X144824998Y-105655078D01*
X144813633Y-105664405D01*
X144766014Y-105712024D01*
X144756687Y-105723389D01*
X144745488Y-105750426D01*
X144465475Y-105750426D01*
X144465475Y-105669819D01*
X144464034Y-105655187D01*
X144452835Y-105628151D01*
X144432143Y-105607459D01*
X144405107Y-105596260D01*
X144390475Y-105594819D01*
X143914285Y-105594819D01*
X143899653Y-105596260D01*
X143872617Y-105607459D01*
X143851925Y-105628151D01*
X143840726Y-105655187D01*
X143432276Y-105655187D01*
X143432143Y-105655078D01*
X143429652Y-105654046D01*
X143427617Y-105652281D01*
X143414192Y-105646287D01*
X143271335Y-105598668D01*
X143264081Y-105597018D01*
X143262250Y-105596260D01*
X143259595Y-105595998D01*
X143256998Y-105595408D01*
X143255023Y-105595548D01*
X143247618Y-105594819D01*
X143104761Y-105594819D01*
X143090129Y-105596260D01*
X143087640Y-105597290D01*
X143084951Y-105597482D01*
X143071220Y-105602737D01*
X142975982Y-105650356D01*
X142963539Y-105658188D01*
X142944366Y-105680296D01*
X142935112Y-105708057D01*
X142937186Y-105737247D01*
X142950273Y-105763422D01*
X142972381Y-105782595D01*
X143000142Y-105791849D01*
X143029332Y-105789775D01*
X143043064Y-105784520D01*
X143122466Y-105744819D01*
X143235448Y-105744819D01*
X143349961Y-105782990D01*
X143424074Y-105857103D01*
X143462567Y-105934090D01*
X143505951Y-106107624D01*
X143505951Y-106232013D01*
X143462567Y-106405547D01*
X143424073Y-106482534D01*
X143349961Y-106556647D01*
X143235448Y-106594819D01*
X143164550Y-106594819D01*
X143050037Y-106556648D01*
X143036904Y-106543514D01*
X143036904Y-106316247D01*
X143152380Y-106316247D01*
X143167012Y-106314806D01*
X143194048Y-106303607D01*
X143214740Y-106282915D01*
X143225939Y-106255879D01*
X143225939Y-106226615D01*
X143214740Y-106199579D01*
X143194048Y-106178887D01*
X143167012Y-106167688D01*
X143152380Y-106166247D01*
X142961904Y-106166247D01*
X142947272Y-106167688D01*
X142920236Y-106178887D01*
X142899544Y-106199579D01*
X142888345Y-106226615D01*
X142886904Y-106241247D01*
X142705806Y-106241247D01*
X142705806Y-105045243D01*
X142816917Y-105045243D01*
X142816917Y-105074507D01*
X142828116Y-105101543D01*
X142848808Y-105122235D01*
X142875844Y-105133434D01*
X142890476Y-105134875D01*
X143461904Y-105134875D01*
X143476536Y-105133434D01*
X143503572Y-105122235D01*
X143524264Y-105101543D01*
X143535463Y-105074507D01*
X143535463Y-105045243D01*
X143524264Y-105018207D01*
X143503572Y-104997515D01*
X143476536Y-104986316D01*
X143461904Y-104984875D01*
X143251190Y-104984875D01*
X143251190Y-104288560D01*
X143313633Y-104351003D01*
X143319383Y-104355723D01*
X143320682Y-104357220D01*
X143322936Y-104358639D01*
X143324998Y-104360331D01*
X143326830Y-104361089D01*
X143333125Y-104365052D01*
X143428363Y-104412671D01*
X143442094Y-104417926D01*
X143471284Y-104420000D01*
X143499046Y-104410746D01*
X143521153Y-104391573D01*
X143534241Y-104365398D01*
X143536315Y-104336208D01*
X143527061Y-104308447D01*
X143507888Y-104286339D01*
X143495445Y-104278507D01*
X143411093Y-104236331D01*
X143329712Y-104154950D01*
X143266329Y-104059875D01*
X143815476Y-104059875D01*
X143815476Y-105059875D01*
X143815846Y-105063638D01*
X143815659Y-105065114D01*
X143816180Y-105067024D01*
X143816917Y-105074507D01*
X143820734Y-105083722D01*
X143823359Y-105093346D01*
X143826286Y-105097126D01*
X143828116Y-105101543D01*
X143835166Y-105108593D01*
X143841276Y-105116483D01*
X143845429Y-105118856D01*
X143848808Y-105122235D01*
X143858020Y-105126051D01*
X143866685Y-105131002D01*
X143871428Y-105131604D01*
X143875844Y-105133434D01*
X143885818Y-105133434D01*
X143895715Y-105134692D01*
X143900327Y-105133434D01*
X143905108Y-105133434D01*
X143914323Y-105129616D01*
X143923947Y-105126992D01*
X143927727Y-105124064D01*
X143932144Y-105122235D01*
X143939194Y-105115184D01*
X143947084Y-105109075D01*
X143951436Y-105102942D01*
X143952836Y-105101543D01*
X143953405Y-105100168D01*
X143955594Y-105097085D01*
X144386904Y-104342291D01*
X144386904Y-105059875D01*
X144388345Y-105074507D01*
X144399544Y-105101543D01*
X144420236Y-105122235D01*
X144447272Y-105133434D01*
X144476536Y-105133434D01*
X144503572Y-105122235D01*
X144524264Y-105101543D01*
X144535463Y-105074507D01*
X144536904Y-105059875D01*
X144536904Y-104631303D01*
X144815476Y-104631303D01*
X144815476Y-104964636D01*
X144816917Y-104979268D01*
X144820834Y-104988724D01*
X144828115Y-105006303D01*
X144837442Y-105017668D01*
X144885061Y-105065288D01*
X144896427Y-105074616D01*
X144898915Y-105075646D01*
X144900952Y-105077413D01*
X144914378Y-105083407D01*
X145057234Y-105131026D01*
X145064489Y-105132675D01*
X145066320Y-105133434D01*
X145068973Y-105133695D01*
X145071571Y-105134286D01*
X145073545Y-105134145D01*
X145080952Y-105134875D01*
X145176190Y-105134875D01*
X145183595Y-105134145D01*
X145185570Y-105134286D01*
X145188167Y-105133695D01*
X145190822Y-105133434D01*
X145192653Y-105132675D01*
X145199907Y-105131026D01*
X145342764Y-105083407D01*
X145356189Y-105077413D01*
X145358224Y-105075647D01*
X145360715Y-105074616D01*
X145372080Y-105065289D01*
X145467319Y-104970049D01*
X145472036Y-104964300D01*
X145473535Y-104963001D01*
X145474956Y-104960742D01*
X145476646Y-104958684D01*
X145477403Y-104956854D01*
X145481367Y-104950558D01*
X145528986Y-104855320D01*
X145529395Y-104854250D01*
X145529718Y-104853815D01*
X145531910Y-104847678D01*
X145534241Y-104841589D01*
X145534279Y-104841048D01*
X145534665Y-104839969D01*
X145582284Y-104649493D01*
X145582659Y-104646956D01*
X145583082Y-104645935D01*
X145583624Y-104640422D01*
X145584434Y-104634949D01*
X145584271Y-104633856D01*
X145584523Y-104631303D01*
X145584523Y-104488446D01*
X145584271Y-104485892D01*
X145584434Y-104484800D01*
X145583624Y-104479326D01*
X145583082Y-104473814D01*
X145582659Y-104472792D01*
X145582284Y-104470256D01*
X145534665Y-104279780D01*
X145534279Y-104278700D01*
X145534241Y-104278160D01*
X145531904Y-104272053D01*
X145529718Y-104265934D01*
X145529395Y-104265498D01*
X145528986Y-104264429D01*
X145481367Y-104169191D01*
X145477404Y-104162896D01*
X145476646Y-104161064D01*
X145474954Y-104159002D01*
X145473535Y-104156748D01*
X145472038Y-104155449D01*
X145467318Y-104149699D01*
X145372080Y-104054461D01*
X145360715Y-104045134D01*
X145358224Y-104044102D01*
X145356189Y-104042337D01*
X145342764Y-104036343D01*
X145199907Y-103988724D01*
X145192653Y-103987074D01*
X145190822Y-103986316D01*
X145188167Y-103986054D01*
X145185570Y-103985464D01*
X145183595Y-103985604D01*
X145176190Y-103984875D01*
X145033333Y-103984875D01*
X145018701Y-103986316D01*
X145016212Y-103987346D01*
X145013523Y-103987538D01*
X144999792Y-103992793D01*
X144904554Y-104040412D01*
X144892111Y-104048244D01*
X144872938Y-104070352D01*
X144863684Y-104098113D01*
X144865758Y-104127303D01*
X144878845Y-104153478D01*
X144900953Y-104172651D01*
X144928714Y-104181905D01*
X144957904Y-104179831D01*
X144971636Y-104174576D01*
X145051038Y-104134875D01*
X145164020Y-104134875D01*
X145278533Y-104173046D01*
X145352646Y-104247159D01*
X145391139Y-104324146D01*
X145434523Y-104497680D01*
X145434523Y-104622069D01*
X145391139Y-104795603D01*
X145352645Y-104872590D01*
X145278533Y-104946703D01*
X145164020Y-104984875D01*
X145093122Y-104984875D01*
X144978609Y-104946704D01*
X144965476Y-104933570D01*
X144965476Y-104706303D01*
X145080952Y-104706303D01*
X145095584Y-104704862D01*
X145122620Y-104693663D01*
X145143312Y-104672971D01*
X145154511Y-104645935D01*
X145154511Y-104616671D01*
X145143312Y-104589635D01*
X145122620Y-104568943D01*
X145095584Y-104557744D01*
X145080952Y-104556303D01*
X144890476Y-104556303D01*
X144875844Y-104557744D01*
X144848808Y-104568943D01*
X144828116Y-104589635D01*
X144816917Y-104616671D01*
X144815476Y-104631303D01*
X144536904Y-104631303D01*
X144536904Y-104059875D01*
X144536533Y-104056111D01*
X144536721Y-104054636D01*
X144536199Y-104052725D01*
X144535463Y-104045243D01*
X144531645Y-104036027D01*
X144529021Y-104026404D01*
X144526093Y-104022623D01*
X144524264Y-104018207D01*
X144517213Y-104011156D01*
X144511104Y-104003267D01*
X144506950Y-104000893D01*
X144503572Y-103997515D01*
X144494359Y-103993698D01*
X144485695Y-103988748D01*
X144480951Y-103988145D01*
X144476536Y-103986316D01*
X144466562Y-103986316D01*
X144456665Y-103985058D01*
X144452053Y-103986316D01*
X144447272Y-103986316D01*
X144438055Y-103990133D01*
X144428434Y-103992758D01*
X144424654Y-103995684D01*
X144420236Y-103997515D01*
X144413184Y-104004566D01*
X144405296Y-104010675D01*
X144400941Y-104016809D01*
X144399544Y-104018207D01*
X144398975Y-104019579D01*
X144396786Y-104022664D01*
X143965476Y-104777458D01*
X143965476Y-104059875D01*
X143964035Y-104045243D01*
X143952836Y-104018207D01*
X143932144Y-103997515D01*
X143905108Y-103986316D01*
X143875844Y-103986316D01*
X143848808Y-103997515D01*
X143828116Y-104018207D01*
X143816917Y-104045243D01*
X143815476Y-104059875D01*
X143266329Y-104059875D01*
X143238594Y-104018272D01*
X143238559Y-104018229D01*
X143238550Y-104018207D01*
X143238498Y-104018155D01*
X143229278Y-104006897D01*
X143223108Y-104002765D01*
X143217858Y-103997515D01*
X143211068Y-103994702D01*
X143204963Y-103990614D01*
X143197682Y-103989157D01*
X143190822Y-103986316D01*
X143183474Y-103986316D01*
X143176269Y-103984875D01*
X143168985Y-103986316D01*
X143161558Y-103986316D01*
X143154769Y-103989128D01*
X143147561Y-103990554D01*
X143141382Y-103994673D01*
X143134522Y-103997515D01*
X143129326Y-104002710D01*
X143123212Y-104006787D01*
X143119080Y-104012956D01*
X143113830Y-104018207D01*
X143111017Y-104024996D01*
X143106929Y-104031102D01*
X143105472Y-104038382D01*
X143102631Y-104045243D01*
X143101205Y-104059719D01*
X143101190Y-104059796D01*
X143101195Y-104059822D01*
X143101190Y-104059875D01*
X143101190Y-104984875D01*
X142890476Y-104984875D01*
X142875844Y-104986316D01*
X142848808Y-104997515D01*
X142828116Y-105018207D01*
X142816917Y-105045243D01*
X142705806Y-105045243D01*
X142705806Y-103873764D01*
X145695634Y-103873764D01*
X145695634Y-106855930D01*
G37*
X140754819Y-96433333D02*
X139754819Y-96433333D01*
X139754819Y-96433333D02*
X139754819Y-96814285D01*
X139754819Y-96814285D02*
X139802438Y-96909523D01*
X139802438Y-96909523D02*
X139850057Y-96957142D01*
X139850057Y-96957142D02*
X139945295Y-97004761D01*
X139945295Y-97004761D02*
X140088152Y-97004761D01*
X140088152Y-97004761D02*
X140183390Y-96957142D01*
X140183390Y-96957142D02*
X140231009Y-96909523D01*
X140231009Y-96909523D02*
X140278628Y-96814285D01*
X140278628Y-96814285D02*
X140278628Y-96433333D01*
X139754819Y-97623809D02*
X139754819Y-97814285D01*
X139754819Y-97814285D02*
X139802438Y-97909523D01*
X139802438Y-97909523D02*
X139897676Y-98004761D01*
X139897676Y-98004761D02*
X140088152Y-98052380D01*
X140088152Y-98052380D02*
X140421485Y-98052380D01*
X140421485Y-98052380D02*
X140611961Y-98004761D01*
X140611961Y-98004761D02*
X140707200Y-97909523D01*
X140707200Y-97909523D02*
X140754819Y-97814285D01*
X140754819Y-97814285D02*
X140754819Y-97623809D01*
X140754819Y-97623809D02*
X140707200Y-97528571D01*
X140707200Y-97528571D02*
X140611961Y-97433333D01*
X140611961Y-97433333D02*
X140421485Y-97385714D01*
X140421485Y-97385714D02*
X140088152Y-97385714D01*
X140088152Y-97385714D02*
X139897676Y-97433333D01*
X139897676Y-97433333D02*
X139802438Y-97528571D01*
X139802438Y-97528571D02*
X139754819Y-97623809D01*
X139754819Y-98338095D02*
X139754819Y-98909523D01*
X140754819Y-98623809D02*
X139754819Y-98623809D01*
X154433333Y-92654819D02*
X154433333Y-93369104D01*
X154433333Y-93369104D02*
X154480952Y-93511961D01*
X154480952Y-93511961D02*
X154576190Y-93607200D01*
X154576190Y-93607200D02*
X154719047Y-93654819D01*
X154719047Y-93654819D02*
X154814285Y-93654819D01*
X153957142Y-93654819D02*
X153957142Y-92654819D01*
X153957142Y-92654819D02*
X153576190Y-92654819D01*
X153576190Y-92654819D02*
X153480952Y-92702438D01*
X153480952Y-92702438D02*
X153433333Y-92750057D01*
X153433333Y-92750057D02*
X153385714Y-92845295D01*
X153385714Y-92845295D02*
X153385714Y-92988152D01*
X153385714Y-92988152D02*
X153433333Y-93083390D01*
X153433333Y-93083390D02*
X153480952Y-93131009D01*
X153480952Y-93131009D02*
X153576190Y-93178628D01*
X153576190Y-93178628D02*
X153957142Y-93178628D01*
X153052380Y-92654819D02*
X152433333Y-92654819D01*
X152433333Y-92654819D02*
X152766666Y-93035771D01*
X152766666Y-93035771D02*
X152623809Y-93035771D01*
X152623809Y-93035771D02*
X152528571Y-93083390D01*
X152528571Y-93083390D02*
X152480952Y-93131009D01*
X152480952Y-93131009D02*
X152433333Y-93226247D01*
X152433333Y-93226247D02*
X152433333Y-93464342D01*
X152433333Y-93464342D02*
X152480952Y-93559580D01*
X152480952Y-93559580D02*
X152528571Y-93607200D01*
X152528571Y-93607200D02*
X152623809Y-93654819D01*
X152623809Y-93654819D02*
X152909523Y-93654819D01*
X152909523Y-93654819D02*
X153004761Y-93607200D01*
X153004761Y-93607200D02*
X153052380Y-93559580D01*
X145075333Y-102600819D02*
X145075333Y-103315104D01*
X145075333Y-103315104D02*
X145122952Y-103457961D01*
X145122952Y-103457961D02*
X145218190Y-103553200D01*
X145218190Y-103553200D02*
X145361047Y-103600819D01*
X145361047Y-103600819D02*
X145456285Y-103600819D01*
X144599142Y-103600819D02*
X144599142Y-102600819D01*
X144599142Y-102600819D02*
X144218190Y-102600819D01*
X144218190Y-102600819D02*
X144122952Y-102648438D01*
X144122952Y-102648438D02*
X144075333Y-102696057D01*
X144075333Y-102696057D02*
X144027714Y-102791295D01*
X144027714Y-102791295D02*
X144027714Y-102934152D01*
X144027714Y-102934152D02*
X144075333Y-103029390D01*
X144075333Y-103029390D02*
X144122952Y-103077009D01*
X144122952Y-103077009D02*
X144218190Y-103124628D01*
X144218190Y-103124628D02*
X144599142Y-103124628D01*
X143170571Y-102934152D02*
X143170571Y-103600819D01*
X143408666Y-102553200D02*
X143646761Y-103267485D01*
X143646761Y-103267485D02*
X143027714Y-103267485D01*
X150233333Y-92654819D02*
X150233333Y-93369104D01*
X150233333Y-93369104D02*
X150280952Y-93511961D01*
X150280952Y-93511961D02*
X150376190Y-93607200D01*
X150376190Y-93607200D02*
X150519047Y-93654819D01*
X150519047Y-93654819D02*
X150614285Y-93654819D01*
X149757142Y-93654819D02*
X149757142Y-92654819D01*
X149757142Y-92654819D02*
X149376190Y-92654819D01*
X149376190Y-92654819D02*
X149280952Y-92702438D01*
X149280952Y-92702438D02*
X149233333Y-92750057D01*
X149233333Y-92750057D02*
X149185714Y-92845295D01*
X149185714Y-92845295D02*
X149185714Y-92988152D01*
X149185714Y-92988152D02*
X149233333Y-93083390D01*
X149233333Y-93083390D02*
X149280952Y-93131009D01*
X149280952Y-93131009D02*
X149376190Y-93178628D01*
X149376190Y-93178628D02*
X149757142Y-93178628D01*
X148804761Y-92750057D02*
X148757142Y-92702438D01*
X148757142Y-92702438D02*
X148661904Y-92654819D01*
X148661904Y-92654819D02*
X148423809Y-92654819D01*
X148423809Y-92654819D02*
X148328571Y-92702438D01*
X148328571Y-92702438D02*
X148280952Y-92750057D01*
X148280952Y-92750057D02*
X148233333Y-92845295D01*
X148233333Y-92845295D02*
X148233333Y-92940533D01*
X148233333Y-92940533D02*
X148280952Y-93083390D01*
X148280952Y-93083390D02*
X148852380Y-93654819D01*
X148852380Y-93654819D02*
X148233333Y-93654819D01*
X145033333Y-95854819D02*
X145033333Y-96569104D01*
X145033333Y-96569104D02*
X145080952Y-96711961D01*
X145080952Y-96711961D02*
X145176190Y-96807200D01*
X145176190Y-96807200D02*
X145319047Y-96854819D01*
X145319047Y-96854819D02*
X145414285Y-96854819D01*
X144557142Y-96854819D02*
X144557142Y-95854819D01*
X144557142Y-95854819D02*
X144176190Y-95854819D01*
X144176190Y-95854819D02*
X144080952Y-95902438D01*
X144080952Y-95902438D02*
X144033333Y-95950057D01*
X144033333Y-95950057D02*
X143985714Y-96045295D01*
X143985714Y-96045295D02*
X143985714Y-96188152D01*
X143985714Y-96188152D02*
X144033333Y-96283390D01*
X144033333Y-96283390D02*
X144080952Y-96331009D01*
X144080952Y-96331009D02*
X144176190Y-96378628D01*
X144176190Y-96378628D02*
X144557142Y-96378628D01*
X143080952Y-95854819D02*
X143557142Y-95854819D01*
X143557142Y-95854819D02*
X143604761Y-96331009D01*
X143604761Y-96331009D02*
X143557142Y-96283390D01*
X143557142Y-96283390D02*
X143461904Y-96235771D01*
X143461904Y-96235771D02*
X143223809Y-96235771D01*
X143223809Y-96235771D02*
X143128571Y-96283390D01*
X143128571Y-96283390D02*
X143080952Y-96331009D01*
X143080952Y-96331009D02*
X143033333Y-96426247D01*
X143033333Y-96426247D02*
X143033333Y-96664342D01*
X143033333Y-96664342D02*
X143080952Y-96759580D01*
X143080952Y-96759580D02*
X143128571Y-96807200D01*
X143128571Y-96807200D02*
X143223809Y-96854819D01*
X143223809Y-96854819D02*
X143461904Y-96854819D01*
X143461904Y-96854819D02*
X143557142Y-96807200D01*
X143557142Y-96807200D02*
X143604761Y-96759580D01*
X160854819Y-100766666D02*
X161569104Y-100766666D01*
X161569104Y-100766666D02*
X161711961Y-100719047D01*
X161711961Y-100719047D02*
X161807200Y-100623809D01*
X161807200Y-100623809D02*
X161854819Y-100480952D01*
X161854819Y-100480952D02*
X161854819Y-100385714D01*
X161854819Y-101242857D02*
X160854819Y-101242857D01*
X160854819Y-101242857D02*
X160854819Y-101623809D01*
X160854819Y-101623809D02*
X160902438Y-101719047D01*
X160902438Y-101719047D02*
X160950057Y-101766666D01*
X160950057Y-101766666D02*
X161045295Y-101814285D01*
X161045295Y-101814285D02*
X161188152Y-101814285D01*
X161188152Y-101814285D02*
X161283390Y-101766666D01*
X161283390Y-101766666D02*
X161331009Y-101719047D01*
X161331009Y-101719047D02*
X161378628Y-101623809D01*
X161378628Y-101623809D02*
X161378628Y-101242857D01*
X161854819Y-102766666D02*
X161854819Y-102195238D01*
X161854819Y-102480952D02*
X160854819Y-102480952D01*
X160854819Y-102480952D02*
X160997676Y-102385714D01*
X160997676Y-102385714D02*
X161092914Y-102290476D01*
X161092914Y-102290476D02*
X161140533Y-102195238D01*
D11*
%TO.C,JP3*%
X152255000Y-94600000D02*
X152255000Y-95200000D01*
X152955000Y-95900000D02*
X154355000Y-95900000D01*
X154355000Y-93900000D02*
X152955000Y-93900000D01*
X155055000Y-95200000D02*
X155055000Y-94600000D01*
X152255000Y-94600000D02*
G75*
G02*
X152955000Y-93900000I700000J0D01*
G01*
X152955000Y-95900000D02*
G75*
G02*
X152255000Y-95200000I0J700000D01*
G01*
X154355000Y-93900000D02*
G75*
G02*
X155055000Y-94600000I1J-699999D01*
G01*
X155055000Y-95200000D02*
G75*
G02*
X154355000Y-95900000I-699999J-1D01*
G01*
%TO.C,JP4*%
X142192000Y-101046000D02*
X142192000Y-101646000D01*
X142742000Y-99846000D02*
X143342000Y-99846000D01*
X142842000Y-102346000D02*
X145642000Y-102346000D01*
X143042000Y-100146000D02*
X142742000Y-99846000D01*
X143042000Y-100146000D02*
X143342000Y-99846000D01*
X145642000Y-100346000D02*
X142842000Y-100346000D01*
X146292000Y-101646000D02*
X146292000Y-101046000D01*
X142192000Y-101046000D02*
G75*
G02*
X142892000Y-100346000I699999J1D01*
G01*
X142892000Y-102346000D02*
G75*
G02*
X142192000Y-101646000I-1J699999D01*
G01*
X145592000Y-100346000D02*
G75*
G02*
X146292000Y-101046000I0J-700000D01*
G01*
X146292000Y-101646000D02*
G75*
G02*
X145592000Y-102346000I-700000J0D01*
G01*
%TO.C,JP2*%
X147950000Y-94600000D02*
X147950000Y-95200000D01*
X148650000Y-95900000D02*
X150050000Y-95900000D01*
X150050000Y-93900000D02*
X148650000Y-93900000D01*
X150750000Y-95200000D02*
X150750000Y-94600000D01*
X147950000Y-94600000D02*
G75*
G02*
X148650000Y-93900000I700000J0D01*
G01*
X148650000Y-95900000D02*
G75*
G02*
X147950000Y-95200000I0J700000D01*
G01*
X150050000Y-93900000D02*
G75*
G02*
X150750000Y-94600000I1J-699999D01*
G01*
X150750000Y-95200000D02*
G75*
G02*
X150050000Y-95900000I-699999J-1D01*
G01*
%TO.C,JP5*%
X142150000Y-94300000D02*
X142150000Y-94900000D01*
X142700000Y-93100000D02*
X143300000Y-93100000D01*
X142800000Y-95600000D02*
X145600000Y-95600000D01*
X143000000Y-93400000D02*
X142700000Y-93100000D01*
X143000000Y-93400000D02*
X143300000Y-93100000D01*
X145600000Y-93600000D02*
X142800000Y-93600000D01*
X146250000Y-94900000D02*
X146250000Y-94300000D01*
X142150000Y-94300000D02*
G75*
G02*
X142850000Y-93600000I699999J1D01*
G01*
X142850000Y-95600000D02*
G75*
G02*
X142150000Y-94900000I-1J699999D01*
G01*
X145550000Y-93600000D02*
G75*
G02*
X146250000Y-94300000I0J-700000D01*
G01*
X146250000Y-94900000D02*
G75*
G02*
X145550000Y-95600000I-700000J0D01*
G01*
%TO.C,JP1*%
X158639000Y-100758000D02*
X158639000Y-102158000D01*
X159339000Y-102858000D02*
X159939000Y-102858000D01*
X159939000Y-100058000D02*
X159339000Y-100058000D01*
X160639000Y-102158000D02*
X160639000Y-100758000D01*
X158639000Y-100758000D02*
G75*
G02*
X159339000Y-100058000I700000J0D01*
G01*
X159339000Y-102858000D02*
G75*
G02*
X158639000Y-102158000I-1J699999D01*
G01*
X159939000Y-100058000D02*
G75*
G02*
X160639000Y-100758000I0J-700000D01*
G01*
X160639000Y-102158000D02*
G75*
G02*
X159939000Y-102858000I-699999J-1D01*
G01*
%TD*%
%LPC*%
%TO.C,JP3*%
G36*
X153805000Y-94150000D02*
G01*
X153505000Y-94150000D01*
X153505000Y-95650000D01*
X153805000Y-95650000D01*
X153805000Y-94150000D01*
G37*
%TO.C,JP4*%
G36*
X143492000Y-102096000D02*
G01*
X144992000Y-102096000D01*
X144992000Y-100596000D01*
X143492000Y-100596000D01*
X143492000Y-102096000D01*
G37*
%TO.C,JP2*%
G36*
X149500000Y-94150000D02*
G01*
X149200000Y-94150000D01*
X149200000Y-95650000D01*
X149500000Y-95650000D01*
X149500000Y-94150000D01*
G37*
%TO.C,JP5*%
G36*
X143450000Y-95350000D02*
G01*
X144950000Y-95350000D01*
X144950000Y-93850000D01*
X143450000Y-93850000D01*
X143450000Y-95350000D01*
G37*
%TO.C,JP1*%
G36*
X160389000Y-101608000D02*
G01*
X158889000Y-101608000D01*
X158889000Y-101308000D01*
X160389000Y-101308000D01*
X160389000Y-101608000D01*
G37*
%TD*%
D12*
%TO.C,J7*%
X141986000Y-122682000D03*
D13*
X141986000Y-120142000D03*
%TD*%
D14*
%TO.C,J2*%
X175387500Y-106600000D03*
D15*
X172847500Y-104060000D03*
X172847500Y-109140000D03*
X177927500Y-104060000D03*
X177927500Y-109140000D03*
%TD*%
D16*
%TO.C,H3*%
X175000000Y-70000000D03*
%TD*%
D17*
%TO.C,TP5*%
X158700000Y-89000000D03*
%TD*%
%TO.C,TP4*%
X149000000Y-89000000D03*
%TD*%
D16*
%TO.C,H2*%
X105000000Y-130000000D03*
%TD*%
D14*
%TO.C,J3*%
X175387500Y-90400000D03*
D15*
X172847500Y-87860000D03*
X172847500Y-92940000D03*
X177927500Y-87860000D03*
X177927500Y-92940000D03*
%TD*%
D12*
%TO.C,J13*%
X154387500Y-108725000D03*
D13*
X154387500Y-111265000D03*
%TD*%
D14*
%TO.C,J11*%
X164270000Y-69402000D03*
D15*
X161730000Y-71942000D03*
X166810000Y-71942000D03*
X161730000Y-66862000D03*
X166810000Y-66862000D03*
%TD*%
D17*
%TO.C,TP7*%
X125500000Y-82000000D03*
%TD*%
D14*
%TO.C,J15*%
X104660000Y-115340000D03*
D15*
X107200000Y-117880000D03*
X107200000Y-112800000D03*
X102120000Y-117880000D03*
X102120000Y-112800000D03*
%TD*%
D12*
%TO.C,J12*%
X161925000Y-122682000D03*
D13*
X161925000Y-120142000D03*
%TD*%
D17*
%TO.C,TP6*%
X130787500Y-119400000D03*
%TD*%
D12*
%TO.C,J20*%
X116078000Y-77470000D03*
D13*
X118618000Y-77470000D03*
%TD*%
D17*
%TO.C,TP3*%
X159639000Y-98171000D03*
%TD*%
D12*
%TO.C,J6*%
X146050000Y-77724000D03*
D13*
X146050000Y-80264000D03*
%TD*%
D14*
%TO.C,J10*%
X159880000Y-130600000D03*
D15*
X157340000Y-133140000D03*
X162420000Y-133140000D03*
X157340000Y-128060000D03*
X162420000Y-128060000D03*
%TD*%
D14*
%TO.C,J19*%
X131318000Y-69342000D03*
D15*
X128778000Y-71882000D03*
X133858000Y-71882000D03*
X128778000Y-66802000D03*
X133858000Y-66802000D03*
%TD*%
D16*
%TO.C,H1*%
X175000000Y-130000000D03*
%TD*%
D14*
%TO.C,J4*%
X144200000Y-130600000D03*
D15*
X141660000Y-133140000D03*
X146740000Y-133140000D03*
X141660000Y-128060000D03*
X146740000Y-128060000D03*
%TD*%
D14*
%TO.C,J17*%
X104460000Y-84060000D03*
D15*
X107000000Y-86600000D03*
X107000000Y-81520000D03*
X101920000Y-86600000D03*
X101920000Y-81520000D03*
%TD*%
D12*
%TO.C,J1*%
X167640000Y-107701000D03*
D13*
X167640000Y-105161000D03*
%TD*%
D16*
%TO.C,H4*%
X105000000Y-70000000D03*
%TD*%
D12*
%TO.C,J5*%
X167640000Y-91445000D03*
D13*
X167640000Y-88905000D03*
%TD*%
D14*
%TO.C,J18*%
X116078000Y-69342000D03*
D15*
X113538000Y-71882000D03*
X118618000Y-71882000D03*
X113538000Y-66802000D03*
X118618000Y-66802000D03*
%TD*%
D12*
%TO.C,J8*%
X150787500Y-108725000D03*
D13*
X150787500Y-111265000D03*
%TD*%
D18*
%TO.C,J16*%
X104400000Y-96260000D03*
D19*
X104400000Y-98800000D03*
X104400000Y-101340000D03*
X104400000Y-103880000D03*
%TD*%
D12*
%TO.C,J21*%
X131318000Y-77470000D03*
D13*
X133858000Y-77470000D03*
%TD*%
D12*
%TO.C,J14*%
X166878000Y-77719000D03*
D13*
X166878000Y-80259000D03*
%TD*%
D14*
%TO.C,J9*%
X148590000Y-69342000D03*
D15*
X146050000Y-71882000D03*
X151130000Y-71882000D03*
X146050000Y-66802000D03*
X151130000Y-66802000D03*
%TD*%
D20*
%TO.C,JP3*%
X154305000Y-94900000D03*
D21*
X153005000Y-94900000D03*
%TD*%
D22*
%TO.C,JP4*%
X142942000Y-101346000D03*
D23*
X144242000Y-101346000D03*
D24*
X145542000Y-101346000D03*
%TD*%
D20*
%TO.C,JP2*%
X150000000Y-94900000D03*
D21*
X148700000Y-94900000D03*
%TD*%
D22*
%TO.C,JP5*%
X142900000Y-94600000D03*
D23*
X144200000Y-94600000D03*
D24*
X145500000Y-94600000D03*
%TD*%
D25*
%TO.C,JP1*%
X159639000Y-102108000D03*
D26*
X159639000Y-100808000D03*
%TD*%
%LPD*%
M02*
