M48
INCH
T1C0.0079
T2C0.0079
T3C0.0118
T4C0.0394
T5C0.0433
T6C0.0591
T7C0.0669
T8C0.1260
%
G90
G05
T1
X4.5743Y-3.3326
X4.6688Y-3.3278
X4.7475Y-3.3868
X4.8105Y-3.3868
X4.8499Y-3.6378
X4.9129Y-3.6378
X4.9759Y-3.6378
X5.0625Y-3.4016
X5.0625Y-3.4626
X5.1324Y-3.5266
X5.1344Y-3.5896
X5.1412Y-3.3425
X5.1412Y-3.4587
X5.6767Y-3.6624
X5.6767Y-3.9301
X6.0369Y-3.9345
T2
X4.9198Y-3.4374
X4.9198Y-3.4744
X4.9198Y-3.5114
X4.9651Y-3.4374
X4.9651Y-3.4744
X4.9651Y-3.5114
T3
X4.5507Y-4.6102
X4.5551Y-3.6457
X4.5979Y-4.3021
X4.685Y-4.2972
X4.7441Y-4.6102
X4.747Y-3.6467
X4.7598Y-4.3563
X4.8189Y-4.3563
X4.8814Y-4.5994
X4.9444Y-4.5994
X4.9503Y-4.4331
X5.0074Y-4.5994
X5.0704Y-4.3553
X5.0704Y-4.4163
X5.1324Y-4.5433
X5.1344Y-4.4803
X5.1491Y-4.2963
X5.1491Y-4.4124
X5.3893Y-3.7618
X5.3893Y-4.0531
X5.4875Y-4.17
X5.4895Y-4.235
X5.6058Y-3.7165
X5.6058Y-4.0079
X5.61Y-4.3025
X5.6767Y-3.7234
X5.6767Y-3.9911
X5.7003Y-4.4646
X5.7647Y-4.1486
X5.7647Y-4.3376
X5.8262Y-4.0097
X5.8296Y-3.9321
X5.8461Y-3.9852
X5.8568Y-3.8282
X5.8603Y-3.8838
X5.8755Y-4.0255
X5.8955Y-3.8243
X5.9055Y-3.7362
X6.045Y-4.175
X6.065Y-4.2
X6.075Y-3.7362
X6.13Y-4.1034
X6.19Y-3.975
X6.1939Y-3.8781
X6.219Y-4.0787
X6.2436Y-4.1465
X6.245Y-4.335
X6.284Y-4.0157
X6.284Y-4.0787
X6.3076Y-4.4567
T4
X4.57Y-3.05
X4.67Y-3.05
X4.9409Y-3.2283
X5.1491Y-4.7008
X5.17Y-3.05
X5.27Y-3.05
X5.59Y-4.73
X5.59Y-4.83
X5.75Y-3.06
X5.75Y-3.16
X5.8661Y-3.5039
X5.9365Y-4.2805
X5.9365Y-4.3805
X6.0782Y-4.2805
X6.0782Y-4.3805
X6.248Y-3.5039
X6.285Y-3.865
X6.375Y-4.73
X6.375Y-4.83
X6.57Y-3.0598
X6.57Y-3.1598
X6.6Y-3.5002
X6.6Y-3.6002
X6.6Y-4.1402
X6.6Y-4.2402
T5
X4.1102Y-3.7898
X4.1102Y-3.8898
X4.1102Y-3.9898
X4.1102Y-4.0898
T6
X4.1126Y-3.3094
X4.1205Y-4.5409
X4.57Y-2.73
X5.17Y-2.73
X5.6772Y-5.1417
X5.85Y-2.73
X6.2945Y-5.1417
X6.4673Y-2.7324
X6.905Y-3.5591
X6.905Y-4.1969
T7
X4.0126Y-3.2094
X4.0126Y-3.4094
X4.0205Y-4.4409
X4.0205Y-4.6409
X4.2126Y-3.2094
X4.2126Y-3.4094
X4.2205Y-4.4409
X4.2205Y-4.6409
X4.47Y-2.63
X4.47Y-2.83
X4.67Y-2.63
X4.67Y-2.83
X5.07Y-2.63
X5.07Y-2.83
X5.27Y-2.63
X5.27Y-2.83
X5.5772Y-5.0417
X5.5772Y-5.2417
X5.75Y-2.63
X5.75Y-2.83
X5.7772Y-5.0417
X5.7772Y-5.2417
X5.95Y-2.63
X5.95Y-2.83
X6.1945Y-5.0417
X6.1945Y-5.2417
X6.3673Y-2.6324
X6.3673Y-2.8324
X6.3945Y-5.0417
X6.3945Y-5.2417
X6.5673Y-2.6324
X6.5673Y-2.8324
X6.805Y-3.4591
X6.805Y-3.6591
X6.805Y-4.0969
X6.805Y-4.2969
X7.005Y-3.4591
X7.005Y-3.6591
X7.005Y-4.0969
X7.005Y-4.2969
T8
X4.1339Y-2.7559
X4.1339Y-5.1181
X6.8898Y-2.7559
X6.8898Y-5.1181
M30
