%TF.GenerationSoftware,KiCad,Pcbnew,9.0.1*%
%TF.CreationDate,2025-09-11T01:36:26+09:00*%
%TF.ProjectId,optical_daq_vga_v0_4_1,6f707469-6361-46c5-9f64-61715f766761,rev?*%
%TF.SameCoordinates,Original*%
%TF.FileFunction,Soldermask,Bot*%
%TF.FilePolarity,Negative*%
%FSLAX46Y46*%
G04 Gerber Fmt 4.6, Leading zero omitted, Abs format (unit mm)*
G04 Created by KiCad (PCBNEW 9.0.1) date 2025-09-11 01:36:26*
%MOMM*%
%LPD*%
G01*
G04 APERTURE LIST*
G04 Aperture macros list*
%AMRoundRect*
0 Rectangle with rounded corners*
0 $1 Rounding radius*
0 $2 $3 $4 $5 $6 $7 $8 $9 X,Y pos of 4 corners*
0 Add a 4 corners polygon primitive as box body*
4,1,4,$2,$3,$4,$5,$6,$7,$8,$9,$2,$3,0*
0 Add four circle primitives for the rounded corners*
1,1,$1+$1,$2,$3*
1,1,$1+$1,$4,$5*
1,1,$1+$1,$6,$7*
1,1,$1+$1,$8,$9*
0 Add four rect primitives between the rounded corners*
20,1,$1+$1,$2,$3,$4,$5,0*
20,1,$1+$1,$4,$5,$6,$7,0*
20,1,$1+$1,$6,$7,$8,$9,0*
20,1,$1+$1,$8,$9,$2,$3,0*%
%AMFreePoly0*
4,1,23,0.500000,-0.750000,0.000000,-0.750000,0.000000,-0.745722,-0.065263,-0.745722,-0.191342,-0.711940,-0.304381,-0.646677,-0.396677,-0.554381,-0.461940,-0.441342,-0.495722,-0.315263,-0.495722,-0.250000,-0.500000,-0.250000,-0.500000,0.250000,-0.495722,0.250000,-0.495722,0.315263,-0.461940,0.441342,-0.396677,0.554381,-0.304381,0.646677,-0.191342,0.711940,-0.065263,0.745722,0.000000,0.745722,
0.000000,0.750000,0.500000,0.750000,0.500000,-0.750000,0.500000,-0.750000,$1*%
%AMFreePoly1*
4,1,23,0.000000,0.745722,0.065263,0.745722,0.191342,0.711940,0.304381,0.646677,0.396677,0.554381,0.461940,0.441342,0.495722,0.315263,0.495722,0.250000,0.500000,0.250000,0.500000,-0.250000,0.495722,-0.250000,0.495722,-0.315263,0.461940,-0.441342,0.396677,-0.554381,0.304381,-0.646677,0.191342,-0.711940,0.065263,-0.745722,0.000000,-0.745722,0.000000,-0.750000,-0.500000,-0.750000,
-0.500000,0.750000,0.000000,0.750000,0.000000,0.745722,0.000000,0.745722,$1*%
%AMFreePoly2*
4,1,23,0.550000,-0.750000,0.000000,-0.750000,0.000000,-0.745722,-0.065263,-0.745722,-0.191342,-0.711940,-0.304381,-0.646677,-0.396677,-0.554381,-0.461940,-0.441342,-0.495722,-0.315263,-0.495722,-0.250000,-0.500000,-0.250000,-0.500000,0.250000,-0.495722,0.250000,-0.495722,0.315263,-0.461940,0.441342,-0.396677,0.554381,-0.304381,0.646677,-0.191342,0.711940,-0.065263,0.745722,0.000000,0.745722,
0.000000,0.750000,0.550000,0.750000,0.550000,-0.750000,0.550000,-0.750000,$1*%
%AMFreePoly3*
4,1,23,0.000000,0.745722,0.065263,0.745722,0.191342,0.711940,0.304381,0.646677,0.396677,0.554381,0.461940,0.441342,0.495722,0.315263,0.495722,0.250000,0.500000,0.250000,0.500000,-0.250000,0.495722,-0.250000,0.495722,-0.315263,0.461940,-0.441342,0.396677,-0.554381,0.304381,-0.646677,0.191342,-0.711940,0.065263,-0.745722,0.000000,-0.745722,0.000000,-0.750000,-0.550000,-0.750000,
-0.550000,0.750000,0.000000,0.750000,0.000000,0.745722,0.000000,0.745722,$1*%
G04 Aperture macros list end*
%ADD10R,1.700000X1.700000*%
%ADD11C,1.700000*%
%ADD12C,2.050000*%
%ADD13C,2.250000*%
%ADD14C,5.600000*%
%ADD15C,2.000000*%
%ADD16RoundRect,0.250001X-0.799999X0.799999X-0.799999X-0.799999X0.799999X-0.799999X0.799999X0.799999X0*%
%ADD17C,2.100000*%
%ADD18FreePoly0,180.000000*%
%ADD19FreePoly1,180.000000*%
%ADD20FreePoly2,0.000000*%
%ADD21R,1.000000X1.500000*%
%ADD22FreePoly3,0.000000*%
%ADD23FreePoly0,90.000000*%
%ADD24FreePoly1,90.000000*%
G04 APERTURE END LIST*
%TO.C,JP3*%
G36*
X153805000Y-94150000D02*
G01*
X153505000Y-94150000D01*
X153505000Y-95650000D01*
X153805000Y-95650000D01*
X153805000Y-94150000D01*
G37*
%TO.C,JP4*%
G36*
X143492000Y-102096000D02*
G01*
X144992000Y-102096000D01*
X144992000Y-100596000D01*
X143492000Y-100596000D01*
X143492000Y-102096000D01*
G37*
%TO.C,JP2*%
G36*
X149500000Y-94150000D02*
G01*
X149200000Y-94150000D01*
X149200000Y-95650000D01*
X149500000Y-95650000D01*
X149500000Y-94150000D01*
G37*
%TO.C,JP5*%
G36*
X143450000Y-95350000D02*
G01*
X144950000Y-95350000D01*
X144950000Y-93850000D01*
X143450000Y-93850000D01*
X143450000Y-95350000D01*
G37*
%TO.C,JP1*%
G36*
X160389000Y-101608000D02*
G01*
X158889000Y-101608000D01*
X158889000Y-101308000D01*
X160389000Y-101308000D01*
X160389000Y-101608000D01*
G37*
%TD*%
D10*
%TO.C,J7*%
X141986000Y-122682000D03*
D11*
X141986000Y-120142000D03*
%TD*%
D12*
%TO.C,J2*%
X175387500Y-106600000D03*
D13*
X172847500Y-104060000D03*
X172847500Y-109140000D03*
X177927500Y-104060000D03*
X177927500Y-109140000D03*
%TD*%
D14*
%TO.C,H3*%
X175000000Y-70000000D03*
%TD*%
D15*
%TO.C,TP5*%
X158700000Y-89000000D03*
%TD*%
%TO.C,TP4*%
X149000000Y-89000000D03*
%TD*%
D14*
%TO.C,H2*%
X105000000Y-130000000D03*
%TD*%
D12*
%TO.C,J3*%
X175387500Y-90400000D03*
D13*
X172847500Y-87860000D03*
X172847500Y-92940000D03*
X177927500Y-87860000D03*
X177927500Y-92940000D03*
%TD*%
D10*
%TO.C,J13*%
X154387500Y-108725000D03*
D11*
X154387500Y-111265000D03*
%TD*%
D12*
%TO.C,J11*%
X164270000Y-69402000D03*
D13*
X161730000Y-71942000D03*
X166810000Y-71942000D03*
X161730000Y-66862000D03*
X166810000Y-66862000D03*
%TD*%
D15*
%TO.C,TP7*%
X125500000Y-82000000D03*
%TD*%
D12*
%TO.C,J15*%
X104660000Y-115340000D03*
D13*
X107200000Y-117880000D03*
X107200000Y-112800000D03*
X102120000Y-117880000D03*
X102120000Y-112800000D03*
%TD*%
D10*
%TO.C,J12*%
X161925000Y-122682000D03*
D11*
X161925000Y-120142000D03*
%TD*%
D15*
%TO.C,TP6*%
X130787500Y-119400000D03*
%TD*%
D10*
%TO.C,J20*%
X116078000Y-77470000D03*
D11*
X118618000Y-77470000D03*
%TD*%
D15*
%TO.C,TP3*%
X159639000Y-98171000D03*
%TD*%
D10*
%TO.C,J6*%
X146050000Y-77724000D03*
D11*
X146050000Y-80264000D03*
%TD*%
D12*
%TO.C,J10*%
X159880000Y-130600000D03*
D13*
X157340000Y-133140000D03*
X162420000Y-133140000D03*
X157340000Y-128060000D03*
X162420000Y-128060000D03*
%TD*%
D12*
%TO.C,J19*%
X131318000Y-69342000D03*
D13*
X128778000Y-71882000D03*
X133858000Y-71882000D03*
X128778000Y-66802000D03*
X133858000Y-66802000D03*
%TD*%
D14*
%TO.C,H1*%
X175000000Y-130000000D03*
%TD*%
D12*
%TO.C,J4*%
X144200000Y-130600000D03*
D13*
X141660000Y-133140000D03*
X146740000Y-133140000D03*
X141660000Y-128060000D03*
X146740000Y-128060000D03*
%TD*%
D12*
%TO.C,J17*%
X104460000Y-84060000D03*
D13*
X107000000Y-86600000D03*
X107000000Y-81520000D03*
X101920000Y-86600000D03*
X101920000Y-81520000D03*
%TD*%
D10*
%TO.C,J1*%
X167640000Y-107701000D03*
D11*
X167640000Y-105161000D03*
%TD*%
D14*
%TO.C,H4*%
X105000000Y-70000000D03*
%TD*%
D10*
%TO.C,J5*%
X167640000Y-91445000D03*
D11*
X167640000Y-88905000D03*
%TD*%
D12*
%TO.C,J18*%
X116078000Y-69342000D03*
D13*
X113538000Y-71882000D03*
X118618000Y-71882000D03*
X113538000Y-66802000D03*
X118618000Y-66802000D03*
%TD*%
D10*
%TO.C,J8*%
X150787500Y-108725000D03*
D11*
X150787500Y-111265000D03*
%TD*%
D16*
%TO.C,J16*%
X104400000Y-96260000D03*
D17*
X104400000Y-98800000D03*
X104400000Y-101340000D03*
X104400000Y-103880000D03*
%TD*%
D10*
%TO.C,J21*%
X131318000Y-77470000D03*
D11*
X133858000Y-77470000D03*
%TD*%
D10*
%TO.C,J14*%
X166878000Y-77719000D03*
D11*
X166878000Y-80259000D03*
%TD*%
D12*
%TO.C,J9*%
X148590000Y-69342000D03*
D13*
X146050000Y-71882000D03*
X151130000Y-71882000D03*
X146050000Y-66802000D03*
X151130000Y-66802000D03*
%TD*%
D18*
%TO.C,JP3*%
X154305000Y-94900000D03*
D19*
X153005000Y-94900000D03*
%TD*%
D20*
%TO.C,JP4*%
X142942000Y-101346000D03*
D21*
X144242000Y-101346000D03*
D22*
X145542000Y-101346000D03*
%TD*%
D18*
%TO.C,JP2*%
X150000000Y-94900000D03*
D19*
X148700000Y-94900000D03*
%TD*%
D20*
%TO.C,JP5*%
X142900000Y-94600000D03*
D21*
X144200000Y-94600000D03*
D22*
X145500000Y-94600000D03*
%TD*%
D23*
%TO.C,JP1*%
X159639000Y-102108000D03*
D24*
X159639000Y-100808000D03*
%TD*%
M02*
