ISO-10303-21;
HEADER;
/* Generated by software containing ST-Developer
 * from STEP Tools, Inc. (www.steptools.com) 
 */

FILE_DESCRIPTION(
/* description */ (''),
/* implementation_level */ '2;1');

FILE_NAME(
/* name */ 'shield_box.step',
/* time_stamp */ '2024-03-11T21:29:28+09:00',
/* author */ (''),
/* organization */ (''),
/* preprocessor_version */ 'ST-DEVELOPER v20',
/* originating_system */ 'Autodesk Translation Framework v12.20.1.177',

/* authorisation */ '');

FILE_SCHEMA (('AUTOMOTIVE_DESIGN { 1 0 10303 214 3 1 1 }'));
ENDSEC;

DATA;
#10=MECHANICAL_DESIGN_GEOMETRIC_PRESENTATION_REPRESENTATION('',(#17),#1965);
#11=ITEM_DEFINED_TRANSFORMATION($,$,#1109,#1264);
#12=(
REPRESENTATION_RELATIONSHIP($,$,#1976,#1975)
REPRESENTATION_RELATIONSHIP_WITH_TRANSFORMATION(#11)
SHAPE_REPRESENTATION_RELATIONSHIP()
);
#13=CONTEXT_DEPENDENT_SHAPE_REPRESENTATION(#12,#1974);
#14=NEXT_ASSEMBLY_USAGE_OCCURRENCE('box:1','box:1','box:1',#1978,#1979,
'box:1');
#15=SHAPE_REPRESENTATION_RELATIONSHIP('SRR','None',#1976,#16);
#16=ADVANCED_BREP_SHAPE_REPRESENTATION('',(#18),#1964);
#17=STYLED_ITEM('',(#1990),#18);
#18=MANIFOLD_SOLID_BREP('Body1',#1095);
#19=FACE_BOUND('',#176,.T.);
#20=FACE_BOUND('',#177,.T.);
#21=FACE_BOUND('',#178,.T.);
#22=FACE_BOUND('',#180,.T.);
#23=FACE_BOUND('',#195,.T.);
#24=FACE_BOUND('',#196,.T.);
#25=FACE_BOUND('',#197,.T.);
#26=FACE_BOUND('',#199,.T.);
#27=FACE_BOUND('',#200,.T.);
#28=FACE_BOUND('',#201,.T.);
#29=FACE_BOUND('',#202,.T.);
#30=FACE_BOUND('',#203,.T.);
#31=FACE_BOUND('',#206,.T.);
#32=FACE_BOUND('',#215,.T.);
#33=FACE_BOUND('',#218,.T.);
#34=FACE_BOUND('',#221,.T.);
#35=PLANE('',#1129);
#36=PLANE('',#1166);
#37=PLANE('',#1184);
#38=PLANE('',#1185);
#39=PLANE('',#1189);
#40=PLANE('',#1221);
#41=PLANE('',#1225);
#42=PLANE('',#1230);
#43=PLANE('',#1231);
#44=PLANE('',#1234);
#45=PLANE('',#1237);
#46=PLANE('',#1240);
#47=PLANE('',#1243);
#48=PLANE('',#1246);
#49=PLANE('',#1249);
#50=PLANE('',#1252);
#51=PLANE('',#1255);
#52=PLANE('',#1258);
#53=PLANE('',#1261);
#54=PLANE('',#1262);
#55=PLANE('',#1263);
#56=TOROIDAL_SURFACE('',#1116,6.,1.);
#57=TOROIDAL_SURFACE('',#1135,6.,1.);
#58=TOROIDAL_SURFACE('',#1153,6.,1.);
#59=TOROIDAL_SURFACE('',#1172,6.,1.);
#60=SPHERICAL_SURFACE('',#1113,1.);
#61=SPHERICAL_SURFACE('',#1125,1.);
#62=SPHERICAL_SURFACE('',#1133,1.);
#63=SPHERICAL_SURFACE('',#1141,1.);
#64=SPHERICAL_SURFACE('',#1151,1.);
#65=SPHERICAL_SURFACE('',#1162,1.);
#66=SPHERICAL_SURFACE('',#1170,1.);
#67=SPHERICAL_SURFACE('',#1181,1.);
#68=SPHERICAL_SURFACE('',#1193,1.);
#69=SPHERICAL_SURFACE('',#1197,1.);
#70=SPHERICAL_SURFACE('',#1201,1.);
#71=SPHERICAL_SURFACE('',#1206,1.);
#72=FACE_OUTER_BOUND('',#144,.T.);
#73=FACE_OUTER_BOUND('',#145,.T.);
#74=FACE_OUTER_BOUND('',#146,.T.);
#75=FACE_OUTER_BOUND('',#147,.T.);
#76=FACE_OUTER_BOUND('',#148,.T.);
#77=FACE_OUTER_BOUND('',#149,.T.);
#78=FACE_OUTER_BOUND('',#150,.T.);
#79=FACE_OUTER_BOUND('',#151,.T.);
#80=FACE_OUTER_BOUND('',#152,.T.);
#81=FACE_OUTER_BOUND('',#153,.T.);
#82=FACE_OUTER_BOUND('',#154,.T.);
#83=FACE_OUTER_BOUND('',#155,.T.);
#84=FACE_OUTER_BOUND('',#156,.T.);
#85=FACE_OUTER_BOUND('',#157,.T.);
#86=FACE_OUTER_BOUND('',#158,.T.);
#87=FACE_OUTER_BOUND('',#159,.T.);
#88=FACE_OUTER_BOUND('',#160,.T.);
#89=FACE_OUTER_BOUND('',#161,.T.);
#90=FACE_OUTER_BOUND('',#162,.T.);
#91=FACE_OUTER_BOUND('',#163,.T.);
#92=FACE_OUTER_BOUND('',#164,.T.);
#93=FACE_OUTER_BOUND('',#165,.T.);
#94=FACE_OUTER_BOUND('',#166,.T.);
#95=FACE_OUTER_BOUND('',#167,.T.);
#96=FACE_OUTER_BOUND('',#168,.T.);
#97=FACE_OUTER_BOUND('',#169,.T.);
#98=FACE_OUTER_BOUND('',#170,.T.);
#99=FACE_OUTER_BOUND('',#171,.T.);
#100=FACE_OUTER_BOUND('',#172,.T.);
#101=FACE_OUTER_BOUND('',#173,.T.);
#102=FACE_OUTER_BOUND('',#174,.T.);
#103=FACE_OUTER_BOUND('',#175,.T.);
#104=FACE_OUTER_BOUND('',#179,.T.);
#105=FACE_OUTER_BOUND('',#181,.T.);
#106=FACE_OUTER_BOUND('',#182,.T.);
#107=FACE_OUTER_BOUND('',#183,.T.);
#108=FACE_OUTER_BOUND('',#184,.T.);
#109=FACE_OUTER_BOUND('',#185,.T.);
#110=FACE_OUTER_BOUND('',#186,.T.);
#111=FACE_OUTER_BOUND('',#187,.T.);
#112=FACE_OUTER_BOUND('',#188,.T.);
#113=FACE_OUTER_BOUND('',#189,.T.);
#114=FACE_OUTER_BOUND('',#190,.T.);
#115=FACE_OUTER_BOUND('',#191,.T.);
#116=FACE_OUTER_BOUND('',#192,.T.);
#117=FACE_OUTER_BOUND('',#193,.T.);
#118=FACE_OUTER_BOUND('',#194,.T.);
#119=FACE_OUTER_BOUND('',#198,.T.);
#120=FACE_OUTER_BOUND('',#204,.T.);
#121=FACE_OUTER_BOUND('',#205,.T.);
#122=FACE_OUTER_BOUND('',#207,.T.);
#123=FACE_OUTER_BOUND('',#208,.T.);
#124=FACE_OUTER_BOUND('',#209,.T.);
#125=FACE_OUTER_BOUND('',#210,.T.);
#126=FACE_OUTER_BOUND('',#211,.T.);
#127=FACE_OUTER_BOUND('',#212,.T.);
#128=FACE_OUTER_BOUND('',#213,.T.);
#129=FACE_OUTER_BOUND('',#214,.T.);
#130=FACE_OUTER_BOUND('',#216,.T.);
#131=FACE_OUTER_BOUND('',#217,.T.);
#132=FACE_OUTER_BOUND('',#219,.T.);
#133=FACE_OUTER_BOUND('',#220,.T.);
#134=FACE_OUTER_BOUND('',#222,.T.);
#135=FACE_OUTER_BOUND('',#223,.T.);
#136=FACE_OUTER_BOUND('',#224,.T.);
#137=FACE_OUTER_BOUND('',#225,.T.);
#138=FACE_OUTER_BOUND('',#226,.T.);
#139=FACE_OUTER_BOUND('',#227,.T.);
#140=FACE_OUTER_BOUND('',#228,.T.);
#141=FACE_OUTER_BOUND('',#229,.T.);
#142=FACE_OUTER_BOUND('',#230,.T.);
#143=FACE_OUTER_BOUND('',#231,.T.);
#144=EDGE_LOOP('',(#688,#689,#690,#691));
#145=EDGE_LOOP('',(#692,#693,#694));
#146=EDGE_LOOP('',(#695,#696,#697,#698));
#147=EDGE_LOOP('',(#699,#700,#701,#702));
#148=EDGE_LOOP('',(#703,#704,#705,#706));
#149=EDGE_LOOP('',(#707,#708,#709));
#150=EDGE_LOOP('',(#710,#711,#712,#713));
#151=EDGE_LOOP('',(#714,#715,#716,#717));
#152=EDGE_LOOP('',(#718,#719,#720,#721));
#153=EDGE_LOOP('',(#722,#723,#724));
#154=EDGE_LOOP('',(#725,#726,#727,#728));
#155=EDGE_LOOP('',(#729,#730,#731,#732));
#156=EDGE_LOOP('',(#733,#734,#735));
#157=EDGE_LOOP('',(#736,#737,#738,#739));
#158=EDGE_LOOP('',(#740,#741,#742,#743));
#159=EDGE_LOOP('',(#744,#745,#746,#747));
#160=EDGE_LOOP('',(#748,#749,#750));
#161=EDGE_LOOP('',(#751,#752,#753,#754));
#162=EDGE_LOOP('',(#755,#756,#757,#758));
#163=EDGE_LOOP('',(#759,#760,#761,#762));
#164=EDGE_LOOP('',(#763,#764,#765));
#165=EDGE_LOOP('',(#766,#767,#768,#769));
#166=EDGE_LOOP('',(#770,#771,#772,#773));
#167=EDGE_LOOP('',(#774,#775,#776,#777));
#168=EDGE_LOOP('',(#778,#779,#780));
#169=EDGE_LOOP('',(#781,#782,#783,#784));
#170=EDGE_LOOP('',(#785,#786,#787,#788));
#171=EDGE_LOOP('',(#789,#790,#791,#792));
#172=EDGE_LOOP('',(#793,#794,#795));
#173=EDGE_LOOP('',(#796,#797,#798,#799));
#174=EDGE_LOOP('',(#800,#801,#802,#803));
#175=EDGE_LOOP('',(#804,#805,#806,#807));
#176=EDGE_LOOP('',(#808,#809));
#177=EDGE_LOOP('',(#810,#811));
#178=EDGE_LOOP('',(#812,#813));
#179=EDGE_LOOP('',(#814,#815,#816,#817,#818,#819,#820,#821));
#180=EDGE_LOOP('',(#822));
#181=EDGE_LOOP('',(#823,#824,#825,#826));
#182=EDGE_LOOP('',(#827,#828,#829));
#183=EDGE_LOOP('',(#830,#831,#832));
#184=EDGE_LOOP('',(#833,#834,#835));
#185=EDGE_LOOP('',(#836,#837,#838,#839));
#186=EDGE_LOOP('',(#840,#841,#842));
#187=EDGE_LOOP('',(#843,#844,#845,#846));
#188=EDGE_LOOP('',(#847,#848,#849,#850));
#189=EDGE_LOOP('',(#851,#852,#853,#854));
#190=EDGE_LOOP('',(#855,#856,#857,#858));
#191=EDGE_LOOP('',(#859,#860,#861,#862));
#192=EDGE_LOOP('',(#863,#864,#865,#866));
#193=EDGE_LOOP('',(#867,#868,#869,#870));
#194=EDGE_LOOP('',(#871,#872,#873,#874));
#195=EDGE_LOOP('',(#875));
#196=EDGE_LOOP('',(#876));
#197=EDGE_LOOP('',(#877));
#198=EDGE_LOOP('',(#878,#879,#880,#881,#882,#883,#884,#885));
#199=EDGE_LOOP('',(#886,#887,#888,#889,#890,#891,#892,#893,#894,#895,#896,
#897,#898,#899,#900,#901));
#200=EDGE_LOOP('',(#902));
#201=EDGE_LOOP('',(#903));
#202=EDGE_LOOP('',(#904));
#203=EDGE_LOOP('',(#905));
#204=EDGE_LOOP('',(#906,#907,#908,#909));
#205=EDGE_LOOP('',(#910,#911,#912,#913));
#206=EDGE_LOOP('',(#914));
#207=EDGE_LOOP('',(#915,#916,#917,#918));
#208=EDGE_LOOP('',(#919,#920,#921,#922));
#209=EDGE_LOOP('',(#923,#924,#925,#926));
#210=EDGE_LOOP('',(#927,#928,#929,#930));
#211=EDGE_LOOP('',(#931,#932,#933,#934));
#212=EDGE_LOOP('',(#935,#936,#937,#938));
#213=EDGE_LOOP('',(#939,#940,#941,#942));
#214=EDGE_LOOP('',(#943));
#215=EDGE_LOOP('',(#944,#945));
#216=EDGE_LOOP('',(#946,#947,#948,#949));
#217=EDGE_LOOP('',(#950));
#218=EDGE_LOOP('',(#951,#952));
#219=EDGE_LOOP('',(#953,#954,#955,#956));
#220=EDGE_LOOP('',(#957));
#221=EDGE_LOOP('',(#958,#959));
#222=EDGE_LOOP('',(#960,#961,#962,#963));
#223=EDGE_LOOP('',(#964));
#224=EDGE_LOOP('',(#965,#966,#967,#968));
#225=EDGE_LOOP('',(#969));
#226=EDGE_LOOP('',(#970,#971,#972,#973));
#227=EDGE_LOOP('',(#974));
#228=EDGE_LOOP('',(#975,#976,#977,#978));
#229=EDGE_LOOP('',(#979));
#230=EDGE_LOOP('',(#980,#981,#982,#983));
#231=EDGE_LOOP('',(#984,#985,#986,#987));
#232=LINE('',#1654,#300);
#233=LINE('',#1657,#301);
#234=LINE('',#1671,#302);
#235=LINE('',#1677,#303);
#236=LINE('',#1682,#304);
#237=LINE('',#1685,#305);
#238=LINE('',#1688,#306);
#239=LINE('',#1689,#307);
#240=LINE('',#1694,#308);
#241=LINE('',#1707,#309);
#242=LINE('',#1715,#310);
#243=LINE('',#1718,#311);
#244=LINE('',#1721,#312);
#245=LINE('',#1727,#313);
#246=LINE('',#1729,#314);
#247=LINE('',#1741,#315);
#248=LINE('',#1747,#316);
#249=LINE('',#1752,#317);
#250=LINE('',#1755,#318);
#251=LINE('',#1758,#319);
#252=LINE('',#1759,#320);
#253=LINE('',#1764,#321);
#254=LINE('',#1777,#322);
#255=LINE('',#1783,#323);
#256=LINE('',#1787,#324);
#257=LINE('',#1788,#325);
#258=LINE('',#1790,#326);
#259=LINE('',#1792,#327);
#260=LINE('',#1796,#328);
#261=LINE('',#1800,#329);
#262=LINE('',#1804,#330);
#263=LINE('',#1811,#331);
#264=LINE('',#1834,#332);
#265=LINE('',#1835,#333);
#266=LINE('',#1844,#334);
#267=LINE('',#1845,#335);
#268=LINE('',#1850,#336);
#269=LINE('',#1851,#337);
#270=LINE('',#1853,#338);
#271=LINE('',#1854,#339);
#272=LINE('',#1859,#340);
#273=LINE('',#1860,#341);
#274=LINE('',#1862,#342);
#275=LINE('',#1863,#343);
#276=LINE('',#1868,#344);
#277=LINE('',#1869,#345);
#278=LINE('',#1874,#346);
#279=LINE('',#1875,#347);
#280=LINE('',#1877,#348);
#281=LINE('',#1885,#349);
#282=LINE('',#1886,#350);
#283=LINE('',#1887,#351);
#284=LINE('',#1902,#352);
#285=LINE('',#1903,#353);
#286=LINE('',#1905,#354);
#287=LINE('',#1910,#355);
#288=LINE('',#1911,#356);
#289=LINE('',#1913,#357);
#290=LINE('',#1918,#358);
#291=LINE('',#1919,#359);
#292=LINE('',#1921,#360);
#293=LINE('',#1924,#361);
#294=LINE('',#1929,#362);
#295=LINE('',#1934,#363);
#296=LINE('',#1939,#364);
#297=LINE('',#1944,#365);
#298=LINE('',#1949,#366);
#299=LINE('',#1954,#367);
#300=VECTOR('',#1273,10.);
#301=VECTOR('',#1276,10.);
#302=VECTOR('',#1295,10.);
#303=VECTOR('',#1302,10.);
#304=VECTOR('',#1309,10.);
#305=VECTOR('',#1312,10.);
#306=VECTOR('',#1315,10.);
#307=VECTOR('',#1316,10.);
#308=VECTOR('',#1321,10.);
#309=VECTOR('',#1340,10.);
#310=VECTOR('',#1351,10.);
#311=VECTOR('',#1354,10.);
#312=VECTOR('',#1357,10.);
#313=VECTOR('',#1362,10.);
#314=VECTOR('',#1365,10.);
#315=VECTOR('',#1382,10.);
#316=VECTOR('',#1389,10.);
#317=VECTOR('',#1396,10.);
#318=VECTOR('',#1399,10.);
#319=VECTOR('',#1402,10.);
#320=VECTOR('',#1403,10.);
#321=VECTOR('',#1408,10.);
#322=VECTOR('',#1427,10.);
#323=VECTOR('',#1434,10.);
#324=VECTOR('',#1441,10.);
#325=VECTOR('',#1442,10.);
#326=VECTOR('',#1445,10.);
#327=VECTOR('',#1448,10.);
#328=VECTOR('',#1451,10.);
#329=VECTOR('',#1454,10.);
#330=VECTOR('',#1457,10.);
#331=VECTOR('',#1466,6.5);
#332=VECTOR('',#1493,10.);
#333=VECTOR('',#1494,10.);
#334=VECTOR('',#1505,10.);
#335=VECTOR('',#1506,10.);
#336=VECTOR('',#1511,10.);
#337=VECTOR('',#1512,10.);
#338=VECTOR('',#1515,10.);
#339=VECTOR('',#1516,10.);
#340=VECTOR('',#1521,10.);
#341=VECTOR('',#1522,10.);
#342=VECTOR('',#1525,10.);
#343=VECTOR('',#1526,10.);
#344=VECTOR('',#1531,10.);
#345=VECTOR('',#1532,10.);
#346=VECTOR('',#1537,10.);
#347=VECTOR('',#1538,10.);
#348=VECTOR('',#1541,10.);
#349=VECTOR('',#1550,10.);
#350=VECTOR('',#1551,10.);
#351=VECTOR('',#1552,10.);
#352=VECTOR('',#1569,10.);
#353=VECTOR('',#1570,10.);
#354=VECTOR('',#1573,10.);
#355=VECTOR('',#1578,10.);
#356=VECTOR('',#1579,10.);
#357=VECTOR('',#1582,10.);
#358=VECTOR('',#1587,10.);
#359=VECTOR('',#1588,10.);
#360=VECTOR('',#1591,10.);
#361=VECTOR('',#1594,5.25);
#362=VECTOR('',#1601,5.25);
#363=VECTOR('',#1608,5.25);
#364=VECTOR('',#1615,1.5);
#365=VECTOR('',#1622,1.5);
#366=VECTOR('',#1629,1.5);
#367=VECTOR('',#1636,1.5);
#368=CIRCLE('',#1111,1.);
#369=CIRCLE('',#1112,1.);
#370=CIRCLE('',#1114,1.);
#371=CIRCLE('',#1115,1.);
#372=CIRCLE('',#1117,5.);
#373=CIRCLE('',#1118,1.);
#374=CIRCLE('',#1119,6.);
#375=CIRCLE('',#1121,5.);
#376=CIRCLE('',#1123,1.);
#377=CIRCLE('',#1124,1.);
#378=CIRCLE('',#1126,1.);
#379=CIRCLE('',#1128,1.);
#380=CIRCLE('',#1131,1.);
#381=CIRCLE('',#1132,1.);
#382=CIRCLE('',#1134,1.);
#383=CIRCLE('',#1136,5.);
#384=CIRCLE('',#1137,1.);
#385=CIRCLE('',#1138,6.);
#386=CIRCLE('',#1140,5.);
#387=CIRCLE('',#1142,1.);
#388=CIRCLE('',#1143,1.);
#389=CIRCLE('',#1145,1.);
#390=CIRCLE('',#1147,1.);
#391=CIRCLE('',#1149,1.);
#392=CIRCLE('',#1150,1.);
#393=CIRCLE('',#1152,1.);
#394=CIRCLE('',#1154,5.);
#395=CIRCLE('',#1155,1.);
#396=CIRCLE('',#1156,6.);
#397=CIRCLE('',#1158,5.);
#398=CIRCLE('',#1160,1.);
#399=CIRCLE('',#1161,1.);
#400=CIRCLE('',#1163,1.);
#401=CIRCLE('',#1165,1.);
#402=CIRCLE('',#1168,1.);
#403=CIRCLE('',#1169,1.);
#404=CIRCLE('',#1171,1.);
#405=CIRCLE('',#1173,5.);
#406=CIRCLE('',#1174,1.);
#407=CIRCLE('',#1175,6.);
#408=CIRCLE('',#1177,5.);
#409=CIRCLE('',#1179,1.);
#410=CIRCLE('',#1180,1.);
#411=CIRCLE('',#1182,1.);
#412=CIRCLE('',#1186,3.25);
#413=CIRCLE('',#1187,3.25);
#414=CIRCLE('',#1188,3.25);
#415=CIRCLE('',#1190,6.5);
#416=CIRCLE('',#1192,6.5);
#417=CIRCLE('',#1194,0.999999999999996);
#418=CIRCLE('',#1195,1.);
#419=CIRCLE('',#1196,1.);
#420=CIRCLE('',#1198,0.999999999999996);
#421=CIRCLE('',#1199,1.);
#422=CIRCLE('',#1200,1.);
#423=CIRCLE('',#1202,0.999999999999996);
#424=CIRCLE('',#1203,1.);
#425=CIRCLE('',#1204,0.999999999999996);
#426=CIRCLE('',#1207,1.);
#427=CIRCLE('',#1208,1.);
#428=CIRCLE('',#1209,1.00000000000001);
#429=CIRCLE('',#1212,1.);
#430=CIRCLE('',#1215,1.);
#431=CIRCLE('',#1218,1.);
#432=CIRCLE('',#1220,1.);
#433=CIRCLE('',#1222,5.25);
#434=CIRCLE('',#1223,5.25);
#435=CIRCLE('',#1224,5.25);
#436=CIRCLE('',#1226,1.5);
#437=CIRCLE('',#1227,1.5);
#438=CIRCLE('',#1228,1.5);
#439=CIRCLE('',#1229,1.5);
#440=CIRCLE('',#1233,3.25);
#441=CIRCLE('',#1236,3.25);
#442=CIRCLE('',#1239,3.25);
#443=CIRCLE('',#1242,5.25);
#444=CIRCLE('',#1245,5.25);
#445=CIRCLE('',#1248,5.25);
#446=CIRCLE('',#1251,1.5);
#447=CIRCLE('',#1254,1.5);
#448=CIRCLE('',#1257,1.5);
#449=CIRCLE('',#1260,1.5);
#450=VERTEX_POINT('',#1650);
#451=VERTEX_POINT('',#1651);
#452=VERTEX_POINT('',#1653);
#453=VERTEX_POINT('',#1655);
#454=VERTEX_POINT('',#1659);
#455=VERTEX_POINT('',#1663);
#456=VERTEX_POINT('',#1665);
#457=VERTEX_POINT('',#1669);
#458=VERTEX_POINT('',#1673);
#459=VERTEX_POINT('',#1675);
#460=VERTEX_POINT('',#1681);
#461=VERTEX_POINT('',#1683);
#462=VERTEX_POINT('',#1687);
#463=VERTEX_POINT('',#1691);
#464=VERTEX_POINT('',#1693);
#465=VERTEX_POINT('',#1699);
#466=VERTEX_POINT('',#1701);
#467=VERTEX_POINT('',#1705);
#468=VERTEX_POINT('',#1709);
#469=VERTEX_POINT('',#1713);
#470=VERTEX_POINT('',#1717);
#471=VERTEX_POINT('',#1719);
#472=VERTEX_POINT('',#1723);
#473=VERTEX_POINT('',#1724);
#474=VERTEX_POINT('',#1726);
#475=VERTEX_POINT('',#1733);
#476=VERTEX_POINT('',#1735);
#477=VERTEX_POINT('',#1739);
#478=VERTEX_POINT('',#1743);
#479=VERTEX_POINT('',#1745);
#480=VERTEX_POINT('',#1751);
#481=VERTEX_POINT('',#1753);
#482=VERTEX_POINT('',#1757);
#483=VERTEX_POINT('',#1761);
#484=VERTEX_POINT('',#1763);
#485=VERTEX_POINT('',#1769);
#486=VERTEX_POINT('',#1771);
#487=VERTEX_POINT('',#1775);
#488=VERTEX_POINT('',#1779);
#489=VERTEX_POINT('',#1781);
#490=VERTEX_POINT('',#1793);
#491=VERTEX_POINT('',#1794);
#492=VERTEX_POINT('',#1797);
#493=VERTEX_POINT('',#1798);
#494=VERTEX_POINT('',#1801);
#495=VERTEX_POINT('',#1802);
#496=VERTEX_POINT('',#1806);
#497=VERTEX_POINT('',#1809);
#498=VERTEX_POINT('',#1813);
#499=VERTEX_POINT('',#1814);
#500=VERTEX_POINT('',#1816);
#501=VERTEX_POINT('',#1820);
#502=VERTEX_POINT('',#1821);
#503=VERTEX_POINT('',#1823);
#504=VERTEX_POINT('',#1827);
#505=VERTEX_POINT('',#1828);
#506=VERTEX_POINT('',#1830);
#507=VERTEX_POINT('',#1837);
#508=VERTEX_POINT('',#1838);
#509=VERTEX_POINT('',#1840);
#510=VERTEX_POINT('',#1847);
#511=VERTEX_POINT('',#1848);
#512=VERTEX_POINT('',#1856);
#513=VERTEX_POINT('',#1857);
#514=VERTEX_POINT('',#1865);
#515=VERTEX_POINT('',#1866);
#516=VERTEX_POINT('',#1871);
#517=VERTEX_POINT('',#1872);
#518=VERTEX_POINT('',#1878);
#519=VERTEX_POINT('',#1880);
#520=VERTEX_POINT('',#1882);
#521=VERTEX_POINT('',#1888);
#522=VERTEX_POINT('',#1890);
#523=VERTEX_POINT('',#1892);
#524=VERTEX_POINT('',#1894);
#525=VERTEX_POINT('',#1899);
#526=VERTEX_POINT('',#1900);
#527=VERTEX_POINT('',#1907);
#528=VERTEX_POINT('',#1908);
#529=VERTEX_POINT('',#1915);
#530=VERTEX_POINT('',#1916);
#531=VERTEX_POINT('',#1923);
#532=VERTEX_POINT('',#1928);
#533=VERTEX_POINT('',#1933);
#534=VERTEX_POINT('',#1938);
#535=VERTEX_POINT('',#1943);
#536=VERTEX_POINT('',#1948);
#537=VERTEX_POINT('',#1953);
#538=EDGE_CURVE('',#450,#451,#368,.T.);
#539=EDGE_CURVE('',#451,#452,#232,.T.);
#540=EDGE_CURVE('',#452,#453,#369,.T.);
#541=EDGE_CURVE('',#453,#450,#233,.T.);
#542=EDGE_CURVE('',#452,#454,#370,.T.);
#543=EDGE_CURVE('',#454,#453,#371,.T.);
#544=EDGE_CURVE('',#452,#455,#372,.T.);
#545=EDGE_CURVE('',#456,#455,#373,.T.);
#546=EDGE_CURVE('',#456,#454,#374,.T.);
#547=EDGE_CURVE('',#457,#451,#375,.T.);
#548=EDGE_CURVE('',#455,#457,#234,.T.);
#549=EDGE_CURVE('',#458,#455,#376,.T.);
#550=EDGE_CURVE('',#457,#459,#377,.T.);
#551=EDGE_CURVE('',#459,#458,#235,.T.);
#552=EDGE_CURVE('',#458,#456,#378,.T.);
#553=EDGE_CURVE('',#458,#460,#236,.T.);
#554=EDGE_CURVE('',#461,#460,#379,.T.);
#555=EDGE_CURVE('',#461,#456,#237,.T.);
#556=EDGE_CURVE('',#462,#459,#238,.T.);
#557=EDGE_CURVE('',#460,#462,#239,.T.);
#558=EDGE_CURVE('',#462,#463,#380,.T.);
#559=EDGE_CURVE('',#463,#464,#240,.T.);
#560=EDGE_CURVE('',#464,#460,#381,.T.);
#561=EDGE_CURVE('',#464,#461,#382,.T.);
#562=EDGE_CURVE('',#464,#465,#383,.T.);
#563=EDGE_CURVE('',#466,#465,#384,.T.);
#564=EDGE_CURVE('',#466,#461,#385,.T.);
#565=EDGE_CURVE('',#467,#463,#386,.T.);
#566=EDGE_CURVE('',#465,#467,#241,.T.);
#567=EDGE_CURVE('',#465,#468,#387,.T.);
#568=EDGE_CURVE('',#468,#466,#388,.T.);
#569=EDGE_CURVE('',#467,#469,#389,.T.);
#570=EDGE_CURVE('',#469,#468,#242,.T.);
#571=EDGE_CURVE('',#468,#470,#243,.T.);
#572=EDGE_CURVE('',#471,#470,#390,.T.);
#573=EDGE_CURVE('',#471,#466,#244,.T.);
#574=EDGE_CURVE('',#472,#473,#391,.T.);
#575=EDGE_CURVE('',#473,#474,#245,.T.);
#576=EDGE_CURVE('',#474,#470,#392,.T.);
#577=EDGE_CURVE('',#470,#472,#246,.T.);
#578=EDGE_CURVE('',#474,#471,#393,.T.);
#579=EDGE_CURVE('',#474,#475,#394,.T.);
#580=EDGE_CURVE('',#476,#475,#395,.T.);
#581=EDGE_CURVE('',#476,#471,#396,.T.);
#582=EDGE_CURVE('',#477,#473,#397,.T.);
#583=EDGE_CURVE('',#475,#477,#247,.T.);
#584=EDGE_CURVE('',#478,#475,#398,.T.);
#585=EDGE_CURVE('',#477,#479,#399,.T.);
#586=EDGE_CURVE('',#479,#478,#248,.T.);
#587=EDGE_CURVE('',#478,#476,#400,.T.);
#588=EDGE_CURVE('',#478,#480,#249,.T.);
#589=EDGE_CURVE('',#481,#480,#401,.T.);
#590=EDGE_CURVE('',#481,#476,#250,.T.);
#591=EDGE_CURVE('',#482,#479,#251,.T.);
#592=EDGE_CURVE('',#480,#482,#252,.T.);
#593=EDGE_CURVE('',#482,#483,#402,.T.);
#594=EDGE_CURVE('',#483,#484,#253,.T.);
#595=EDGE_CURVE('',#484,#480,#403,.T.);
#596=EDGE_CURVE('',#484,#481,#404,.T.);
#597=EDGE_CURVE('',#484,#485,#405,.T.);
#598=EDGE_CURVE('',#486,#485,#406,.T.);
#599=EDGE_CURVE('',#486,#481,#407,.T.);
#600=EDGE_CURVE('',#487,#483,#408,.T.);
#601=EDGE_CURVE('',#485,#487,#254,.T.);
#602=EDGE_CURVE('',#488,#485,#409,.T.);
#603=EDGE_CURVE('',#487,#489,#410,.T.);
#604=EDGE_CURVE('',#489,#488,#255,.T.);
#605=EDGE_CURVE('',#488,#486,#411,.T.);
#606=EDGE_CURVE('',#454,#486,#256,.T.);
#607=EDGE_CURVE('',#488,#453,#257,.T.);
#608=EDGE_CURVE('',#450,#489,#258,.T.);
#609=EDGE_CURVE('',#472,#469,#259,.T.);
#610=EDGE_CURVE('',#490,#491,#412,.T.);
#611=EDGE_CURVE('',#491,#490,#260,.T.);
#612=EDGE_CURVE('',#492,#493,#413,.T.);
#613=EDGE_CURVE('',#493,#492,#261,.T.);
#614=EDGE_CURVE('',#494,#495,#414,.T.);
#615=EDGE_CURVE('',#495,#494,#262,.T.);
#616=EDGE_CURVE('',#496,#496,#415,.T.);
#617=EDGE_CURVE('',#497,#497,#416,.T.);
#618=EDGE_CURVE('',#497,#496,#263,.T.);
#619=EDGE_CURVE('',#498,#499,#417,.F.);
#620=EDGE_CURVE('',#500,#498,#418,.F.);
#621=EDGE_CURVE('',#499,#500,#419,.F.);
#622=EDGE_CURVE('',#501,#502,#420,.F.);
#623=EDGE_CURVE('',#503,#501,#421,.F.);
#624=EDGE_CURVE('',#502,#503,#422,.F.);
#625=EDGE_CURVE('',#504,#505,#423,.F.);
#626=EDGE_CURVE('',#506,#504,#424,.F.);
#627=EDGE_CURVE('',#505,#506,#425,.F.);
#628=EDGE_CURVE('',#504,#499,#264,.T.);
#629=EDGE_CURVE('',#500,#506,#265,.T.);
#630=EDGE_CURVE('',#507,#508,#426,.F.);
#631=EDGE_CURVE('',#509,#507,#427,.F.);
#632=EDGE_CURVE('',#508,#509,#428,.F.);
#633=EDGE_CURVE('',#501,#509,#266,.T.);
#634=EDGE_CURVE('',#507,#503,#267,.T.);
#635=EDGE_CURVE('',#510,#511,#429,.T.);
#636=EDGE_CURVE('',#511,#508,#268,.T.);
#637=EDGE_CURVE('',#509,#510,#269,.T.);
#638=EDGE_CURVE('',#508,#505,#270,.T.);
#639=EDGE_CURVE('',#506,#507,#271,.T.);
#640=EDGE_CURVE('',#512,#513,#430,.T.);
#641=EDGE_CURVE('',#513,#504,#272,.T.);
#642=EDGE_CURVE('',#505,#512,#273,.T.);
#643=EDGE_CURVE('',#498,#502,#274,.T.);
#644=EDGE_CURVE('',#503,#500,#275,.T.);
#645=EDGE_CURVE('',#514,#515,#431,.T.);
#646=EDGE_CURVE('',#515,#501,#276,.T.);
#647=EDGE_CURVE('',#502,#514,#277,.T.);
#648=EDGE_CURVE('',#516,#517,#432,.T.);
#649=EDGE_CURVE('',#517,#498,#278,.T.);
#650=EDGE_CURVE('',#499,#516,#279,.T.);
#651=EDGE_CURVE('',#510,#515,#280,.T.);
#652=EDGE_CURVE('',#518,#518,#433,.T.);
#653=EDGE_CURVE('',#519,#519,#434,.T.);
#654=EDGE_CURVE('',#520,#520,#435,.T.);
#655=EDGE_CURVE('',#514,#517,#281,.T.);
#656=EDGE_CURVE('',#516,#513,#282,.T.);
#657=EDGE_CURVE('',#512,#511,#283,.T.);
#658=EDGE_CURVE('',#521,#521,#436,.T.);
#659=EDGE_CURVE('',#522,#522,#437,.T.);
#660=EDGE_CURVE('',#523,#523,#438,.T.);
#661=EDGE_CURVE('',#524,#524,#439,.T.);
#662=EDGE_CURVE('',#525,#526,#440,.T.);
#663=EDGE_CURVE('',#526,#495,#284,.T.);
#664=EDGE_CURVE('',#525,#494,#285,.T.);
#665=EDGE_CURVE('',#526,#525,#286,.T.);
#666=EDGE_CURVE('',#527,#528,#441,.T.);
#667=EDGE_CURVE('',#528,#493,#287,.T.);
#668=EDGE_CURVE('',#527,#492,#288,.T.);
#669=EDGE_CURVE('',#528,#527,#289,.T.);
#670=EDGE_CURVE('',#529,#530,#442,.T.);
#671=EDGE_CURVE('',#530,#491,#290,.T.);
#672=EDGE_CURVE('',#529,#490,#291,.T.);
#673=EDGE_CURVE('',#530,#529,#292,.T.);
#674=EDGE_CURVE('',#518,#531,#293,.T.);
#675=EDGE_CURVE('',#531,#531,#443,.T.);
#676=EDGE_CURVE('',#519,#532,#294,.T.);
#677=EDGE_CURVE('',#532,#532,#444,.T.);
#678=EDGE_CURVE('',#520,#533,#295,.T.);
#679=EDGE_CURVE('',#533,#533,#445,.T.);
#680=EDGE_CURVE('',#524,#534,#296,.T.);
#681=EDGE_CURVE('',#534,#534,#446,.T.);
#682=EDGE_CURVE('',#523,#535,#297,.T.);
#683=EDGE_CURVE('',#535,#535,#447,.T.);
#684=EDGE_CURVE('',#522,#536,#298,.T.);
#685=EDGE_CURVE('',#536,#536,#448,.T.);
#686=EDGE_CURVE('',#521,#537,#299,.T.);
#687=EDGE_CURVE('',#537,#537,#449,.T.);
#688=ORIENTED_EDGE('',*,*,#538,.T.);
#689=ORIENTED_EDGE('',*,*,#539,.T.);
#690=ORIENTED_EDGE('',*,*,#540,.T.);
#691=ORIENTED_EDGE('',*,*,#541,.T.);
#692=ORIENTED_EDGE('',*,*,#540,.F.);
#693=ORIENTED_EDGE('',*,*,#542,.T.);
#694=ORIENTED_EDGE('',*,*,#543,.T.);
#695=ORIENTED_EDGE('',*,*,#542,.F.);
#696=ORIENTED_EDGE('',*,*,#544,.T.);
#697=ORIENTED_EDGE('',*,*,#545,.F.);
#698=ORIENTED_EDGE('',*,*,#546,.T.);
#699=ORIENTED_EDGE('',*,*,#539,.F.);
#700=ORIENTED_EDGE('',*,*,#547,.F.);
#701=ORIENTED_EDGE('',*,*,#548,.F.);
#702=ORIENTED_EDGE('',*,*,#544,.F.);
#703=ORIENTED_EDGE('',*,*,#549,.T.);
#704=ORIENTED_EDGE('',*,*,#548,.T.);
#705=ORIENTED_EDGE('',*,*,#550,.T.);
#706=ORIENTED_EDGE('',*,*,#551,.T.);
#707=ORIENTED_EDGE('',*,*,#549,.F.);
#708=ORIENTED_EDGE('',*,*,#552,.T.);
#709=ORIENTED_EDGE('',*,*,#545,.T.);
#710=ORIENTED_EDGE('',*,*,#552,.F.);
#711=ORIENTED_EDGE('',*,*,#553,.T.);
#712=ORIENTED_EDGE('',*,*,#554,.F.);
#713=ORIENTED_EDGE('',*,*,#555,.T.);
#714=ORIENTED_EDGE('',*,*,#551,.F.);
#715=ORIENTED_EDGE('',*,*,#556,.F.);
#716=ORIENTED_EDGE('',*,*,#557,.F.);
#717=ORIENTED_EDGE('',*,*,#553,.F.);
#718=ORIENTED_EDGE('',*,*,#558,.T.);
#719=ORIENTED_EDGE('',*,*,#559,.T.);
#720=ORIENTED_EDGE('',*,*,#560,.T.);
#721=ORIENTED_EDGE('',*,*,#557,.T.);
#722=ORIENTED_EDGE('',*,*,#560,.F.);
#723=ORIENTED_EDGE('',*,*,#561,.T.);
#724=ORIENTED_EDGE('',*,*,#554,.T.);
#725=ORIENTED_EDGE('',*,*,#561,.F.);
#726=ORIENTED_EDGE('',*,*,#562,.T.);
#727=ORIENTED_EDGE('',*,*,#563,.F.);
#728=ORIENTED_EDGE('',*,*,#564,.T.);
#729=ORIENTED_EDGE('',*,*,#559,.F.);
#730=ORIENTED_EDGE('',*,*,#565,.F.);
#731=ORIENTED_EDGE('',*,*,#566,.F.);
#732=ORIENTED_EDGE('',*,*,#562,.F.);
#733=ORIENTED_EDGE('',*,*,#567,.T.);
#734=ORIENTED_EDGE('',*,*,#568,.T.);
#735=ORIENTED_EDGE('',*,*,#563,.T.);
#736=ORIENTED_EDGE('',*,*,#567,.F.);
#737=ORIENTED_EDGE('',*,*,#566,.T.);
#738=ORIENTED_EDGE('',*,*,#569,.T.);
#739=ORIENTED_EDGE('',*,*,#570,.T.);
#740=ORIENTED_EDGE('',*,*,#568,.F.);
#741=ORIENTED_EDGE('',*,*,#571,.T.);
#742=ORIENTED_EDGE('',*,*,#572,.F.);
#743=ORIENTED_EDGE('',*,*,#573,.T.);
#744=ORIENTED_EDGE('',*,*,#574,.T.);
#745=ORIENTED_EDGE('',*,*,#575,.T.);
#746=ORIENTED_EDGE('',*,*,#576,.T.);
#747=ORIENTED_EDGE('',*,*,#577,.T.);
#748=ORIENTED_EDGE('',*,*,#576,.F.);
#749=ORIENTED_EDGE('',*,*,#578,.T.);
#750=ORIENTED_EDGE('',*,*,#572,.T.);
#751=ORIENTED_EDGE('',*,*,#578,.F.);
#752=ORIENTED_EDGE('',*,*,#579,.T.);
#753=ORIENTED_EDGE('',*,*,#580,.F.);
#754=ORIENTED_EDGE('',*,*,#581,.T.);
#755=ORIENTED_EDGE('',*,*,#575,.F.);
#756=ORIENTED_EDGE('',*,*,#582,.F.);
#757=ORIENTED_EDGE('',*,*,#583,.F.);
#758=ORIENTED_EDGE('',*,*,#579,.F.);
#759=ORIENTED_EDGE('',*,*,#584,.T.);
#760=ORIENTED_EDGE('',*,*,#583,.T.);
#761=ORIENTED_EDGE('',*,*,#585,.T.);
#762=ORIENTED_EDGE('',*,*,#586,.T.);
#763=ORIENTED_EDGE('',*,*,#584,.F.);
#764=ORIENTED_EDGE('',*,*,#587,.T.);
#765=ORIENTED_EDGE('',*,*,#580,.T.);
#766=ORIENTED_EDGE('',*,*,#587,.F.);
#767=ORIENTED_EDGE('',*,*,#588,.T.);
#768=ORIENTED_EDGE('',*,*,#589,.F.);
#769=ORIENTED_EDGE('',*,*,#590,.T.);
#770=ORIENTED_EDGE('',*,*,#586,.F.);
#771=ORIENTED_EDGE('',*,*,#591,.F.);
#772=ORIENTED_EDGE('',*,*,#592,.F.);
#773=ORIENTED_EDGE('',*,*,#588,.F.);
#774=ORIENTED_EDGE('',*,*,#593,.T.);
#775=ORIENTED_EDGE('',*,*,#594,.T.);
#776=ORIENTED_EDGE('',*,*,#595,.T.);
#777=ORIENTED_EDGE('',*,*,#592,.T.);
#778=ORIENTED_EDGE('',*,*,#595,.F.);
#779=ORIENTED_EDGE('',*,*,#596,.T.);
#780=ORIENTED_EDGE('',*,*,#589,.T.);
#781=ORIENTED_EDGE('',*,*,#596,.F.);
#782=ORIENTED_EDGE('',*,*,#597,.T.);
#783=ORIENTED_EDGE('',*,*,#598,.F.);
#784=ORIENTED_EDGE('',*,*,#599,.T.);
#785=ORIENTED_EDGE('',*,*,#594,.F.);
#786=ORIENTED_EDGE('',*,*,#600,.F.);
#787=ORIENTED_EDGE('',*,*,#601,.F.);
#788=ORIENTED_EDGE('',*,*,#597,.F.);
#789=ORIENTED_EDGE('',*,*,#602,.T.);
#790=ORIENTED_EDGE('',*,*,#601,.T.);
#791=ORIENTED_EDGE('',*,*,#603,.T.);
#792=ORIENTED_EDGE('',*,*,#604,.T.);
#793=ORIENTED_EDGE('',*,*,#602,.F.);
#794=ORIENTED_EDGE('',*,*,#605,.T.);
#795=ORIENTED_EDGE('',*,*,#598,.T.);
#796=ORIENTED_EDGE('',*,*,#543,.F.);
#797=ORIENTED_EDGE('',*,*,#606,.T.);
#798=ORIENTED_EDGE('',*,*,#605,.F.);
#799=ORIENTED_EDGE('',*,*,#607,.T.);
#800=ORIENTED_EDGE('',*,*,#541,.F.);
#801=ORIENTED_EDGE('',*,*,#607,.F.);
#802=ORIENTED_EDGE('',*,*,#604,.F.);
#803=ORIENTED_EDGE('',*,*,#608,.F.);
#804=ORIENTED_EDGE('',*,*,#570,.F.);
#805=ORIENTED_EDGE('',*,*,#609,.F.);
#806=ORIENTED_EDGE('',*,*,#577,.F.);
#807=ORIENTED_EDGE('',*,*,#571,.F.);
#808=ORIENTED_EDGE('',*,*,#610,.T.);
#809=ORIENTED_EDGE('',*,*,#611,.T.);
#810=ORIENTED_EDGE('',*,*,#612,.T.);
#811=ORIENTED_EDGE('',*,*,#613,.T.);
#812=ORIENTED_EDGE('',*,*,#614,.T.);
#813=ORIENTED_EDGE('',*,*,#615,.T.);
#814=ORIENTED_EDGE('',*,*,#573,.F.);
#815=ORIENTED_EDGE('',*,*,#581,.F.);
#816=ORIENTED_EDGE('',*,*,#590,.F.);
#817=ORIENTED_EDGE('',*,*,#599,.F.);
#818=ORIENTED_EDGE('',*,*,#606,.F.);
#819=ORIENTED_EDGE('',*,*,#546,.F.);
#820=ORIENTED_EDGE('',*,*,#555,.F.);
#821=ORIENTED_EDGE('',*,*,#564,.F.);
#822=ORIENTED_EDGE('',*,*,#616,.T.);
#823=ORIENTED_EDGE('',*,*,#617,.F.);
#824=ORIENTED_EDGE('',*,*,#618,.T.);
#825=ORIENTED_EDGE('',*,*,#616,.F.);
#826=ORIENTED_EDGE('',*,*,#618,.F.);
#827=ORIENTED_EDGE('',*,*,#619,.F.);
#828=ORIENTED_EDGE('',*,*,#620,.F.);
#829=ORIENTED_EDGE('',*,*,#621,.F.);
#830=ORIENTED_EDGE('',*,*,#622,.F.);
#831=ORIENTED_EDGE('',*,*,#623,.F.);
#832=ORIENTED_EDGE('',*,*,#624,.F.);
#833=ORIENTED_EDGE('',*,*,#625,.F.);
#834=ORIENTED_EDGE('',*,*,#626,.F.);
#835=ORIENTED_EDGE('',*,*,#627,.F.);
#836=ORIENTED_EDGE('',*,*,#626,.T.);
#837=ORIENTED_EDGE('',*,*,#628,.T.);
#838=ORIENTED_EDGE('',*,*,#621,.T.);
#839=ORIENTED_EDGE('',*,*,#629,.T.);
#840=ORIENTED_EDGE('',*,*,#630,.F.);
#841=ORIENTED_EDGE('',*,*,#631,.F.);
#842=ORIENTED_EDGE('',*,*,#632,.F.);
#843=ORIENTED_EDGE('',*,*,#623,.T.);
#844=ORIENTED_EDGE('',*,*,#633,.T.);
#845=ORIENTED_EDGE('',*,*,#631,.T.);
#846=ORIENTED_EDGE('',*,*,#634,.T.);
#847=ORIENTED_EDGE('',*,*,#635,.T.);
#848=ORIENTED_EDGE('',*,*,#636,.T.);
#849=ORIENTED_EDGE('',*,*,#632,.T.);
#850=ORIENTED_EDGE('',*,*,#637,.T.);
#851=ORIENTED_EDGE('',*,*,#630,.T.);
#852=ORIENTED_EDGE('',*,*,#638,.T.);
#853=ORIENTED_EDGE('',*,*,#627,.T.);
#854=ORIENTED_EDGE('',*,*,#639,.T.);
#855=ORIENTED_EDGE('',*,*,#640,.T.);
#856=ORIENTED_EDGE('',*,*,#641,.T.);
#857=ORIENTED_EDGE('',*,*,#625,.T.);
#858=ORIENTED_EDGE('',*,*,#642,.T.);
#859=ORIENTED_EDGE('',*,*,#620,.T.);
#860=ORIENTED_EDGE('',*,*,#643,.T.);
#861=ORIENTED_EDGE('',*,*,#624,.T.);
#862=ORIENTED_EDGE('',*,*,#644,.T.);
#863=ORIENTED_EDGE('',*,*,#645,.T.);
#864=ORIENTED_EDGE('',*,*,#646,.T.);
#865=ORIENTED_EDGE('',*,*,#622,.T.);
#866=ORIENTED_EDGE('',*,*,#647,.T.);
#867=ORIENTED_EDGE('',*,*,#648,.T.);
#868=ORIENTED_EDGE('',*,*,#649,.T.);
#869=ORIENTED_EDGE('',*,*,#619,.T.);
#870=ORIENTED_EDGE('',*,*,#650,.T.);
#871=ORIENTED_EDGE('',*,*,#637,.F.);
#872=ORIENTED_EDGE('',*,*,#633,.F.);
#873=ORIENTED_EDGE('',*,*,#646,.F.);
#874=ORIENTED_EDGE('',*,*,#651,.F.);
#875=ORIENTED_EDGE('',*,*,#652,.T.);
#876=ORIENTED_EDGE('',*,*,#653,.T.);
#877=ORIENTED_EDGE('',*,*,#654,.T.);
#878=ORIENTED_EDGE('',*,*,#635,.F.);
#879=ORIENTED_EDGE('',*,*,#651,.T.);
#880=ORIENTED_EDGE('',*,*,#645,.F.);
#881=ORIENTED_EDGE('',*,*,#655,.T.);
#882=ORIENTED_EDGE('',*,*,#648,.F.);
#883=ORIENTED_EDGE('',*,*,#656,.T.);
#884=ORIENTED_EDGE('',*,*,#640,.F.);
#885=ORIENTED_EDGE('',*,*,#657,.T.);
#886=ORIENTED_EDGE('',*,*,#609,.T.);
#887=ORIENTED_EDGE('',*,*,#569,.F.);
#888=ORIENTED_EDGE('',*,*,#565,.T.);
#889=ORIENTED_EDGE('',*,*,#558,.F.);
#890=ORIENTED_EDGE('',*,*,#556,.T.);
#891=ORIENTED_EDGE('',*,*,#550,.F.);
#892=ORIENTED_EDGE('',*,*,#547,.T.);
#893=ORIENTED_EDGE('',*,*,#538,.F.);
#894=ORIENTED_EDGE('',*,*,#608,.T.);
#895=ORIENTED_EDGE('',*,*,#603,.F.);
#896=ORIENTED_EDGE('',*,*,#600,.T.);
#897=ORIENTED_EDGE('',*,*,#593,.F.);
#898=ORIENTED_EDGE('',*,*,#591,.T.);
#899=ORIENTED_EDGE('',*,*,#585,.F.);
#900=ORIENTED_EDGE('',*,*,#582,.T.);
#901=ORIENTED_EDGE('',*,*,#574,.F.);
#902=ORIENTED_EDGE('',*,*,#658,.T.);
#903=ORIENTED_EDGE('',*,*,#659,.T.);
#904=ORIENTED_EDGE('',*,*,#660,.T.);
#905=ORIENTED_EDGE('',*,*,#661,.T.);
#906=ORIENTED_EDGE('',*,*,#647,.F.);
#907=ORIENTED_EDGE('',*,*,#643,.F.);
#908=ORIENTED_EDGE('',*,*,#649,.F.);
#909=ORIENTED_EDGE('',*,*,#655,.F.);
#910=ORIENTED_EDGE('',*,*,#634,.F.);
#911=ORIENTED_EDGE('',*,*,#639,.F.);
#912=ORIENTED_EDGE('',*,*,#629,.F.);
#913=ORIENTED_EDGE('',*,*,#644,.F.);
#914=ORIENTED_EDGE('',*,*,#617,.T.);
#915=ORIENTED_EDGE('',*,*,#662,.T.);
#916=ORIENTED_EDGE('',*,*,#663,.T.);
#917=ORIENTED_EDGE('',*,*,#614,.F.);
#918=ORIENTED_EDGE('',*,*,#664,.F.);
#919=ORIENTED_EDGE('',*,*,#665,.T.);
#920=ORIENTED_EDGE('',*,*,#664,.T.);
#921=ORIENTED_EDGE('',*,*,#615,.F.);
#922=ORIENTED_EDGE('',*,*,#663,.F.);
#923=ORIENTED_EDGE('',*,*,#666,.T.);
#924=ORIENTED_EDGE('',*,*,#667,.T.);
#925=ORIENTED_EDGE('',*,*,#612,.F.);
#926=ORIENTED_EDGE('',*,*,#668,.F.);
#927=ORIENTED_EDGE('',*,*,#669,.T.);
#928=ORIENTED_EDGE('',*,*,#668,.T.);
#929=ORIENTED_EDGE('',*,*,#613,.F.);
#930=ORIENTED_EDGE('',*,*,#667,.F.);
#931=ORIENTED_EDGE('',*,*,#670,.T.);
#932=ORIENTED_EDGE('',*,*,#671,.T.);
#933=ORIENTED_EDGE('',*,*,#610,.F.);
#934=ORIENTED_EDGE('',*,*,#672,.F.);
#935=ORIENTED_EDGE('',*,*,#673,.T.);
#936=ORIENTED_EDGE('',*,*,#672,.T.);
#937=ORIENTED_EDGE('',*,*,#611,.F.);
#938=ORIENTED_EDGE('',*,*,#671,.F.);
#939=ORIENTED_EDGE('',*,*,#652,.F.);
#940=ORIENTED_EDGE('',*,*,#674,.T.);
#941=ORIENTED_EDGE('',*,*,#675,.T.);
#942=ORIENTED_EDGE('',*,*,#674,.F.);
#943=ORIENTED_EDGE('',*,*,#675,.F.);
#944=ORIENTED_EDGE('',*,*,#666,.F.);
#945=ORIENTED_EDGE('',*,*,#669,.F.);
#946=ORIENTED_EDGE('',*,*,#653,.F.);
#947=ORIENTED_EDGE('',*,*,#676,.T.);
#948=ORIENTED_EDGE('',*,*,#677,.T.);
#949=ORIENTED_EDGE('',*,*,#676,.F.);
#950=ORIENTED_EDGE('',*,*,#677,.F.);
#951=ORIENTED_EDGE('',*,*,#662,.F.);
#952=ORIENTED_EDGE('',*,*,#665,.F.);
#953=ORIENTED_EDGE('',*,*,#654,.F.);
#954=ORIENTED_EDGE('',*,*,#678,.T.);
#955=ORIENTED_EDGE('',*,*,#679,.T.);
#956=ORIENTED_EDGE('',*,*,#678,.F.);
#957=ORIENTED_EDGE('',*,*,#679,.F.);
#958=ORIENTED_EDGE('',*,*,#670,.F.);
#959=ORIENTED_EDGE('',*,*,#673,.F.);
#960=ORIENTED_EDGE('',*,*,#661,.F.);
#961=ORIENTED_EDGE('',*,*,#680,.T.);
#962=ORIENTED_EDGE('',*,*,#681,.T.);
#963=ORIENTED_EDGE('',*,*,#680,.F.);
#964=ORIENTED_EDGE('',*,*,#681,.F.);
#965=ORIENTED_EDGE('',*,*,#660,.F.);
#966=ORIENTED_EDGE('',*,*,#682,.T.);
#967=ORIENTED_EDGE('',*,*,#683,.T.);
#968=ORIENTED_EDGE('',*,*,#682,.F.);
#969=ORIENTED_EDGE('',*,*,#683,.F.);
#970=ORIENTED_EDGE('',*,*,#659,.F.);
#971=ORIENTED_EDGE('',*,*,#684,.T.);
#972=ORIENTED_EDGE('',*,*,#685,.T.);
#973=ORIENTED_EDGE('',*,*,#684,.F.);
#974=ORIENTED_EDGE('',*,*,#685,.F.);
#975=ORIENTED_EDGE('',*,*,#658,.F.);
#976=ORIENTED_EDGE('',*,*,#686,.T.);
#977=ORIENTED_EDGE('',*,*,#687,.T.);
#978=ORIENTED_EDGE('',*,*,#686,.F.);
#979=ORIENTED_EDGE('',*,*,#687,.F.);
#980=ORIENTED_EDGE('',*,*,#636,.F.);
#981=ORIENTED_EDGE('',*,*,#657,.F.);
#982=ORIENTED_EDGE('',*,*,#642,.F.);
#983=ORIENTED_EDGE('',*,*,#638,.F.);
#984=ORIENTED_EDGE('',*,*,#641,.F.);
#985=ORIENTED_EDGE('',*,*,#656,.F.);
#986=ORIENTED_EDGE('',*,*,#650,.F.);
#987=ORIENTED_EDGE('',*,*,#628,.F.);
#988=CYLINDRICAL_SURFACE('',#1110,1.);
#989=CYLINDRICAL_SURFACE('',#1120,5.);
#990=CYLINDRICAL_SURFACE('',#1122,1.);
#991=CYLINDRICAL_SURFACE('',#1127,1.);
#992=CYLINDRICAL_SURFACE('',#1130,1.);
#993=CYLINDRICAL_SURFACE('',#1139,5.);
#994=CYLINDRICAL_SURFACE('',#1144,1.);
#995=CYLINDRICAL_SURFACE('',#1146,1.);
#996=CYLINDRICAL_SURFACE('',#1148,1.);
#997=CYLINDRICAL_SURFACE('',#1157,5.);
#998=CYLINDRICAL_SURFACE('',#1159,1.);
#999=CYLINDRICAL_SURFACE('',#1164,1.);
#1000=CYLINDRICAL_SURFACE('',#1167,1.);
#1001=CYLINDRICAL_SURFACE('',#1176,5.);
#1002=CYLINDRICAL_SURFACE('',#1178,1.);
#1003=CYLINDRICAL_SURFACE('',#1183,1.);
#1004=CYLINDRICAL_SURFACE('',#1191,6.5);
#1005=CYLINDRICAL_SURFACE('',#1205,1.);
#1006=CYLINDRICAL_SURFACE('',#1210,1.);
#1007=CYLINDRICAL_SURFACE('',#1211,1.);
#1008=CYLINDRICAL_SURFACE('',#1213,1.);
#1009=CYLINDRICAL_SURFACE('',#1214,1.);
#1010=CYLINDRICAL_SURFACE('',#1216,1.);
#1011=CYLINDRICAL_SURFACE('',#1217,1.);
#1012=CYLINDRICAL_SURFACE('',#1219,1.);
#1013=CYLINDRICAL_SURFACE('',#1232,3.25);
#1014=CYLINDRICAL_SURFACE('',#1235,3.25);
#1015=CYLINDRICAL_SURFACE('',#1238,3.25);
#1016=CYLINDRICAL_SURFACE('',#1241,5.25);
#1017=CYLINDRICAL_SURFACE('',#1244,5.25);
#1018=CYLINDRICAL_SURFACE('',#1247,5.25);
#1019=CYLINDRICAL_SURFACE('',#1250,1.5);
#1020=CYLINDRICAL_SURFACE('',#1253,1.5);
#1021=CYLINDRICAL_SURFACE('',#1256,1.5);
#1022=CYLINDRICAL_SURFACE('',#1259,1.5);
#1023=ADVANCED_FACE('',(#72),#988,.F.);
#1024=ADVANCED_FACE('',(#73),#60,.F.);
#1025=ADVANCED_FACE('',(#74),#56,.F.);
#1026=ADVANCED_FACE('',(#75),#989,.T.);
#1027=ADVANCED_FACE('',(#76),#990,.F.);
#1028=ADVANCED_FACE('',(#77),#61,.F.);
#1029=ADVANCED_FACE('',(#78),#991,.F.);
#1030=ADVANCED_FACE('',(#79),#35,.F.);
#1031=ADVANCED_FACE('',(#80),#992,.F.);
#1032=ADVANCED_FACE('',(#81),#62,.F.);
#1033=ADVANCED_FACE('',(#82),#57,.F.);
#1034=ADVANCED_FACE('',(#83),#993,.T.);
#1035=ADVANCED_FACE('',(#84),#63,.F.);
#1036=ADVANCED_FACE('',(#85),#994,.F.);
#1037=ADVANCED_FACE('',(#86),#995,.F.);
#1038=ADVANCED_FACE('',(#87),#996,.F.);
#1039=ADVANCED_FACE('',(#88),#64,.F.);
#1040=ADVANCED_FACE('',(#89),#58,.F.);
#1041=ADVANCED_FACE('',(#90),#997,.T.);
#1042=ADVANCED_FACE('',(#91),#998,.F.);
#1043=ADVANCED_FACE('',(#92),#65,.F.);
#1044=ADVANCED_FACE('',(#93),#999,.F.);
#1045=ADVANCED_FACE('',(#94),#36,.F.);
#1046=ADVANCED_FACE('',(#95),#1000,.F.);
#1047=ADVANCED_FACE('',(#96),#66,.F.);
#1048=ADVANCED_FACE('',(#97),#59,.F.);
#1049=ADVANCED_FACE('',(#98),#1001,.T.);
#1050=ADVANCED_FACE('',(#99),#1002,.F.);
#1051=ADVANCED_FACE('',(#100),#67,.F.);
#1052=ADVANCED_FACE('',(#101),#1003,.F.);
#1053=ADVANCED_FACE('',(#102),#37,.F.);
#1054=ADVANCED_FACE('',(#103,#19,#20,#21),#38,.F.);
#1055=ADVANCED_FACE('',(#104,#22),#39,.F.);
#1056=ADVANCED_FACE('',(#105),#1004,.F.);
#1057=ADVANCED_FACE('',(#106),#68,.T.);
#1058=ADVANCED_FACE('',(#107),#69,.T.);
#1059=ADVANCED_FACE('',(#108),#70,.T.);
#1060=ADVANCED_FACE('',(#109),#1005,.T.);
#1061=ADVANCED_FACE('',(#110),#71,.T.);
#1062=ADVANCED_FACE('',(#111),#1006,.T.);
#1063=ADVANCED_FACE('',(#112),#1007,.T.);
#1064=ADVANCED_FACE('',(#113),#1008,.T.);
#1065=ADVANCED_FACE('',(#114),#1009,.T.);
#1066=ADVANCED_FACE('',(#115),#1010,.T.);
#1067=ADVANCED_FACE('',(#116),#1011,.T.);
#1068=ADVANCED_FACE('',(#117),#1012,.T.);
#1069=ADVANCED_FACE('',(#118,#23,#24,#25),#40,.T.);
#1070=ADVANCED_FACE('',(#119,#26,#27,#28,#29,#30),#41,.T.);
#1071=ADVANCED_FACE('',(#120),#42,.T.);
#1072=ADVANCED_FACE('',(#121,#31),#43,.F.);
#1073=ADVANCED_FACE('',(#122),#1013,.F.);
#1074=ADVANCED_FACE('',(#123),#44,.F.);
#1075=ADVANCED_FACE('',(#124),#1014,.F.);
#1076=ADVANCED_FACE('',(#125),#45,.F.);
#1077=ADVANCED_FACE('',(#126),#1015,.F.);
#1078=ADVANCED_FACE('',(#127),#46,.F.);
#1079=ADVANCED_FACE('',(#128),#1016,.F.);
#1080=ADVANCED_FACE('',(#129,#32),#47,.T.);
#1081=ADVANCED_FACE('',(#130),#1017,.F.);
#1082=ADVANCED_FACE('',(#131,#33),#48,.T.);
#1083=ADVANCED_FACE('',(#132),#1018,.F.);
#1084=ADVANCED_FACE('',(#133,#34),#49,.T.);
#1085=ADVANCED_FACE('',(#134),#1019,.F.);
#1086=ADVANCED_FACE('',(#135),#50,.T.);
#1087=ADVANCED_FACE('',(#136),#1020,.F.);
#1088=ADVANCED_FACE('',(#137),#51,.T.);
#1089=ADVANCED_FACE('',(#138),#1021,.F.);
#1090=ADVANCED_FACE('',(#139),#52,.T.);
#1091=ADVANCED_FACE('',(#140),#1022,.F.);
#1092=ADVANCED_FACE('',(#141),#53,.T.);
#1093=ADVANCED_FACE('',(#142),#54,.T.);
#1094=ADVANCED_FACE('',(#143),#55,.T.);
#1095=CLOSED_SHELL('',(#1023,#1024,#1025,#1026,#1027,#1028,#1029,#1030,
#1031,#1032,#1033,#1034,#1035,#1036,#1037,#1038,#1039,#1040,#1041,#1042,
#1043,#1044,#1045,#1046,#1047,#1048,#1049,#1050,#1051,#1052,#1053,#1054,
#1055,#1056,#1057,#1058,#1059,#1060,#1061,#1062,#1063,#1064,#1065,#1066,
#1067,#1068,#1069,#1070,#1071,#1072,#1073,#1074,#1075,#1076,#1077,#1078,
#1079,#1080,#1081,#1082,#1083,#1084,#1085,#1086,#1087,#1088,#1089,#1090,
#1091,#1092,#1093,#1094));
#1096=DERIVED_UNIT_ELEMENT(#1098,1.);
#1097=DERIVED_UNIT_ELEMENT(#1967,-3.);
#1098=(
MASS_UNIT()
NAMED_UNIT(*)
SI_UNIT(.KILO.,.GRAM.)
);
#1099=DERIVED_UNIT((#1096,#1097));
#1100=MEASURE_REPRESENTATION_ITEM('density measure',
POSITIVE_RATIO_MEASURE(7850.),#1099);
#1101=PROPERTY_DEFINITION_REPRESENTATION(#1106,#1103);
#1102=PROPERTY_DEFINITION_REPRESENTATION(#1107,#1104);
#1103=REPRESENTATION('material name',(#1105),#1964);
#1104=REPRESENTATION('density',(#1100),#1964);
#1105=DESCRIPTIVE_REPRESENTATION_ITEM('Steel','Steel');
#1106=PROPERTY_DEFINITION('material property','material name',#1979);
#1107=PROPERTY_DEFINITION('material property','density of part',#1979);
#1108=AXIS2_PLACEMENT_3D('',#1647,#1265,#1266);
#1109=AXIS2_PLACEMENT_3D('',#1648,#1267,#1268);
#1110=AXIS2_PLACEMENT_3D('',#1649,#1269,#1270);
#1111=AXIS2_PLACEMENT_3D('',#1652,#1271,#1272);
#1112=AXIS2_PLACEMENT_3D('',#1656,#1274,#1275);
#1113=AXIS2_PLACEMENT_3D('',#1658,#1277,#1278);
#1114=AXIS2_PLACEMENT_3D('',#1660,#1279,#1280);
#1115=AXIS2_PLACEMENT_3D('',#1661,#1281,#1282);
#1116=AXIS2_PLACEMENT_3D('',#1662,#1283,#1284);
#1117=AXIS2_PLACEMENT_3D('',#1664,#1285,#1286);
#1118=AXIS2_PLACEMENT_3D('',#1666,#1287,#1288);
#1119=AXIS2_PLACEMENT_3D('',#1667,#1289,#1290);
#1120=AXIS2_PLACEMENT_3D('',#1668,#1291,#1292);
#1121=AXIS2_PLACEMENT_3D('',#1670,#1293,#1294);
#1122=AXIS2_PLACEMENT_3D('',#1672,#1296,#1297);
#1123=AXIS2_PLACEMENT_3D('',#1674,#1298,#1299);
#1124=AXIS2_PLACEMENT_3D('',#1676,#1300,#1301);
#1125=AXIS2_PLACEMENT_3D('',#1678,#1303,#1304);
#1126=AXIS2_PLACEMENT_3D('',#1679,#1305,#1306);
#1127=AXIS2_PLACEMENT_3D('',#1680,#1307,#1308);
#1128=AXIS2_PLACEMENT_3D('',#1684,#1310,#1311);
#1129=AXIS2_PLACEMENT_3D('',#1686,#1313,#1314);
#1130=AXIS2_PLACEMENT_3D('',#1690,#1317,#1318);
#1131=AXIS2_PLACEMENT_3D('',#1692,#1319,#1320);
#1132=AXIS2_PLACEMENT_3D('',#1695,#1322,#1323);
#1133=AXIS2_PLACEMENT_3D('',#1696,#1324,#1325);
#1134=AXIS2_PLACEMENT_3D('',#1697,#1326,#1327);
#1135=AXIS2_PLACEMENT_3D('',#1698,#1328,#1329);
#1136=AXIS2_PLACEMENT_3D('',#1700,#1330,#1331);
#1137=AXIS2_PLACEMENT_3D('',#1702,#1332,#1333);
#1138=AXIS2_PLACEMENT_3D('',#1703,#1334,#1335);
#1139=AXIS2_PLACEMENT_3D('',#1704,#1336,#1337);
#1140=AXIS2_PLACEMENT_3D('',#1706,#1338,#1339);
#1141=AXIS2_PLACEMENT_3D('',#1708,#1341,#1342);
#1142=AXIS2_PLACEMENT_3D('',#1710,#1343,#1344);
#1143=AXIS2_PLACEMENT_3D('',#1711,#1345,#1346);
#1144=AXIS2_PLACEMENT_3D('',#1712,#1347,#1348);
#1145=AXIS2_PLACEMENT_3D('',#1714,#1349,#1350);
#1146=AXIS2_PLACEMENT_3D('',#1716,#1352,#1353);
#1147=AXIS2_PLACEMENT_3D('',#1720,#1355,#1356);
#1148=AXIS2_PLACEMENT_3D('',#1722,#1358,#1359);
#1149=AXIS2_PLACEMENT_3D('',#1725,#1360,#1361);
#1150=AXIS2_PLACEMENT_3D('',#1728,#1363,#1364);
#1151=AXIS2_PLACEMENT_3D('',#1730,#1366,#1367);
#1152=AXIS2_PLACEMENT_3D('',#1731,#1368,#1369);
#1153=AXIS2_PLACEMENT_3D('',#1732,#1370,#1371);
#1154=AXIS2_PLACEMENT_3D('',#1734,#1372,#1373);
#1155=AXIS2_PLACEMENT_3D('',#1736,#1374,#1375);
#1156=AXIS2_PLACEMENT_3D('',#1737,#1376,#1377);
#1157=AXIS2_PLACEMENT_3D('',#1738,#1378,#1379);
#1158=AXIS2_PLACEMENT_3D('',#1740,#1380,#1381);
#1159=AXIS2_PLACEMENT_3D('',#1742,#1383,#1384);
#1160=AXIS2_PLACEMENT_3D('',#1744,#1385,#1386);
#1161=AXIS2_PLACEMENT_3D('',#1746,#1387,#1388);
#1162=AXIS2_PLACEMENT_3D('',#1748,#1390,#1391);
#1163=AXIS2_PLACEMENT_3D('',#1749,#1392,#1393);
#1164=AXIS2_PLACEMENT_3D('',#1750,#1394,#1395);
#1165=AXIS2_PLACEMENT_3D('',#1754,#1397,#1398);
#1166=AXIS2_PLACEMENT_3D('',#1756,#1400,#1401);
#1167=AXIS2_PLACEMENT_3D('',#1760,#1404,#1405);
#1168=AXIS2_PLACEMENT_3D('',#1762,#1406,#1407);
#1169=AXIS2_PLACEMENT_3D('',#1765,#1409,#1410);
#1170=AXIS2_PLACEMENT_3D('',#1766,#1411,#1412);
#1171=AXIS2_PLACEMENT_3D('',#1767,#1413,#1414);
#1172=AXIS2_PLACEMENT_3D('',#1768,#1415,#1416);
#1173=AXIS2_PLACEMENT_3D('',#1770,#1417,#1418);
#1174=AXIS2_PLACEMENT_3D('',#1772,#1419,#1420);
#1175=AXIS2_PLACEMENT_3D('',#1773,#1421,#1422);
#1176=AXIS2_PLACEMENT_3D('',#1774,#1423,#1424);
#1177=AXIS2_PLACEMENT_3D('',#1776,#1425,#1426);
#1178=AXIS2_PLACEMENT_3D('',#1778,#1428,#1429);
#1179=AXIS2_PLACEMENT_3D('',#1780,#1430,#1431);
#1180=AXIS2_PLACEMENT_3D('',#1782,#1432,#1433);
#1181=AXIS2_PLACEMENT_3D('',#1784,#1435,#1436);
#1182=AXIS2_PLACEMENT_3D('',#1785,#1437,#1438);
#1183=AXIS2_PLACEMENT_3D('',#1786,#1439,#1440);
#1184=AXIS2_PLACEMENT_3D('',#1789,#1443,#1444);
#1185=AXIS2_PLACEMENT_3D('',#1791,#1446,#1447);
#1186=AXIS2_PLACEMENT_3D('',#1795,#1449,#1450);
#1187=AXIS2_PLACEMENT_3D('',#1799,#1452,#1453);
#1188=AXIS2_PLACEMENT_3D('',#1803,#1455,#1456);
#1189=AXIS2_PLACEMENT_3D('',#1805,#1458,#1459);
#1190=AXIS2_PLACEMENT_3D('',#1807,#1460,#1461);
#1191=AXIS2_PLACEMENT_3D('',#1808,#1462,#1463);
#1192=AXIS2_PLACEMENT_3D('',#1810,#1464,#1465);
#1193=AXIS2_PLACEMENT_3D('',#1812,#1467,#1468);
#1194=AXIS2_PLACEMENT_3D('',#1815,#1469,#1470);
#1195=AXIS2_PLACEMENT_3D('',#1817,#1471,#1472);
#1196=AXIS2_PLACEMENT_3D('',#1818,#1473,#1474);
#1197=AXIS2_PLACEMENT_3D('',#1819,#1475,#1476);
#1198=AXIS2_PLACEMENT_3D('',#1822,#1477,#1478);
#1199=AXIS2_PLACEMENT_3D('',#1824,#1479,#1480);
#1200=AXIS2_PLACEMENT_3D('',#1825,#1481,#1482);
#1201=AXIS2_PLACEMENT_3D('',#1826,#1483,#1484);
#1202=AXIS2_PLACEMENT_3D('',#1829,#1485,#1486);
#1203=AXIS2_PLACEMENT_3D('',#1831,#1487,#1488);
#1204=AXIS2_PLACEMENT_3D('',#1832,#1489,#1490);
#1205=AXIS2_PLACEMENT_3D('',#1833,#1491,#1492);
#1206=AXIS2_PLACEMENT_3D('',#1836,#1495,#1496);
#1207=AXIS2_PLACEMENT_3D('',#1839,#1497,#1498);
#1208=AXIS2_PLACEMENT_3D('',#1841,#1499,#1500);
#1209=AXIS2_PLACEMENT_3D('',#1842,#1501,#1502);
#1210=AXIS2_PLACEMENT_3D('',#1843,#1503,#1504);
#1211=AXIS2_PLACEMENT_3D('',#1846,#1507,#1508);
#1212=AXIS2_PLACEMENT_3D('',#1849,#1509,#1510);
#1213=AXIS2_PLACEMENT_3D('',#1852,#1513,#1514);
#1214=AXIS2_PLACEMENT_3D('',#1855,#1517,#1518);
#1215=AXIS2_PLACEMENT_3D('',#1858,#1519,#1520);
#1216=AXIS2_PLACEMENT_3D('',#1861,#1523,#1524);
#1217=AXIS2_PLACEMENT_3D('',#1864,#1527,#1528);
#1218=AXIS2_PLACEMENT_3D('',#1867,#1529,#1530);
#1219=AXIS2_PLACEMENT_3D('',#1870,#1533,#1534);
#1220=AXIS2_PLACEMENT_3D('',#1873,#1535,#1536);
#1221=AXIS2_PLACEMENT_3D('',#1876,#1539,#1540);
#1222=AXIS2_PLACEMENT_3D('',#1879,#1542,#1543);
#1223=AXIS2_PLACEMENT_3D('',#1881,#1544,#1545);
#1224=AXIS2_PLACEMENT_3D('',#1883,#1546,#1547);
#1225=AXIS2_PLACEMENT_3D('',#1884,#1548,#1549);
#1226=AXIS2_PLACEMENT_3D('',#1889,#1553,#1554);
#1227=AXIS2_PLACEMENT_3D('',#1891,#1555,#1556);
#1228=AXIS2_PLACEMENT_3D('',#1893,#1557,#1558);
#1229=AXIS2_PLACEMENT_3D('',#1895,#1559,#1560);
#1230=AXIS2_PLACEMENT_3D('',#1896,#1561,#1562);
#1231=AXIS2_PLACEMENT_3D('',#1897,#1563,#1564);
#1232=AXIS2_PLACEMENT_3D('',#1898,#1565,#1566);
#1233=AXIS2_PLACEMENT_3D('',#1901,#1567,#1568);
#1234=AXIS2_PLACEMENT_3D('',#1904,#1571,#1572);
#1235=AXIS2_PLACEMENT_3D('',#1906,#1574,#1575);
#1236=AXIS2_PLACEMENT_3D('',#1909,#1576,#1577);
#1237=AXIS2_PLACEMENT_3D('',#1912,#1580,#1581);
#1238=AXIS2_PLACEMENT_3D('',#1914,#1583,#1584);
#1239=AXIS2_PLACEMENT_3D('',#1917,#1585,#1586);
#1240=AXIS2_PLACEMENT_3D('',#1920,#1589,#1590);
#1241=AXIS2_PLACEMENT_3D('',#1922,#1592,#1593);
#1242=AXIS2_PLACEMENT_3D('',#1925,#1595,#1596);
#1243=AXIS2_PLACEMENT_3D('',#1926,#1597,#1598);
#1244=AXIS2_PLACEMENT_3D('',#1927,#1599,#1600);
#1245=AXIS2_PLACEMENT_3D('',#1930,#1602,#1603);
#1246=AXIS2_PLACEMENT_3D('',#1931,#1604,#1605);
#1247=AXIS2_PLACEMENT_3D('',#1932,#1606,#1607);
#1248=AXIS2_PLACEMENT_3D('',#1935,#1609,#1610);
#1249=AXIS2_PLACEMENT_3D('',#1936,#1611,#1612);
#1250=AXIS2_PLACEMENT_3D('',#1937,#1613,#1614);
#1251=AXIS2_PLACEMENT_3D('',#1940,#1616,#1617);
#1252=AXIS2_PLACEMENT_3D('',#1941,#1618,#1619);
#1253=AXIS2_PLACEMENT_3D('',#1942,#1620,#1621);
#1254=AXIS2_PLACEMENT_3D('',#1945,#1623,#1624);
#1255=AXIS2_PLACEMENT_3D('',#1946,#1625,#1626);
#1256=AXIS2_PLACEMENT_3D('',#1947,#1627,#1628);
#1257=AXIS2_PLACEMENT_3D('',#1950,#1630,#1631);
#1258=AXIS2_PLACEMENT_3D('',#1951,#1632,#1633);
#1259=AXIS2_PLACEMENT_3D('',#1952,#1634,#1635);
#1260=AXIS2_PLACEMENT_3D('',#1955,#1637,#1638);
#1261=AXIS2_PLACEMENT_3D('',#1956,#1639,#1640);
#1262=AXIS2_PLACEMENT_3D('',#1957,#1641,#1642);
#1263=AXIS2_PLACEMENT_3D('',#1958,#1643,#1644);
#1264=AXIS2_PLACEMENT_3D('',#1959,#1645,#1646);
#1265=DIRECTION('axis',(0.,0.,1.));
#1266=DIRECTION('refdir',(1.,0.,0.));
#1267=DIRECTION('axis',(0.,0.,1.));
#1268=DIRECTION('refdir',(1.,0.,0.));
#1269=DIRECTION('center_axis',(0.,-1.,0.));
#1270=DIRECTION('ref_axis',(-0.707106781186544,0.,0.707106781186551));
#1271=DIRECTION('center_axis',(0.,1.,0.));
#1272=DIRECTION('ref_axis',(-0.707106781186544,0.,0.707106781186551));
#1273=DIRECTION('',(0.,-1.,0.));
#1274=DIRECTION('center_axis',(-4.44089209850062E-15,-1.,0.));
#1275=DIRECTION('ref_axis',(0.,0.,1.));
#1276=DIRECTION('',(0.,1.,0.));
#1277=DIRECTION('center_axis',(0.40824829046386,-0.816496580927729,-0.40824829046386));
#1278=DIRECTION('ref_axis',(-0.577350269189629,-0.577350269189622,0.577350269189626));
#1279=DIRECTION('center_axis',(1.,0.,0.));
#1280=DIRECTION('ref_axis',(0.,0.,1.));
#1281=DIRECTION('center_axis',(0.,0.,-1.));
#1282=DIRECTION('ref_axis',(-0.707106781186546,-0.707106781186549,0.));
#1283=DIRECTION('center_axis',(0.,-1.,0.));
#1284=DIRECTION('ref_axis',(0.,0.,-1.));
#1285=DIRECTION('center_axis',(0.,-1.,0.));
#1286=DIRECTION('ref_axis',(0.707106781186548,0.,-0.707106781186547));
#1287=DIRECTION('center_axis',(0.,0.,-1.));
#1288=DIRECTION('ref_axis',(-1.,0.,0.));
#1289=DIRECTION('center_axis',(0.,1.,0.));
#1290=DIRECTION('ref_axis',(0.707106781186548,0.,-0.707106781186547));
#1291=DIRECTION('center_axis',(0.,-1.,0.));
#1292=DIRECTION('ref_axis',(-1.,0.,0.));
#1293=DIRECTION('center_axis',(0.,1.,0.));
#1294=DIRECTION('ref_axis',(-1.,0.,0.));
#1295=DIRECTION('',(0.,1.,0.));
#1296=DIRECTION('center_axis',(0.,1.,0.));
#1297=DIRECTION('ref_axis',(-0.707106781186551,0.,0.707106781186544));
#1298=DIRECTION('center_axis',(0.,-1.,4.44089209850062E-15));
#1299=DIRECTION('ref_axis',(-4.44089209850062E-15,4.44089209850062E-15,
1.));
#1300=DIRECTION('center_axis',(0.,1.,0.));
#1301=DIRECTION('ref_axis',(-0.707106781186551,0.,0.707106781186544));
#1302=DIRECTION('',(0.,-1.,0.));
#1303=DIRECTION('center_axis',(-0.408248290463867,-0.408248290463859,-0.816496580927726));
#1304=DIRECTION('ref_axis',(-0.577350269189631,-0.577350269189622,0.577350269189624));
#1305=DIRECTION('center_axis',(1.,0.,0.));
#1306=DIRECTION('ref_axis',(0.,-0.707106781186549,0.707106781186546));
#1307=DIRECTION('center_axis',(-1.,0.,0.));
#1308=DIRECTION('ref_axis',(0.,-0.707106781186549,0.707106781186546));
#1309=DIRECTION('',(1.,0.,0.));
#1310=DIRECTION('center_axis',(-1.,0.,0.));
#1311=DIRECTION('ref_axis',(0.,-0.707106781186549,0.707106781186546));
#1312=DIRECTION('',(-1.,0.,0.));
#1313=DIRECTION('center_axis',(0.,0.,1.));
#1314=DIRECTION('ref_axis',(-1.,0.,0.));
#1315=DIRECTION('',(-1.,0.,0.));
#1316=DIRECTION('',(0.,1.,0.));
#1317=DIRECTION('center_axis',(0.,-1.,0.));
#1318=DIRECTION('ref_axis',(0.707106781186551,0.,0.707106781186544));
#1319=DIRECTION('center_axis',(0.,1.,0.));
#1320=DIRECTION('ref_axis',(0.707106781186551,0.,0.707106781186544));
#1321=DIRECTION('',(0.,-1.,0.));
#1322=DIRECTION('center_axis',(0.,-1.,4.44089209850062E-15));
#1323=DIRECTION('ref_axis',(1.,0.,0.));
#1324=DIRECTION('center_axis',(-0.40824829046386,-0.816496580927729,-0.40824829046386));
#1325=DIRECTION('ref_axis',(0.577350269189626,-0.577350269189622,0.577350269189629));
#1326=DIRECTION('center_axis',(0.,0.,-1.));
#1327=DIRECTION('ref_axis',(1.,0.,0.));
#1328=DIRECTION('center_axis',(0.,-1.,0.));
#1329=DIRECTION('ref_axis',(0.,0.,-1.));
#1330=DIRECTION('center_axis',(0.,-1.,0.));
#1331=DIRECTION('ref_axis',(-0.707106781186547,0.,-0.707106781186548));
#1332=DIRECTION('center_axis',(-1.,0.,0.));
#1333=DIRECTION('ref_axis',(0.,0.,1.));
#1334=DIRECTION('center_axis',(0.,1.,0.));
#1335=DIRECTION('ref_axis',(-0.707106781186547,0.,-0.707106781186548));
#1336=DIRECTION('center_axis',(0.,-1.,0.));
#1337=DIRECTION('ref_axis',(-1.,0.,0.));
#1338=DIRECTION('center_axis',(0.,1.,0.));
#1339=DIRECTION('ref_axis',(-1.,0.,0.));
#1340=DIRECTION('',(0.,1.,0.));
#1341=DIRECTION('center_axis',(-0.40824829046386,-0.816496580927729,-0.40824829046386));
#1342=DIRECTION('ref_axis',(0.577350269189629,-0.577350269189621,0.577350269189629));
#1343=DIRECTION('center_axis',(-4.44089209850062E-15,1.,0.));
#1344=DIRECTION('ref_axis',(0.,0.,1.));
#1345=DIRECTION('center_axis',(0.,0.,-1.));
#1346=DIRECTION('ref_axis',(0.707106781186546,-0.707106781186549,0.));
#1347=DIRECTION('center_axis',(0.,1.,0.));
#1348=DIRECTION('ref_axis',(0.707106781186544,0.,0.707106781186551));
#1349=DIRECTION('center_axis',(0.,1.,0.));
#1350=DIRECTION('ref_axis',(0.707106781186544,0.,0.707106781186551));
#1351=DIRECTION('',(0.,-1.,0.));
#1352=DIRECTION('center_axis',(0.,0.,1.));
#1353=DIRECTION('ref_axis',(0.707106781186546,-0.707106781186549,0.));
#1354=DIRECTION('',(0.,0.,-1.));
#1355=DIRECTION('center_axis',(0.,0.,1.));
#1356=DIRECTION('ref_axis',(0.707106781186546,-0.707106781186549,0.));
#1357=DIRECTION('',(0.,0.,1.));
#1358=DIRECTION('center_axis',(0.,-1.,0.));
#1359=DIRECTION('ref_axis',(0.707106781186544,0.,-0.707106781186551));
#1360=DIRECTION('center_axis',(0.,1.,0.));
#1361=DIRECTION('ref_axis',(0.707106781186544,0.,-0.707106781186551));
#1362=DIRECTION('',(0.,-1.,0.));
#1363=DIRECTION('center_axis',(4.44089209850062E-15,-1.,0.));
#1364=DIRECTION('ref_axis',(0.,0.,-1.));
#1365=DIRECTION('',(0.,1.,0.));
#1366=DIRECTION('center_axis',(-0.40824829046386,-0.816496580927729,0.40824829046386));
#1367=DIRECTION('ref_axis',(0.577350269189629,-0.577350269189622,-0.577350269189626));
#1368=DIRECTION('center_axis',(-1.,0.,0.));
#1369=DIRECTION('ref_axis',(0.,0.,-1.));
#1370=DIRECTION('center_axis',(0.,-1.,0.));
#1371=DIRECTION('ref_axis',(0.,0.,-1.));
#1372=DIRECTION('center_axis',(0.,-1.,0.));
#1373=DIRECTION('ref_axis',(-0.707106781186548,0.,0.707106781186547));
#1374=DIRECTION('center_axis',(0.,0.,1.));
#1375=DIRECTION('ref_axis',(1.,0.,0.));
#1376=DIRECTION('center_axis',(0.,1.,0.));
#1377=DIRECTION('ref_axis',(-0.707106781186548,0.,0.707106781186547));
#1378=DIRECTION('center_axis',(0.,-1.,0.));
#1379=DIRECTION('ref_axis',(-1.,0.,0.));
#1380=DIRECTION('center_axis',(0.,1.,0.));
#1381=DIRECTION('ref_axis',(-1.,0.,0.));
#1382=DIRECTION('',(0.,1.,0.));
#1383=DIRECTION('center_axis',(0.,1.,0.));
#1384=DIRECTION('ref_axis',(0.707106781186551,0.,-0.707106781186544));
#1385=DIRECTION('center_axis',(0.,-1.,-4.44089209850062E-15));
#1386=DIRECTION('ref_axis',(4.44089209850062E-15,4.44089209850062E-15,-1.));
#1387=DIRECTION('center_axis',(0.,1.,0.));
#1388=DIRECTION('ref_axis',(0.707106781186551,0.,-0.707106781186544));
#1389=DIRECTION('',(0.,-1.,0.));
#1390=DIRECTION('center_axis',(-0.408248290463867,0.408248290463859,-0.816496580927726));
#1391=DIRECTION('ref_axis',(0.577350269189631,-0.577350269189622,-0.577350269189624));
#1392=DIRECTION('center_axis',(-1.,0.,0.));
#1393=DIRECTION('ref_axis',(0.,-0.707106781186549,-0.707106781186546));
#1394=DIRECTION('center_axis',(1.,0.,0.));
#1395=DIRECTION('ref_axis',(0.,-0.707106781186549,-0.707106781186546));
#1396=DIRECTION('',(-1.,0.,0.));
#1397=DIRECTION('center_axis',(1.,0.,0.));
#1398=DIRECTION('ref_axis',(0.,-0.707106781186549,-0.707106781186546));
#1399=DIRECTION('',(1.,0.,0.));
#1400=DIRECTION('center_axis',(0.,0.,-1.));
#1401=DIRECTION('ref_axis',(1.,0.,0.));
#1402=DIRECTION('',(1.,0.,0.));
#1403=DIRECTION('',(0.,1.,0.));
#1404=DIRECTION('center_axis',(0.,-1.,0.));
#1405=DIRECTION('ref_axis',(-0.707106781186551,0.,-0.707106781186544));
#1406=DIRECTION('center_axis',(0.,1.,0.));
#1407=DIRECTION('ref_axis',(-0.707106781186551,0.,-0.707106781186544));
#1408=DIRECTION('',(0.,-1.,0.));
#1409=DIRECTION('center_axis',(0.,-1.,-4.44089209850062E-15));
#1410=DIRECTION('ref_axis',(-1.,0.,0.));
#1411=DIRECTION('center_axis',(0.40824829046386,-0.816496580927729,0.40824829046386));
#1412=DIRECTION('ref_axis',(-0.577350269189626,-0.577350269189622,-0.577350269189629));
#1413=DIRECTION('center_axis',(0.,0.,1.));
#1414=DIRECTION('ref_axis',(-1.,0.,0.));
#1415=DIRECTION('center_axis',(0.,-1.,0.));
#1416=DIRECTION('ref_axis',(0.,0.,-1.));
#1417=DIRECTION('center_axis',(0.,-1.,0.));
#1418=DIRECTION('ref_axis',(0.707106781186548,0.,0.707106781186547));
#1419=DIRECTION('center_axis',(1.,0.,0.));
#1420=DIRECTION('ref_axis',(0.,0.,-1.));
#1421=DIRECTION('center_axis',(0.,1.,0.));
#1422=DIRECTION('ref_axis',(0.707106781186548,0.,0.707106781186547));
#1423=DIRECTION('center_axis',(0.,-1.,0.));
#1424=DIRECTION('ref_axis',(-1.,0.,0.));
#1425=DIRECTION('center_axis',(0.,1.,0.));
#1426=DIRECTION('ref_axis',(-1.,0.,0.));
#1427=DIRECTION('',(0.,1.,0.));
#1428=DIRECTION('center_axis',(0.,1.,0.));
#1429=DIRECTION('ref_axis',(-0.707106781186544,0.,-0.707106781186551));
#1430=DIRECTION('center_axis',(-4.44089209850062E-15,-1.,0.));
#1431=DIRECTION('ref_axis',(-1.,4.44089209850062E-15,0.));
#1432=DIRECTION('center_axis',(0.,1.,0.));
#1433=DIRECTION('ref_axis',(-0.707106781186544,0.,-0.707106781186551));
#1434=DIRECTION('',(0.,-1.,0.));
#1435=DIRECTION('center_axis',(0.40824829046386,-0.816496580927729,0.40824829046386));
#1436=DIRECTION('ref_axis',(-0.577350269189629,-0.577350269189622,-0.577350269189626));
#1437=DIRECTION('center_axis',(0.,0.,1.));
#1438=DIRECTION('ref_axis',(-0.707106781186546,-0.707106781186549,0.));
#1439=DIRECTION('center_axis',(0.,0.,-1.));
#1440=DIRECTION('ref_axis',(-0.707106781186546,-0.707106781186549,0.));
#1441=DIRECTION('',(0.,0.,-1.));
#1442=DIRECTION('',(0.,0.,1.));
#1443=DIRECTION('center_axis',(-1.,0.,0.));
#1444=DIRECTION('ref_axis',(0.,0.,-1.));
#1445=DIRECTION('',(0.,0.,-1.));
#1446=DIRECTION('center_axis',(1.,0.,0.));
#1447=DIRECTION('ref_axis',(0.,0.,1.));
#1448=DIRECTION('',(0.,0.,1.));
#1449=DIRECTION('center_axis',(1.,0.,0.));
#1450=DIRECTION('ref_axis',(0.,0.,-1.));
#1451=DIRECTION('',(0.,1.,0.));
#1452=DIRECTION('center_axis',(1.,0.,0.));
#1453=DIRECTION('ref_axis',(0.,0.,-1.));
#1454=DIRECTION('',(0.,0.999999999999996,9.12330134899888E-8));
#1455=DIRECTION('center_axis',(1.,0.,0.));
#1456=DIRECTION('ref_axis',(0.,0.,-1.));
#1457=DIRECTION('',(0.,1.,-1.60246890531964E-16));
#1458=DIRECTION('center_axis',(0.,-1.,0.));
#1459=DIRECTION('ref_axis',(0.,0.,-1.));
#1460=DIRECTION('center_axis',(0.,-1.,0.));
#1461=DIRECTION('ref_axis',(1.,0.,0.));
#1462=DIRECTION('center_axis',(0.,1.,0.));
#1463=DIRECTION('ref_axis',(1.,0.,0.));
#1464=DIRECTION('center_axis',(0.,1.,0.));
#1465=DIRECTION('ref_axis',(1.,0.,0.));
#1466=DIRECTION('',(0.,1.,0.));
#1467=DIRECTION('center_axis',(0.40824829046386,-0.816496580927729,0.40824829046386));
#1468=DIRECTION('ref_axis',(-0.577350269189623,-0.577350269189625,-0.57735026918963));
#1469=DIRECTION('center_axis',(0.,-1.,0.));
#1470=DIRECTION('ref_axis',(0.,0.,-1.));
#1471=DIRECTION('center_axis',(-1.,0.,0.));
#1472=DIRECTION('ref_axis',(0.,-1.,0.));
#1473=DIRECTION('center_axis',(0.,-4.44089209850063E-15,-1.));
#1474=DIRECTION('ref_axis',(-1.,0.,0.));
#1475=DIRECTION('center_axis',(-0.40824829046386,-0.816496580927729,0.40824829046386));
#1476=DIRECTION('ref_axis',(0.577350269189623,-0.577350269189624,-0.577350269189631));
#1477=DIRECTION('center_axis',(0.,-1.,0.));
#1478=DIRECTION('ref_axis',(1.,0.,0.));
#1479=DIRECTION('center_axis',(0.,0.,-1.));
#1480=DIRECTION('ref_axis',(0.,-1.,0.));
#1481=DIRECTION('center_axis',(1.,-4.44089209850063E-15,0.));
#1482=DIRECTION('ref_axis',(0.,0.,-1.));
#1483=DIRECTION('center_axis',(-0.408248290463859,-0.408248290463857,-0.816496580927731));
#1484=DIRECTION('ref_axis',(-0.577350269189629,-0.577350269189627,0.577350269189622));
#1485=DIRECTION('center_axis',(0.,-1.,0.));
#1486=DIRECTION('ref_axis',(-1.,0.,0.));
#1487=DIRECTION('center_axis',(0.,0.,1.));
#1488=DIRECTION('ref_axis',(0.,-1.,0.));
#1489=DIRECTION('center_axis',(-1.,-4.44089209850063E-15,0.));
#1490=DIRECTION('ref_axis',(0.,0.,1.));
#1491=DIRECTION('center_axis',(0.,0.,1.));
#1492=DIRECTION('ref_axis',(-0.707106781186549,-0.707106781186546,0.));
#1493=DIRECTION('',(0.,0.,-1.));
#1494=DIRECTION('',(0.,0.,1.));
#1495=DIRECTION('center_axis',(-0.408248290463859,-0.816496580927727,-0.408248290463866));
#1496=DIRECTION('ref_axis',(0.577350269189623,-0.577350269189625,0.57735026918963));
#1497=DIRECTION('center_axis',(1.,0.,0.));
#1498=DIRECTION('ref_axis',(0.,-1.,0.));
#1499=DIRECTION('center_axis',(0.,4.44089209850063E-15,1.));
#1500=DIRECTION('ref_axis',(1.,0.,0.));
#1501=DIRECTION('center_axis',(0.,-1.,0.));
#1502=DIRECTION('ref_axis',(0.,0.,1.));
#1503=DIRECTION('center_axis',(0.,0.,-1.));
#1504=DIRECTION('ref_axis',(0.707106781186549,-0.707106781186546,0.));
#1505=DIRECTION('',(0.,0.,1.));
#1506=DIRECTION('',(0.,0.,-1.));
#1507=DIRECTION('center_axis',(0.,1.,0.));
#1508=DIRECTION('ref_axis',(0.707106781186548,0.,0.707106781186548));
#1509=DIRECTION('center_axis',(0.,-1.,0.));
#1510=DIRECTION('ref_axis',(0.707106781186548,0.,0.707106781186548));
#1511=DIRECTION('',(0.,-1.,0.));
#1512=DIRECTION('',(0.,1.,0.));
#1513=DIRECTION('center_axis',(1.,0.,1.11022302462516E-16));
#1514=DIRECTION('ref_axis',(0.,-0.707106781186549,0.707106781186546));
#1515=DIRECTION('',(-1.,0.,-1.11022302462516E-16));
#1516=DIRECTION('',(1.,0.,1.11022302462516E-16));
#1517=DIRECTION('center_axis',(0.,1.,0.));
#1518=DIRECTION('ref_axis',(-0.707106781186548,0.,0.707106781186548));
#1519=DIRECTION('center_axis',(0.,-1.,0.));
#1520=DIRECTION('ref_axis',(-0.707106781186548,0.,0.707106781186548));
#1521=DIRECTION('',(0.,-1.,0.));
#1522=DIRECTION('',(0.,1.,0.));
#1523=DIRECTION('center_axis',(-1.,0.,0.));
#1524=DIRECTION('ref_axis',(0.,-0.707106781186546,-0.707106781186549));
#1525=DIRECTION('',(1.,0.,0.));
#1526=DIRECTION('',(-1.,0.,0.));
#1527=DIRECTION('center_axis',(0.,1.,0.));
#1528=DIRECTION('ref_axis',(0.707106781186544,0.,-0.707106781186551));
#1529=DIRECTION('center_axis',(0.,-1.,0.));
#1530=DIRECTION('ref_axis',(0.707106781186544,0.,-0.707106781186551));
#1531=DIRECTION('',(0.,-1.,0.));
#1532=DIRECTION('',(0.,1.,0.));
#1533=DIRECTION('center_axis',(0.,1.,0.));
#1534=DIRECTION('ref_axis',(-0.707106781186551,0.,-0.707106781186544));
#1535=DIRECTION('center_axis',(0.,-1.,0.));
#1536=DIRECTION('ref_axis',(-0.707106781186551,0.,-0.707106781186544));
#1537=DIRECTION('',(0.,-1.,0.));
#1538=DIRECTION('',(0.,1.,0.));
#1539=DIRECTION('center_axis',(1.,0.,0.));
#1540=DIRECTION('ref_axis',(0.,0.,-1.));
#1541=DIRECTION('',(0.,0.,-1.));
#1542=DIRECTION('center_axis',(-1.,0.,0.));
#1543=DIRECTION('ref_axis',(0.,0.,-1.));
#1544=DIRECTION('center_axis',(-1.,0.,0.));
#1545=DIRECTION('ref_axis',(0.,0.,-1.));
#1546=DIRECTION('center_axis',(-1.,0.,0.));
#1547=DIRECTION('ref_axis',(0.,0.,-1.));
#1548=DIRECTION('center_axis',(0.,1.,0.));
#1549=DIRECTION('ref_axis',(0.,0.,1.));
#1550=DIRECTION('',(-1.,0.,0.));
#1551=DIRECTION('',(0.,0.,1.));
#1552=DIRECTION('',(1.,0.,1.11022302462516E-16));
#1553=DIRECTION('center_axis',(0.,-1.,0.));
#1554=DIRECTION('ref_axis',(-1.,0.,0.));
#1555=DIRECTION('center_axis',(0.,-1.,0.));
#1556=DIRECTION('ref_axis',(-1.,0.,0.));
#1557=DIRECTION('center_axis',(0.,-1.,0.));
#1558=DIRECTION('ref_axis',(-1.,0.,0.));
#1559=DIRECTION('center_axis',(0.,-1.,0.));
#1560=DIRECTION('ref_axis',(-1.,0.,0.));
#1561=DIRECTION('center_axis',(0.,0.,-1.));
#1562=DIRECTION('ref_axis',(-1.,0.,0.));
#1563=DIRECTION('center_axis',(0.,1.,0.));
#1564=DIRECTION('ref_axis',(1.,0.,0.));
#1565=DIRECTION('center_axis',(-1.,0.,0.));
#1566=DIRECTION('ref_axis',(0.,-1.22464679914735E-16,1.));
#1567=DIRECTION('center_axis',(1.,0.,1.11022302462516E-16));
#1568=DIRECTION('ref_axis',(1.11022302462516E-16,0.,-1.));
#1569=DIRECTION('',(-1.,0.,0.));
#1570=DIRECTION('',(-1.,0.,0.));
#1571=DIRECTION('center_axis',(0.,-1.60246890531964E-16,-1.));
#1572=DIRECTION('ref_axis',(0.,-1.,1.60246890531964E-16));
#1573=DIRECTION('',(1.77909787493173E-32,1.,-1.60246890531964E-16));
#1574=DIRECTION('center_axis',(-1.,0.,0.));
#1575=DIRECTION('ref_axis',(0.,-9.12330137107301E-8,0.999999999999996));
#1576=DIRECTION('center_axis',(1.,0.,1.11022302462516E-16));
#1577=DIRECTION('ref_axis',(1.11022302462516E-16,0.,-1.));
#1578=DIRECTION('',(-1.,0.,0.));
#1579=DIRECTION('',(-1.,0.,0.));
#1580=DIRECTION('center_axis',(0.,9.12330134899889E-8,-0.999999999999996));
#1581=DIRECTION('ref_axis',(0.,-0.999999999999996,-9.12330134899888E-8));
#1582=DIRECTION('',(-1.01288992182523E-23,0.999999999999996,9.12330134899888E-8));
#1583=DIRECTION('center_axis',(-1.,0.,0.));
#1584=DIRECTION('ref_axis',(0.,-1.22464679914735E-16,1.));
#1585=DIRECTION('center_axis',(1.,0.,1.11022302462516E-16));
#1586=DIRECTION('ref_axis',(1.11022302462516E-16,0.,-1.));
#1587=DIRECTION('',(-1.,0.,0.));
#1588=DIRECTION('',(-1.,0.,0.));
#1589=DIRECTION('center_axis',(0.,0.,-1.));
#1590=DIRECTION('ref_axis',(0.,-1.,0.));
#1591=DIRECTION('',(0.,1.,0.));
#1592=DIRECTION('center_axis',(-1.,0.,0.));
#1593=DIRECTION('ref_axis',(0.,0.,-1.));
#1594=DIRECTION('',(-1.,0.,0.));
#1595=DIRECTION('center_axis',(-1.,0.,-1.11022302462516E-16));
#1596=DIRECTION('ref_axis',(1.11022302462516E-16,0.,-1.));
#1597=DIRECTION('center_axis',(1.,0.,1.11022302462516E-16));
#1598=DIRECTION('ref_axis',(1.11022302462516E-16,0.,-1.));
#1599=DIRECTION('center_axis',(-1.,0.,0.));
#1600=DIRECTION('ref_axis',(0.,0.,-1.));
#1601=DIRECTION('',(-1.,0.,0.));
#1602=DIRECTION('center_axis',(-1.,0.,-1.11022302462516E-16));
#1603=DIRECTION('ref_axis',(1.11022302462516E-16,0.,-1.));
#1604=DIRECTION('center_axis',(1.,0.,1.11022302462516E-16));
#1605=DIRECTION('ref_axis',(1.11022302462516E-16,0.,-1.));
#1606=DIRECTION('center_axis',(-1.,0.,0.));
#1607=DIRECTION('ref_axis',(0.,0.,-1.));
#1608=DIRECTION('',(-1.,0.,0.));
#1609=DIRECTION('center_axis',(-1.,0.,-1.11022302462516E-16));
#1610=DIRECTION('ref_axis',(1.11022302462516E-16,0.,-1.));
#1611=DIRECTION('center_axis',(1.,0.,1.11022302462516E-16));
#1612=DIRECTION('ref_axis',(1.11022302462516E-16,0.,-1.));
#1613=DIRECTION('center_axis',(0.,-1.,0.));
#1614=DIRECTION('ref_axis',(-1.,0.,0.));
#1615=DIRECTION('',(0.,-1.,0.));
#1616=DIRECTION('center_axis',(0.,-1.,0.));
#1617=DIRECTION('ref_axis',(-1.,0.,0.));
#1618=DIRECTION('center_axis',(0.,1.,0.));
#1619=DIRECTION('ref_axis',(-1.,0.,0.));
#1620=DIRECTION('center_axis',(0.,-1.,0.));
#1621=DIRECTION('ref_axis',(-1.,0.,0.));
#1622=DIRECTION('',(0.,-1.,0.));
#1623=DIRECTION('center_axis',(0.,-1.,0.));
#1624=DIRECTION('ref_axis',(-1.,0.,0.));
#1625=DIRECTION('center_axis',(0.,1.,0.));
#1626=DIRECTION('ref_axis',(-1.,0.,0.));
#1627=DIRECTION('center_axis',(0.,-1.,0.));
#1628=DIRECTION('ref_axis',(-1.,0.,0.));
#1629=DIRECTION('',(0.,-1.,0.));
#1630=DIRECTION('center_axis',(0.,-1.,0.));
#1631=DIRECTION('ref_axis',(-1.,0.,0.));
#1632=DIRECTION('center_axis',(0.,1.,0.));
#1633=DIRECTION('ref_axis',(-1.,0.,0.));
#1634=DIRECTION('center_axis',(0.,-1.,0.));
#1635=DIRECTION('ref_axis',(-1.,0.,0.));
#1636=DIRECTION('',(0.,-1.,0.));
#1637=DIRECTION('center_axis',(0.,-1.,0.));
#1638=DIRECTION('ref_axis',(-1.,0.,0.));
#1639=DIRECTION('center_axis',(0.,1.,0.));
#1640=DIRECTION('ref_axis',(-1.,0.,0.));
#1641=DIRECTION('center_axis',(-1.11022302462516E-16,0.,1.));
#1642=DIRECTION('ref_axis',(1.,0.,1.11022302462516E-16));
#1643=DIRECTION('center_axis',(-1.,0.,0.));
#1644=DIRECTION('ref_axis',(0.,0.,1.));
#1645=DIRECTION('',(0.,0.,1.));
#1646=DIRECTION('',(1.,0.,0.));
#1647=CARTESIAN_POINT('',(0.,0.,0.));
#1648=CARTESIAN_POINT('',(0.,0.,0.));
#1649=CARTESIAN_POINT('Origin',(-35.,60.,29.));
#1650=CARTESIAN_POINT('',(-36.,60.,29.));
#1651=CARTESIAN_POINT('',(-35.,60.,30.));
#1652=CARTESIAN_POINT('Origin',(-35.,60.,29.));
#1653=CARTESIAN_POINT('',(-35.,5.,30.));
#1654=CARTESIAN_POINT('',(-35.,60.,30.));
#1655=CARTESIAN_POINT('',(-36.,5.,29.));
#1656=CARTESIAN_POINT('Origin',(-35.,5.,29.));
#1657=CARTESIAN_POINT('',(-36.,60.,29.));
#1658=CARTESIAN_POINT('Origin',(-35.,5.,29.));
#1659=CARTESIAN_POINT('',(-35.,4.,29.));
#1660=CARTESIAN_POINT('Origin',(-35.,5.,29.));
#1661=CARTESIAN_POINT('Origin',(-35.,5.,29.));
#1662=CARTESIAN_POINT('Origin',(-35.,5.,35.));
#1663=CARTESIAN_POINT('',(-30.,5.,35.));
#1664=CARTESIAN_POINT('Origin',(-35.,5.,35.));
#1665=CARTESIAN_POINT('',(-29.,4.,35.));
#1666=CARTESIAN_POINT('Origin',(-29.,5.,35.));
#1667=CARTESIAN_POINT('Origin',(-35.,4.,35.));
#1668=CARTESIAN_POINT('Origin',(-35.,60.,35.));
#1669=CARTESIAN_POINT('',(-30.,60.,35.));
#1670=CARTESIAN_POINT('Origin',(-35.,60.,35.));
#1671=CARTESIAN_POINT('',(-30.,60.,35.));
#1672=CARTESIAN_POINT('Origin',(-29.,60.,35.));
#1673=CARTESIAN_POINT('',(-29.,5.,36.));
#1674=CARTESIAN_POINT('Origin',(-29.,5.,35.));
#1675=CARTESIAN_POINT('',(-29.,60.,36.));
#1676=CARTESIAN_POINT('Origin',(-29.,60.,35.));
#1677=CARTESIAN_POINT('',(-29.,60.,36.));
#1678=CARTESIAN_POINT('Origin',(-29.,5.,35.));
#1679=CARTESIAN_POINT('Origin',(-29.,5.,35.));
#1680=CARTESIAN_POINT('Origin',(18.,5.,35.));
#1681=CARTESIAN_POINT('',(29.,5.,36.));
#1682=CARTESIAN_POINT('',(18.,5.,36.));
#1683=CARTESIAN_POINT('',(29.,4.,35.));
#1684=CARTESIAN_POINT('Origin',(29.,5.,35.));
#1685=CARTESIAN_POINT('',(18.,4.,35.));
#1686=CARTESIAN_POINT('Origin',(36.,60.,36.));
#1687=CARTESIAN_POINT('',(29.,60.,36.));
#1688=CARTESIAN_POINT('',(18.,60.,36.));
#1689=CARTESIAN_POINT('',(29.,60.,36.));
#1690=CARTESIAN_POINT('Origin',(29.,60.,35.));
#1691=CARTESIAN_POINT('',(30.,60.,35.));
#1692=CARTESIAN_POINT('Origin',(29.,60.,35.));
#1693=CARTESIAN_POINT('',(30.,5.,35.));
#1694=CARTESIAN_POINT('',(30.,60.,35.));
#1695=CARTESIAN_POINT('Origin',(29.,5.,35.));
#1696=CARTESIAN_POINT('Origin',(29.,5.,35.));
#1697=CARTESIAN_POINT('Origin',(29.,5.,35.));
#1698=CARTESIAN_POINT('Origin',(35.,5.,35.));
#1699=CARTESIAN_POINT('',(35.,5.,30.));
#1700=CARTESIAN_POINT('Origin',(35.,5.,35.));
#1701=CARTESIAN_POINT('',(35.,4.,29.));
#1702=CARTESIAN_POINT('Origin',(35.,5.,29.));
#1703=CARTESIAN_POINT('Origin',(35.,4.,35.));
#1704=CARTESIAN_POINT('Origin',(35.,60.,35.));
#1705=CARTESIAN_POINT('',(35.,60.,30.));
#1706=CARTESIAN_POINT('Origin',(35.,60.,35.));
#1707=CARTESIAN_POINT('',(35.,60.,30.));
#1708=CARTESIAN_POINT('Origin',(35.,5.,29.));
#1709=CARTESIAN_POINT('',(36.,5.,29.));
#1710=CARTESIAN_POINT('Origin',(35.,5.,29.));
#1711=CARTESIAN_POINT('Origin',(35.,5.,29.));
#1712=CARTESIAN_POINT('Origin',(35.,60.,29.));
#1713=CARTESIAN_POINT('',(36.,60.,29.));
#1714=CARTESIAN_POINT('Origin',(35.,60.,29.));
#1715=CARTESIAN_POINT('',(36.,60.,29.));
#1716=CARTESIAN_POINT('Origin',(35.,5.,-18.));
#1717=CARTESIAN_POINT('',(36.,5.,-29.));
#1718=CARTESIAN_POINT('',(36.,5.,-18.));
#1719=CARTESIAN_POINT('',(35.,4.,-29.));
#1720=CARTESIAN_POINT('Origin',(35.,5.,-29.));
#1721=CARTESIAN_POINT('',(35.,4.,-18.));
#1722=CARTESIAN_POINT('Origin',(35.,60.,-29.));
#1723=CARTESIAN_POINT('',(36.,60.,-29.));
#1724=CARTESIAN_POINT('',(35.,60.,-30.));
#1725=CARTESIAN_POINT('Origin',(35.,60.,-29.));
#1726=CARTESIAN_POINT('',(35.,5.,-30.));
#1727=CARTESIAN_POINT('',(35.,60.,-30.));
#1728=CARTESIAN_POINT('Origin',(35.,5.,-29.));
#1729=CARTESIAN_POINT('',(36.,60.,-29.));
#1730=CARTESIAN_POINT('Origin',(35.,5.,-29.));
#1731=CARTESIAN_POINT('Origin',(35.,5.,-29.));
#1732=CARTESIAN_POINT('Origin',(35.,5.,-35.));
#1733=CARTESIAN_POINT('',(30.,5.,-35.));
#1734=CARTESIAN_POINT('Origin',(35.,5.,-35.));
#1735=CARTESIAN_POINT('',(29.,4.,-35.));
#1736=CARTESIAN_POINT('Origin',(29.,5.,-35.));
#1737=CARTESIAN_POINT('Origin',(35.,4.,-35.));
#1738=CARTESIAN_POINT('Origin',(35.,60.,-35.));
#1739=CARTESIAN_POINT('',(30.,60.,-35.));
#1740=CARTESIAN_POINT('Origin',(35.,60.,-35.));
#1741=CARTESIAN_POINT('',(30.,60.,-35.));
#1742=CARTESIAN_POINT('Origin',(29.,60.,-35.));
#1743=CARTESIAN_POINT('',(29.,5.,-36.));
#1744=CARTESIAN_POINT('Origin',(29.,5.,-35.));
#1745=CARTESIAN_POINT('',(29.,60.,-36.));
#1746=CARTESIAN_POINT('Origin',(29.,60.,-35.));
#1747=CARTESIAN_POINT('',(29.,60.,-36.));
#1748=CARTESIAN_POINT('Origin',(29.,5.,-35.));
#1749=CARTESIAN_POINT('Origin',(29.,5.,-35.));
#1750=CARTESIAN_POINT('Origin',(-18.,5.,-35.));
#1751=CARTESIAN_POINT('',(-29.,5.,-36.));
#1752=CARTESIAN_POINT('',(-18.,5.,-36.));
#1753=CARTESIAN_POINT('',(-29.,4.,-35.));
#1754=CARTESIAN_POINT('Origin',(-29.,5.,-35.));
#1755=CARTESIAN_POINT('',(-18.,4.,-35.));
#1756=CARTESIAN_POINT('Origin',(-36.,60.,-36.));
#1757=CARTESIAN_POINT('',(-29.,60.,-36.));
#1758=CARTESIAN_POINT('',(-18.,60.,-36.));
#1759=CARTESIAN_POINT('',(-29.,60.,-36.));
#1760=CARTESIAN_POINT('Origin',(-29.,60.,-35.));
#1761=CARTESIAN_POINT('',(-30.,60.,-35.));
#1762=CARTESIAN_POINT('Origin',(-29.,60.,-35.));
#1763=CARTESIAN_POINT('',(-30.,5.,-35.));
#1764=CARTESIAN_POINT('',(-30.,60.,-35.));
#1765=CARTESIAN_POINT('Origin',(-29.,5.,-35.));
#1766=CARTESIAN_POINT('Origin',(-29.,5.,-35.));
#1767=CARTESIAN_POINT('Origin',(-29.,5.,-35.));
#1768=CARTESIAN_POINT('Origin',(-35.,5.,-35.));
#1769=CARTESIAN_POINT('',(-35.,5.,-30.));
#1770=CARTESIAN_POINT('Origin',(-35.,5.,-35.));
#1771=CARTESIAN_POINT('',(-35.,4.,-29.));
#1772=CARTESIAN_POINT('Origin',(-35.,5.,-29.));
#1773=CARTESIAN_POINT('Origin',(-35.,4.,-35.));
#1774=CARTESIAN_POINT('Origin',(-35.,60.,-35.));
#1775=CARTESIAN_POINT('',(-35.,60.,-30.));
#1776=CARTESIAN_POINT('Origin',(-35.,60.,-35.));
#1777=CARTESIAN_POINT('',(-35.,60.,-30.));
#1778=CARTESIAN_POINT('Origin',(-35.,60.,-29.));
#1779=CARTESIAN_POINT('',(-36.,5.,-29.));
#1780=CARTESIAN_POINT('Origin',(-35.,5.,-29.));
#1781=CARTESIAN_POINT('',(-36.,60.,-29.));
#1782=CARTESIAN_POINT('Origin',(-35.,60.,-29.));
#1783=CARTESIAN_POINT('',(-36.,60.,-29.));
#1784=CARTESIAN_POINT('Origin',(-35.,5.,-29.));
#1785=CARTESIAN_POINT('Origin',(-35.,5.,-29.));
#1786=CARTESIAN_POINT('Origin',(-35.,5.,18.));
#1787=CARTESIAN_POINT('',(-35.,4.,18.));
#1788=CARTESIAN_POINT('',(-36.,5.,18.));
#1789=CARTESIAN_POINT('Origin',(-36.,60.,36.));
#1790=CARTESIAN_POINT('',(-36.,60.,18.));
#1791=CARTESIAN_POINT('Origin',(36.,60.,-36.));
#1792=CARTESIAN_POINT('',(36.,60.,-18.));
#1793=CARTESIAN_POINT('',(36.,31.7320508075689,-23.5178328813019));
#1794=CARTESIAN_POINT('',(36.,28.2679491924311,-23.5178328813019));
#1795=CARTESIAN_POINT('Origin',(36.,30.,-20.7678328813019));
#1796=CARTESIAN_POINT('',(36.,45.8660254037844,-23.5178328813019));
#1797=CARTESIAN_POINT('',(36.,31.7320510584471,16.4821672767104));
#1798=CARTESIAN_POINT('',(36.,28.2679494433344,16.48216696067));
#1799=CARTESIAN_POINT('Origin',(36.,30.,19.2321671186981));
#1800=CARTESIAN_POINT('',(36.,45.8660231351703,16.4821685661953));
#1801=CARTESIAN_POINT('',(36.,31.7320508075689,-3.51783288130193));
#1802=CARTESIAN_POINT('',(36.,28.2679491924311,-3.51783288130193));
#1803=CARTESIAN_POINT('Origin',(36.,30.,-0.767832881301934));
#1804=CARTESIAN_POINT('',(36.,45.8660254037844,-3.51783288130193));
#1805=CARTESIAN_POINT('Origin',(0.,4.,4.44089209850063E-15));
#1806=CARTESIAN_POINT('',(-26.5,4.,-2.02066721859313E-15));
#1807=CARTESIAN_POINT('Origin',(-20.,4.,-1.22464679914735E-15));
#1808=CARTESIAN_POINT('Origin',(-20.,0.,-1.22464679914735E-15));
#1809=CARTESIAN_POINT('',(-26.5,0.,-2.02066721859313E-15));
#1810=CARTESIAN_POINT('Origin',(-20.,0.,-1.22464679914735E-15));
#1811=CARTESIAN_POINT('',(-26.5,0.,-4.28626379701574E-16));
#1812=CARTESIAN_POINT('Origin',(-39.,1.,-39.));
#1813=CARTESIAN_POINT('',(-39.,1.,-40.));
#1814=CARTESIAN_POINT('',(-40.,1.,-39.));
#1815=CARTESIAN_POINT('Origin',(-39.,1.,-39.));
#1816=CARTESIAN_POINT('',(-39.,0.,-39.));
#1817=CARTESIAN_POINT('Origin',(-39.,1.,-39.));
#1818=CARTESIAN_POINT('Origin',(-39.,1.,-39.));
#1819=CARTESIAN_POINT('Origin',(39.,1.,-39.));
#1820=CARTESIAN_POINT('',(40.,1.,-39.));
#1821=CARTESIAN_POINT('',(39.,1.,-40.));
#1822=CARTESIAN_POINT('Origin',(39.,1.,-39.));
#1823=CARTESIAN_POINT('',(39.,0.,-39.));
#1824=CARTESIAN_POINT('Origin',(39.,1.,-39.));
#1825=CARTESIAN_POINT('Origin',(39.,1.,-39.));
#1826=CARTESIAN_POINT('Origin',(-39.,1.,39.));
#1827=CARTESIAN_POINT('',(-40.,1.,39.));
#1828=CARTESIAN_POINT('',(-39.,1.,40.));
#1829=CARTESIAN_POINT('Origin',(-39.,1.,39.));
#1830=CARTESIAN_POINT('',(-39.,0.,39.));
#1831=CARTESIAN_POINT('Origin',(-39.,1.,39.));
#1832=CARTESIAN_POINT('Origin',(-39.,1.,39.));
#1833=CARTESIAN_POINT('Origin',(-39.,1.,-20.));
#1834=CARTESIAN_POINT('',(-40.,1.,-20.));
#1835=CARTESIAN_POINT('',(-39.,0.,-20.));
#1836=CARTESIAN_POINT('Origin',(39.,1.,39.));
#1837=CARTESIAN_POINT('',(39.,0.,39.));
#1838=CARTESIAN_POINT('',(39.,1.,40.));
#1839=CARTESIAN_POINT('Origin',(39.,1.,39.));
#1840=CARTESIAN_POINT('',(40.,1.,39.));
#1841=CARTESIAN_POINT('Origin',(39.,1.,39.));
#1842=CARTESIAN_POINT('Origin',(39.,1.,39.));
#1843=CARTESIAN_POINT('Origin',(39.,1.,20.));
#1844=CARTESIAN_POINT('',(40.,1.,20.));
#1845=CARTESIAN_POINT('',(39.,0.,20.));
#1846=CARTESIAN_POINT('Origin',(39.,0.,39.));
#1847=CARTESIAN_POINT('',(40.,60.,39.));
#1848=CARTESIAN_POINT('',(39.,60.,40.));
#1849=CARTESIAN_POINT('Origin',(39.,60.,39.));
#1850=CARTESIAN_POINT('',(39.,0.,40.));
#1851=CARTESIAN_POINT('',(40.,0.,39.));
#1852=CARTESIAN_POINT('Origin',(-20.,1.,39.));
#1853=CARTESIAN_POINT('',(-20.,1.,40.));
#1854=CARTESIAN_POINT('',(-20.,0.,39.));
#1855=CARTESIAN_POINT('Origin',(-39.,0.,39.));
#1856=CARTESIAN_POINT('',(-39.,60.,40.));
#1857=CARTESIAN_POINT('',(-40.,60.,39.));
#1858=CARTESIAN_POINT('Origin',(-39.,60.,39.));
#1859=CARTESIAN_POINT('',(-40.,0.,39.));
#1860=CARTESIAN_POINT('',(-39.,0.,40.));
#1861=CARTESIAN_POINT('Origin',(20.,1.,-39.));
#1862=CARTESIAN_POINT('',(20.,1.,-40.));
#1863=CARTESIAN_POINT('',(20.,0.,-39.));
#1864=CARTESIAN_POINT('Origin',(39.,0.,-39.));
#1865=CARTESIAN_POINT('',(39.,60.,-40.));
#1866=CARTESIAN_POINT('',(40.,60.,-39.));
#1867=CARTESIAN_POINT('Origin',(39.,60.,-39.));
#1868=CARTESIAN_POINT('',(40.,0.,-39.));
#1869=CARTESIAN_POINT('',(39.,0.,-40.));
#1870=CARTESIAN_POINT('Origin',(-39.,0.,-39.));
#1871=CARTESIAN_POINT('',(-40.,60.,-39.));
#1872=CARTESIAN_POINT('',(-39.,60.,-40.));
#1873=CARTESIAN_POINT('Origin',(-39.,60.,-39.));
#1874=CARTESIAN_POINT('',(-39.,0.,-40.));
#1875=CARTESIAN_POINT('',(-40.,0.,-39.));
#1876=CARTESIAN_POINT('Origin',(40.,0.,40.));
#1877=CARTESIAN_POINT('',(40.,60.,40.));
#1878=CARTESIAN_POINT('',(40.,30.,24.4821671186981));
#1879=CARTESIAN_POINT('Origin',(40.,30.,19.2321671186981));
#1880=CARTESIAN_POINT('',(40.,30.,4.48216711869807));
#1881=CARTESIAN_POINT('Origin',(40.,30.,-0.767832881301934));
#1882=CARTESIAN_POINT('',(40.,30.,-15.5178328813019));
#1883=CARTESIAN_POINT('Origin',(40.,30.,-20.7678328813019));
#1884=CARTESIAN_POINT('Origin',(-8.88178419700125E-15,60.,8.88178419700125E-15));
#1885=CARTESIAN_POINT('',(40.,60.,-40.));
#1886=CARTESIAN_POINT('',(-40.,60.,-40.));
#1887=CARTESIAN_POINT('',(-40.,60.,40.));
#1888=CARTESIAN_POINT('',(-33.5,60.,-35.));
#1889=CARTESIAN_POINT('Origin',(-35.,60.,-35.));
#1890=CARTESIAN_POINT('',(-33.5,60.,35.));
#1891=CARTESIAN_POINT('Origin',(-35.,60.,35.));
#1892=CARTESIAN_POINT('',(36.5,60.,-35.));
#1893=CARTESIAN_POINT('Origin',(35.,60.,-35.));
#1894=CARTESIAN_POINT('',(36.5,60.,35.));
#1895=CARTESIAN_POINT('Origin',(35.,60.,35.));
#1896=CARTESIAN_POINT('Origin',(40.,0.,-40.));
#1897=CARTESIAN_POINT('Origin',(-8.88178419700125E-15,0.,8.88178419700125E-15));
#1898=CARTESIAN_POINT('Origin',(40.,30.,-0.767832881301934));
#1899=CARTESIAN_POINT('',(39.,31.7320508075689,-3.51783288130193));
#1900=CARTESIAN_POINT('',(39.,28.2679491924311,-3.51783288130193));
#1901=CARTESIAN_POINT('Origin',(39.,30.,-0.767832881301934));
#1902=CARTESIAN_POINT('',(40.,28.2679491924311,-3.51783288130193));
#1903=CARTESIAN_POINT('',(40.,31.7320508075689,-3.51783288130193));
#1904=CARTESIAN_POINT('Origin',(40.,31.7320508075689,-3.51783288130193));
#1905=CARTESIAN_POINT('',(39.,31.7320508075689,-3.51783288130193));
#1906=CARTESIAN_POINT('Origin',(40.,30.,19.2321671186981));
#1907=CARTESIAN_POINT('',(39.,31.7320510584471,16.4821672767104));
#1908=CARTESIAN_POINT('',(39.,28.2679494433344,16.48216696067));
#1909=CARTESIAN_POINT('Origin',(39.,30.,19.2321671186981));
#1910=CARTESIAN_POINT('',(40.,28.2679494433344,16.48216696067));
#1911=CARTESIAN_POINT('',(40.,31.7320510584471,16.4821672767104));
#1912=CARTESIAN_POINT('Origin',(40.,31.7320510584471,16.4821672767104));
#1913=CARTESIAN_POINT('',(39.,31.7320510584471,16.4821672767104));
#1914=CARTESIAN_POINT('Origin',(40.,30.,-20.7678328813019));
#1915=CARTESIAN_POINT('',(39.,31.7320508075689,-23.5178328813019));
#1916=CARTESIAN_POINT('',(39.,28.2679491924311,-23.5178328813019));
#1917=CARTESIAN_POINT('Origin',(39.,30.,-20.7678328813019));
#1918=CARTESIAN_POINT('',(40.,28.2679491924311,-23.5178328813019));
#1919=CARTESIAN_POINT('',(40.,31.7320508075689,-23.5178328813019));
#1920=CARTESIAN_POINT('Origin',(40.,31.7320508075689,-23.5178328813019));
#1921=CARTESIAN_POINT('',(39.,31.7320508075689,-23.5178328813019));
#1922=CARTESIAN_POINT('Origin',(40.,30.,19.2321671186981));
#1923=CARTESIAN_POINT('',(39.,30.,24.4821671186981));
#1924=CARTESIAN_POINT('',(40.,30.,24.4821671186981));
#1925=CARTESIAN_POINT('Origin',(39.,30.,19.2321671186981));
#1926=CARTESIAN_POINT('Origin',(39.,30.,19.2321671186981));
#1927=CARTESIAN_POINT('Origin',(40.,30.,-0.767832881301934));
#1928=CARTESIAN_POINT('',(39.,30.,4.48216711869807));
#1929=CARTESIAN_POINT('',(40.,30.,4.48216711869807));
#1930=CARTESIAN_POINT('Origin',(39.,30.,-0.767832881301934));
#1931=CARTESIAN_POINT('Origin',(39.,30.,-0.767832881301934));
#1932=CARTESIAN_POINT('Origin',(40.,30.,-20.7678328813019));
#1933=CARTESIAN_POINT('',(39.,30.,-15.5178328813019));
#1934=CARTESIAN_POINT('',(40.,30.,-15.5178328813019));
#1935=CARTESIAN_POINT('Origin',(39.,30.,-20.7678328813019));
#1936=CARTESIAN_POINT('Origin',(39.,30.,-20.7678328813019));
#1937=CARTESIAN_POINT('Origin',(35.,60.,35.));
#1938=CARTESIAN_POINT('',(36.5,55.,35.));
#1939=CARTESIAN_POINT('',(36.5,60.,35.));
#1940=CARTESIAN_POINT('Origin',(35.,55.,35.));
#1941=CARTESIAN_POINT('Origin',(35.,55.,35.));
#1942=CARTESIAN_POINT('Origin',(35.,60.,-35.));
#1943=CARTESIAN_POINT('',(36.5,55.,-35.));
#1944=CARTESIAN_POINT('',(36.5,60.,-35.));
#1945=CARTESIAN_POINT('Origin',(35.,55.,-35.));
#1946=CARTESIAN_POINT('Origin',(35.,55.,-35.));
#1947=CARTESIAN_POINT('Origin',(-35.,60.,35.));
#1948=CARTESIAN_POINT('',(-33.5,55.,35.));
#1949=CARTESIAN_POINT('',(-33.5,60.,35.));
#1950=CARTESIAN_POINT('Origin',(-35.,55.,35.));
#1951=CARTESIAN_POINT('Origin',(-35.,55.,35.));
#1952=CARTESIAN_POINT('Origin',(-35.,60.,-35.));
#1953=CARTESIAN_POINT('',(-33.5,55.,-35.));
#1954=CARTESIAN_POINT('',(-33.5,60.,-35.));
#1955=CARTESIAN_POINT('Origin',(-35.,55.,-35.));
#1956=CARTESIAN_POINT('Origin',(-35.,55.,-35.));
#1957=CARTESIAN_POINT('Origin',(-40.,0.,40.));
#1958=CARTESIAN_POINT('Origin',(-40.,0.,-40.));
#1959=CARTESIAN_POINT('',(0.,0.,0.));
#1960=UNCERTAINTY_MEASURE_WITH_UNIT(LENGTH_MEASURE(0.01),#1966,
'DISTANCE_ACCURACY_VALUE',
'Maximum model space distance between geometric entities at asserted c
onnectivities');
#1961=UNCERTAINTY_MEASURE_WITH_UNIT(LENGTH_MEASURE(0.01),#1966,
'DISTANCE_ACCURACY_VALUE',
'Maximum model space distance between geometric entities at asserted c
onnectivities');
#1962=UNCERTAINTY_MEASURE_WITH_UNIT(LENGTH_MEASURE(0.01),#1966,
'DISTANCE_ACCURACY_VALUE',
'Maximum model space distance between geometric entities at asserted c
onnectivities');
#1963=(
GEOMETRIC_REPRESENTATION_CONTEXT(3)
GLOBAL_UNCERTAINTY_ASSIGNED_CONTEXT((#1960))
GLOBAL_UNIT_ASSIGNED_CONTEXT((#1966,#1968,#1969))
REPRESENTATION_CONTEXT('','3D')
);
#1964=(
GEOMETRIC_REPRESENTATION_CONTEXT(3)
GLOBAL_UNCERTAINTY_ASSIGNED_CONTEXT((#1961))
GLOBAL_UNIT_ASSIGNED_CONTEXT((#1966,#1968,#1969))
REPRESENTATION_CONTEXT('','3D')
);
#1965=(
GEOMETRIC_REPRESENTATION_CONTEXT(3)
GLOBAL_UNCERTAINTY_ASSIGNED_CONTEXT((#1962))
GLOBAL_UNIT_ASSIGNED_CONTEXT((#1966,#1968,#1969))
REPRESENTATION_CONTEXT('','3D')
);
#1966=(
LENGTH_UNIT()
NAMED_UNIT(*)
SI_UNIT(.MILLI.,.METRE.)
);
#1967=(
LENGTH_UNIT()
NAMED_UNIT(*)
SI_UNIT($,.METRE.)
);
#1968=(
NAMED_UNIT(*)
PLANE_ANGLE_UNIT()
SI_UNIT($,.RADIAN.)
);
#1969=(
NAMED_UNIT(*)
SI_UNIT($,.STERADIAN.)
SOLID_ANGLE_UNIT()
);
#1970=SHAPE_DEFINITION_REPRESENTATION(#1972,#1975);
#1971=SHAPE_DEFINITION_REPRESENTATION(#1973,#1976);
#1972=PRODUCT_DEFINITION_SHAPE('',$,#1978);
#1973=PRODUCT_DEFINITION_SHAPE('',$,#1979);
#1974=PRODUCT_DEFINITION_SHAPE($,$,#14);
#1975=SHAPE_REPRESENTATION('',(#1108,#1264),#1963);
#1976=SHAPE_REPRESENTATION('',(#1109),#1964);
#1977=PRODUCT_DEFINITION_CONTEXT('part definition',#1985,'design');
#1978=PRODUCT_DEFINITION('optical_daq_v0_1_3','optical_daq_v0_1_3 v2',#1980,
#1977);
#1979=PRODUCT_DEFINITION('box','box',#1981,#1977);
#1980=PRODUCT_DEFINITION_FORMATION('',$,#1987);
#1981=PRODUCT_DEFINITION_FORMATION('',$,#1988);
#1982=PRODUCT_RELATED_PRODUCT_CATEGORY('optical_daq_v0_1_3 v2',
'optical_daq_v0_1_3 v2',(#1987));
#1983=PRODUCT_RELATED_PRODUCT_CATEGORY('box','box',(#1988));
#1984=APPLICATION_PROTOCOL_DEFINITION('international standard',
'automotive_design',2009,#1985);
#1985=APPLICATION_CONTEXT(
'Core Data for Automotive Mechanical Design Process');
#1986=PRODUCT_CONTEXT('part definition',#1985,'mechanical');
#1987=PRODUCT('optical_daq_v0_1_3','optical_daq_v0_1_3 v2',$,(#1986));
#1988=PRODUCT('box','box',$,(#1986));
#1989=PRESENTATION_STYLE_ASSIGNMENT((#1991));
#1990=PRESENTATION_STYLE_ASSIGNMENT((#1992));
#1991=SURFACE_STYLE_USAGE(.BOTH.,#1993);
#1992=SURFACE_STYLE_USAGE(.BOTH.,#1994);
#1993=SURFACE_SIDE_STYLE('',(#1995));
#1994=SURFACE_SIDE_STYLE('',(#1996));
#1995=SURFACE_STYLE_FILL_AREA(#1997);
#1996=SURFACE_STYLE_FILL_AREA(#1998);
#1997=FILL_AREA_STYLE('Steel - Satin',(#1999));
#1998=FILL_AREA_STYLE('Aluminum - Bead Blasted',(#2000));
#1999=FILL_AREA_STYLE_COLOUR('Steel - Satin',#2001);
#2000=FILL_AREA_STYLE_COLOUR('Aluminum - Bead Blasted',#2002);
#2001=COLOUR_RGB('Steel - Satin',0.627450980392157,0.627450980392157,0.627450980392157);
#2002=COLOUR_RGB('Aluminum - Bead Blasted',0.96078431372549,0.96078431372549,
0.964705882352941);
ENDSEC;
END-ISO-10303-21;
