ISO-10303-21;
HEADER;
/* Generated by software containing ST-Developer
 * from STEP Tools, Inc. (www.steptools.com) 
 */

FILE_DESCRIPTION(
/* description */ (''),
/* implementation_level */ '2;1');

FILE_NAME(
/* name */ 'shield_box_XL.step',
/* time_stamp */ '2024-05-01T00:08:06+09:00',
/* author */ (''),
/* organization */ (''),
/* preprocessor_version */ 'ST-DEVELOPER v20',
/* originating_system */ 'Autodesk Translation Framework v12.20.1.177',

/* authorisation */ '');

FILE_SCHEMA (('AUTOMOTIVE_DESIGN { 1 0 10303 214 3 1 1 }'));
ENDSEC;

DATA;
#10=MECHANICAL_DESIGN_GEOMETRIC_PRESENTATION_REPRESENTATION('',(#13),#1951);
#11=SHAPE_REPRESENTATION_RELATIONSHIP('SRR','None',#1958,#12);
#12=ADVANCED_BREP_SHAPE_REPRESENTATION('',(#14),#1950);
#13=STYLED_ITEM('',(#1968),#14);
#14=MANIFOLD_SOLID_BREP('Body1',#1091);
#15=FACE_BOUND('',#172,.T.);
#16=FACE_BOUND('',#173,.T.);
#17=FACE_BOUND('',#174,.T.);
#18=FACE_BOUND('',#176,.T.);
#19=FACE_BOUND('',#191,.T.);
#20=FACE_BOUND('',#192,.T.);
#21=FACE_BOUND('',#193,.T.);
#22=FACE_BOUND('',#195,.T.);
#23=FACE_BOUND('',#196,.T.);
#24=FACE_BOUND('',#197,.T.);
#25=FACE_BOUND('',#198,.T.);
#26=FACE_BOUND('',#199,.T.);
#27=FACE_BOUND('',#202,.T.);
#28=FACE_BOUND('',#211,.T.);
#29=FACE_BOUND('',#214,.T.);
#30=FACE_BOUND('',#217,.T.);
#31=PLANE('',#1124);
#32=PLANE('',#1161);
#33=PLANE('',#1179);
#34=PLANE('',#1180);
#35=PLANE('',#1184);
#36=PLANE('',#1216);
#37=PLANE('',#1220);
#38=PLANE('',#1225);
#39=PLANE('',#1226);
#40=PLANE('',#1229);
#41=PLANE('',#1232);
#42=PLANE('',#1235);
#43=PLANE('',#1238);
#44=PLANE('',#1241);
#45=PLANE('',#1244);
#46=PLANE('',#1247);
#47=PLANE('',#1250);
#48=PLANE('',#1253);
#49=PLANE('',#1256);
#50=PLANE('',#1257);
#51=PLANE('',#1258);
#52=TOROIDAL_SURFACE('',#1111,6.,1.);
#53=TOROIDAL_SURFACE('',#1130,6.,1.);
#54=TOROIDAL_SURFACE('',#1148,6.,1.);
#55=TOROIDAL_SURFACE('',#1167,6.,1.);
#56=SPHERICAL_SURFACE('',#1108,1.);
#57=SPHERICAL_SURFACE('',#1120,1.);
#58=SPHERICAL_SURFACE('',#1128,1.);
#59=SPHERICAL_SURFACE('',#1136,1.);
#60=SPHERICAL_SURFACE('',#1146,1.);
#61=SPHERICAL_SURFACE('',#1157,1.);
#62=SPHERICAL_SURFACE('',#1165,1.);
#63=SPHERICAL_SURFACE('',#1176,1.);
#64=SPHERICAL_SURFACE('',#1188,1.);
#65=SPHERICAL_SURFACE('',#1192,1.);
#66=SPHERICAL_SURFACE('',#1196,1.);
#67=SPHERICAL_SURFACE('',#1201,0.999999999999996);
#68=FACE_OUTER_BOUND('',#140,.T.);
#69=FACE_OUTER_BOUND('',#141,.T.);
#70=FACE_OUTER_BOUND('',#142,.T.);
#71=FACE_OUTER_BOUND('',#143,.T.);
#72=FACE_OUTER_BOUND('',#144,.T.);
#73=FACE_OUTER_BOUND('',#145,.T.);
#74=FACE_OUTER_BOUND('',#146,.T.);
#75=FACE_OUTER_BOUND('',#147,.T.);
#76=FACE_OUTER_BOUND('',#148,.T.);
#77=FACE_OUTER_BOUND('',#149,.T.);
#78=FACE_OUTER_BOUND('',#150,.T.);
#79=FACE_OUTER_BOUND('',#151,.T.);
#80=FACE_OUTER_BOUND('',#152,.T.);
#81=FACE_OUTER_BOUND('',#153,.T.);
#82=FACE_OUTER_BOUND('',#154,.T.);
#83=FACE_OUTER_BOUND('',#155,.T.);
#84=FACE_OUTER_BOUND('',#156,.T.);
#85=FACE_OUTER_BOUND('',#157,.T.);
#86=FACE_OUTER_BOUND('',#158,.T.);
#87=FACE_OUTER_BOUND('',#159,.T.);
#88=FACE_OUTER_BOUND('',#160,.T.);
#89=FACE_OUTER_BOUND('',#161,.T.);
#90=FACE_OUTER_BOUND('',#162,.T.);
#91=FACE_OUTER_BOUND('',#163,.T.);
#92=FACE_OUTER_BOUND('',#164,.T.);
#93=FACE_OUTER_BOUND('',#165,.T.);
#94=FACE_OUTER_BOUND('',#166,.T.);
#95=FACE_OUTER_BOUND('',#167,.T.);
#96=FACE_OUTER_BOUND('',#168,.T.);
#97=FACE_OUTER_BOUND('',#169,.T.);
#98=FACE_OUTER_BOUND('',#170,.T.);
#99=FACE_OUTER_BOUND('',#171,.T.);
#100=FACE_OUTER_BOUND('',#175,.T.);
#101=FACE_OUTER_BOUND('',#177,.T.);
#102=FACE_OUTER_BOUND('',#178,.T.);
#103=FACE_OUTER_BOUND('',#179,.T.);
#104=FACE_OUTER_BOUND('',#180,.T.);
#105=FACE_OUTER_BOUND('',#181,.T.);
#106=FACE_OUTER_BOUND('',#182,.T.);
#107=FACE_OUTER_BOUND('',#183,.T.);
#108=FACE_OUTER_BOUND('',#184,.T.);
#109=FACE_OUTER_BOUND('',#185,.T.);
#110=FACE_OUTER_BOUND('',#186,.T.);
#111=FACE_OUTER_BOUND('',#187,.T.);
#112=FACE_OUTER_BOUND('',#188,.T.);
#113=FACE_OUTER_BOUND('',#189,.T.);
#114=FACE_OUTER_BOUND('',#190,.T.);
#115=FACE_OUTER_BOUND('',#194,.T.);
#116=FACE_OUTER_BOUND('',#200,.T.);
#117=FACE_OUTER_BOUND('',#201,.T.);
#118=FACE_OUTER_BOUND('',#203,.T.);
#119=FACE_OUTER_BOUND('',#204,.T.);
#120=FACE_OUTER_BOUND('',#205,.T.);
#121=FACE_OUTER_BOUND('',#206,.T.);
#122=FACE_OUTER_BOUND('',#207,.T.);
#123=FACE_OUTER_BOUND('',#208,.T.);
#124=FACE_OUTER_BOUND('',#209,.T.);
#125=FACE_OUTER_BOUND('',#210,.T.);
#126=FACE_OUTER_BOUND('',#212,.T.);
#127=FACE_OUTER_BOUND('',#213,.T.);
#128=FACE_OUTER_BOUND('',#215,.T.);
#129=FACE_OUTER_BOUND('',#216,.T.);
#130=FACE_OUTER_BOUND('',#218,.T.);
#131=FACE_OUTER_BOUND('',#219,.T.);
#132=FACE_OUTER_BOUND('',#220,.T.);
#133=FACE_OUTER_BOUND('',#221,.T.);
#134=FACE_OUTER_BOUND('',#222,.T.);
#135=FACE_OUTER_BOUND('',#223,.T.);
#136=FACE_OUTER_BOUND('',#224,.T.);
#137=FACE_OUTER_BOUND('',#225,.T.);
#138=FACE_OUTER_BOUND('',#226,.T.);
#139=FACE_OUTER_BOUND('',#227,.T.);
#140=EDGE_LOOP('',(#684,#685,#686,#687));
#141=EDGE_LOOP('',(#688,#689,#690));
#142=EDGE_LOOP('',(#691,#692,#693,#694));
#143=EDGE_LOOP('',(#695,#696,#697,#698));
#144=EDGE_LOOP('',(#699,#700,#701,#702));
#145=EDGE_LOOP('',(#703,#704,#705));
#146=EDGE_LOOP('',(#706,#707,#708,#709));
#147=EDGE_LOOP('',(#710,#711,#712,#713));
#148=EDGE_LOOP('',(#714,#715,#716,#717));
#149=EDGE_LOOP('',(#718,#719,#720));
#150=EDGE_LOOP('',(#721,#722,#723,#724));
#151=EDGE_LOOP('',(#725,#726,#727,#728));
#152=EDGE_LOOP('',(#729,#730,#731));
#153=EDGE_LOOP('',(#732,#733,#734,#735));
#154=EDGE_LOOP('',(#736,#737,#738,#739));
#155=EDGE_LOOP('',(#740,#741,#742,#743));
#156=EDGE_LOOP('',(#744,#745,#746));
#157=EDGE_LOOP('',(#747,#748,#749,#750));
#158=EDGE_LOOP('',(#751,#752,#753,#754));
#159=EDGE_LOOP('',(#755,#756,#757,#758));
#160=EDGE_LOOP('',(#759,#760,#761));
#161=EDGE_LOOP('',(#762,#763,#764,#765));
#162=EDGE_LOOP('',(#766,#767,#768,#769));
#163=EDGE_LOOP('',(#770,#771,#772,#773));
#164=EDGE_LOOP('',(#774,#775,#776));
#165=EDGE_LOOP('',(#777,#778,#779,#780));
#166=EDGE_LOOP('',(#781,#782,#783,#784));
#167=EDGE_LOOP('',(#785,#786,#787,#788));
#168=EDGE_LOOP('',(#789,#790,#791));
#169=EDGE_LOOP('',(#792,#793,#794,#795));
#170=EDGE_LOOP('',(#796,#797,#798,#799));
#171=EDGE_LOOP('',(#800,#801,#802,#803));
#172=EDGE_LOOP('',(#804,#805));
#173=EDGE_LOOP('',(#806,#807));
#174=EDGE_LOOP('',(#808,#809));
#175=EDGE_LOOP('',(#810,#811,#812,#813,#814,#815,#816,#817));
#176=EDGE_LOOP('',(#818));
#177=EDGE_LOOP('',(#819,#820,#821,#822));
#178=EDGE_LOOP('',(#823,#824,#825));
#179=EDGE_LOOP('',(#826,#827,#828));
#180=EDGE_LOOP('',(#829,#830,#831));
#181=EDGE_LOOP('',(#832,#833,#834,#835));
#182=EDGE_LOOP('',(#836,#837,#838));
#183=EDGE_LOOP('',(#839,#840,#841,#842));
#184=EDGE_LOOP('',(#843,#844,#845,#846));
#185=EDGE_LOOP('',(#847,#848,#849,#850));
#186=EDGE_LOOP('',(#851,#852,#853,#854));
#187=EDGE_LOOP('',(#855,#856,#857,#858));
#188=EDGE_LOOP('',(#859,#860,#861,#862));
#189=EDGE_LOOP('',(#863,#864,#865,#866));
#190=EDGE_LOOP('',(#867,#868,#869,#870));
#191=EDGE_LOOP('',(#871));
#192=EDGE_LOOP('',(#872));
#193=EDGE_LOOP('',(#873));
#194=EDGE_LOOP('',(#874,#875,#876,#877,#878,#879,#880,#881));
#195=EDGE_LOOP('',(#882,#883,#884,#885,#886,#887,#888,#889,#890,#891,#892,
#893,#894,#895,#896,#897));
#196=EDGE_LOOP('',(#898));
#197=EDGE_LOOP('',(#899));
#198=EDGE_LOOP('',(#900));
#199=EDGE_LOOP('',(#901));
#200=EDGE_LOOP('',(#902,#903,#904,#905));
#201=EDGE_LOOP('',(#906,#907,#908,#909));
#202=EDGE_LOOP('',(#910));
#203=EDGE_LOOP('',(#911,#912,#913,#914));
#204=EDGE_LOOP('',(#915,#916,#917,#918));
#205=EDGE_LOOP('',(#919,#920,#921,#922));
#206=EDGE_LOOP('',(#923,#924,#925,#926));
#207=EDGE_LOOP('',(#927,#928,#929,#930));
#208=EDGE_LOOP('',(#931,#932,#933,#934));
#209=EDGE_LOOP('',(#935,#936,#937,#938));
#210=EDGE_LOOP('',(#939));
#211=EDGE_LOOP('',(#940,#941));
#212=EDGE_LOOP('',(#942,#943,#944,#945));
#213=EDGE_LOOP('',(#946));
#214=EDGE_LOOP('',(#947,#948));
#215=EDGE_LOOP('',(#949,#950,#951,#952));
#216=EDGE_LOOP('',(#953));
#217=EDGE_LOOP('',(#954,#955));
#218=EDGE_LOOP('',(#956,#957,#958,#959));
#219=EDGE_LOOP('',(#960));
#220=EDGE_LOOP('',(#961,#962,#963,#964));
#221=EDGE_LOOP('',(#965));
#222=EDGE_LOOP('',(#966,#967,#968,#969));
#223=EDGE_LOOP('',(#970));
#224=EDGE_LOOP('',(#971,#972,#973,#974));
#225=EDGE_LOOP('',(#975));
#226=EDGE_LOOP('',(#976,#977,#978,#979));
#227=EDGE_LOOP('',(#980,#981,#982,#983));
#228=LINE('',#1643,#296);
#229=LINE('',#1646,#297);
#230=LINE('',#1660,#298);
#231=LINE('',#1666,#299);
#232=LINE('',#1671,#300);
#233=LINE('',#1674,#301);
#234=LINE('',#1677,#302);
#235=LINE('',#1678,#303);
#236=LINE('',#1683,#304);
#237=LINE('',#1696,#305);
#238=LINE('',#1704,#306);
#239=LINE('',#1707,#307);
#240=LINE('',#1710,#308);
#241=LINE('',#1716,#309);
#242=LINE('',#1718,#310);
#243=LINE('',#1730,#311);
#244=LINE('',#1736,#312);
#245=LINE('',#1741,#313);
#246=LINE('',#1744,#314);
#247=LINE('',#1747,#315);
#248=LINE('',#1748,#316);
#249=LINE('',#1753,#317);
#250=LINE('',#1766,#318);
#251=LINE('',#1772,#319);
#252=LINE('',#1776,#320);
#253=LINE('',#1777,#321);
#254=LINE('',#1779,#322);
#255=LINE('',#1781,#323);
#256=LINE('',#1785,#324);
#257=LINE('',#1789,#325);
#258=LINE('',#1793,#326);
#259=LINE('',#1800,#327);
#260=LINE('',#1823,#328);
#261=LINE('',#1824,#329);
#262=LINE('',#1833,#330);
#263=LINE('',#1834,#331);
#264=LINE('',#1839,#332);
#265=LINE('',#1840,#333);
#266=LINE('',#1842,#334);
#267=LINE('',#1843,#335);
#268=LINE('',#1848,#336);
#269=LINE('',#1849,#337);
#270=LINE('',#1851,#338);
#271=LINE('',#1852,#339);
#272=LINE('',#1857,#340);
#273=LINE('',#1858,#341);
#274=LINE('',#1863,#342);
#275=LINE('',#1864,#343);
#276=LINE('',#1866,#344);
#277=LINE('',#1874,#345);
#278=LINE('',#1875,#346);
#279=LINE('',#1876,#347);
#280=LINE('',#1891,#348);
#281=LINE('',#1892,#349);
#282=LINE('',#1894,#350);
#283=LINE('',#1899,#351);
#284=LINE('',#1900,#352);
#285=LINE('',#1902,#353);
#286=LINE('',#1907,#354);
#287=LINE('',#1908,#355);
#288=LINE('',#1910,#356);
#289=LINE('',#1913,#357);
#290=LINE('',#1918,#358);
#291=LINE('',#1923,#359);
#292=LINE('',#1928,#360);
#293=LINE('',#1933,#361);
#294=LINE('',#1938,#362);
#295=LINE('',#1943,#363);
#296=VECTOR('',#1265,10.);
#297=VECTOR('',#1268,10.);
#298=VECTOR('',#1287,10.);
#299=VECTOR('',#1294,10.);
#300=VECTOR('',#1301,10.);
#301=VECTOR('',#1304,10.);
#302=VECTOR('',#1307,10.);
#303=VECTOR('',#1308,10.);
#304=VECTOR('',#1313,10.);
#305=VECTOR('',#1332,10.);
#306=VECTOR('',#1343,10.);
#307=VECTOR('',#1346,10.);
#308=VECTOR('',#1349,10.);
#309=VECTOR('',#1354,10.);
#310=VECTOR('',#1357,10.);
#311=VECTOR('',#1374,10.);
#312=VECTOR('',#1381,10.);
#313=VECTOR('',#1388,10.);
#314=VECTOR('',#1391,10.);
#315=VECTOR('',#1394,10.);
#316=VECTOR('',#1395,10.);
#317=VECTOR('',#1400,10.);
#318=VECTOR('',#1419,10.);
#319=VECTOR('',#1426,10.);
#320=VECTOR('',#1433,10.);
#321=VECTOR('',#1434,10.);
#322=VECTOR('',#1437,10.);
#323=VECTOR('',#1440,10.);
#324=VECTOR('',#1443,10.);
#325=VECTOR('',#1446,10.);
#326=VECTOR('',#1449,10.);
#327=VECTOR('',#1458,6.5);
#328=VECTOR('',#1485,10.);
#329=VECTOR('',#1486,10.);
#330=VECTOR('',#1497,10.);
#331=VECTOR('',#1498,10.);
#332=VECTOR('',#1503,10.);
#333=VECTOR('',#1504,10.);
#334=VECTOR('',#1507,10.);
#335=VECTOR('',#1508,10.);
#336=VECTOR('',#1513,10.);
#337=VECTOR('',#1514,10.);
#338=VECTOR('',#1517,10.);
#339=VECTOR('',#1518,10.);
#340=VECTOR('',#1523,10.);
#341=VECTOR('',#1524,10.);
#342=VECTOR('',#1529,10.);
#343=VECTOR('',#1530,10.);
#344=VECTOR('',#1533,10.);
#345=VECTOR('',#1542,10.);
#346=VECTOR('',#1543,10.);
#347=VECTOR('',#1544,10.);
#348=VECTOR('',#1561,10.);
#349=VECTOR('',#1562,10.);
#350=VECTOR('',#1565,10.);
#351=VECTOR('',#1570,10.);
#352=VECTOR('',#1571,10.);
#353=VECTOR('',#1574,10.);
#354=VECTOR('',#1579,10.);
#355=VECTOR('',#1580,10.);
#356=VECTOR('',#1583,10.);
#357=VECTOR('',#1586,5.25);
#358=VECTOR('',#1593,5.25);
#359=VECTOR('',#1600,5.25);
#360=VECTOR('',#1607,1.5);
#361=VECTOR('',#1614,1.5);
#362=VECTOR('',#1621,1.5);
#363=VECTOR('',#1628,1.5);
#364=CIRCLE('',#1106,1.);
#365=CIRCLE('',#1107,0.999999999999996);
#366=CIRCLE('',#1109,1.);
#367=CIRCLE('',#1110,1.);
#368=CIRCLE('',#1112,5.);
#369=CIRCLE('',#1113,1.);
#370=CIRCLE('',#1114,6.);
#371=CIRCLE('',#1116,5.);
#372=CIRCLE('',#1118,0.999999999999996);
#373=CIRCLE('',#1119,1.);
#374=CIRCLE('',#1121,1.);
#375=CIRCLE('',#1123,1.);
#376=CIRCLE('',#1126,1.);
#377=CIRCLE('',#1127,0.999999999999996);
#378=CIRCLE('',#1129,1.);
#379=CIRCLE('',#1131,5.);
#380=CIRCLE('',#1132,1.);
#381=CIRCLE('',#1133,6.);
#382=CIRCLE('',#1135,5.);
#383=CIRCLE('',#1137,0.999999999999996);
#384=CIRCLE('',#1138,1.);
#385=CIRCLE('',#1140,1.);
#386=CIRCLE('',#1142,1.);
#387=CIRCLE('',#1144,1.);
#388=CIRCLE('',#1145,0.999999999999996);
#389=CIRCLE('',#1147,1.);
#390=CIRCLE('',#1149,5.);
#391=CIRCLE('',#1150,1.);
#392=CIRCLE('',#1151,6.);
#393=CIRCLE('',#1153,5.);
#394=CIRCLE('',#1155,0.999999999999996);
#395=CIRCLE('',#1156,1.);
#396=CIRCLE('',#1158,1.);
#397=CIRCLE('',#1160,1.);
#398=CIRCLE('',#1163,1.);
#399=CIRCLE('',#1164,0.999999999999996);
#400=CIRCLE('',#1166,1.);
#401=CIRCLE('',#1168,5.);
#402=CIRCLE('',#1169,1.);
#403=CIRCLE('',#1170,6.);
#404=CIRCLE('',#1172,5.);
#405=CIRCLE('',#1174,0.999999999999996);
#406=CIRCLE('',#1175,1.);
#407=CIRCLE('',#1177,1.);
#408=CIRCLE('',#1181,3.25);
#409=CIRCLE('',#1182,3.25);
#410=CIRCLE('',#1183,3.25);
#411=CIRCLE('',#1185,6.5);
#412=CIRCLE('',#1187,6.5);
#413=CIRCLE('',#1189,0.999999999999996);
#414=CIRCLE('',#1190,1.);
#415=CIRCLE('',#1191,0.999999999999996);
#416=CIRCLE('',#1193,0.999999999999996);
#417=CIRCLE('',#1194,1.);
#418=CIRCLE('',#1195,0.999999999999996);
#419=CIRCLE('',#1197,0.999999999999996);
#420=CIRCLE('',#1198,1.);
#421=CIRCLE('',#1199,0.999999999999996);
#422=CIRCLE('',#1202,1.);
#423=CIRCLE('',#1203,0.999999999999996);
#424=CIRCLE('',#1204,0.999999999999996);
#425=CIRCLE('',#1207,1.);
#426=CIRCLE('',#1210,1.);
#427=CIRCLE('',#1213,1.);
#428=CIRCLE('',#1215,1.);
#429=CIRCLE('',#1217,5.25);
#430=CIRCLE('',#1218,5.25);
#431=CIRCLE('',#1219,5.25);
#432=CIRCLE('',#1221,1.5);
#433=CIRCLE('',#1222,1.5);
#434=CIRCLE('',#1223,1.5);
#435=CIRCLE('',#1224,1.5);
#436=CIRCLE('',#1228,3.25);
#437=CIRCLE('',#1231,3.25);
#438=CIRCLE('',#1234,3.25);
#439=CIRCLE('',#1237,5.25);
#440=CIRCLE('',#1240,5.25);
#441=CIRCLE('',#1243,5.25);
#442=CIRCLE('',#1246,1.5);
#443=CIRCLE('',#1249,1.5);
#444=CIRCLE('',#1252,1.5);
#445=CIRCLE('',#1255,1.5);
#446=VERTEX_POINT('',#1639);
#447=VERTEX_POINT('',#1640);
#448=VERTEX_POINT('',#1642);
#449=VERTEX_POINT('',#1644);
#450=VERTEX_POINT('',#1648);
#451=VERTEX_POINT('',#1652);
#452=VERTEX_POINT('',#1654);
#453=VERTEX_POINT('',#1658);
#454=VERTEX_POINT('',#1662);
#455=VERTEX_POINT('',#1664);
#456=VERTEX_POINT('',#1670);
#457=VERTEX_POINT('',#1672);
#458=VERTEX_POINT('',#1676);
#459=VERTEX_POINT('',#1680);
#460=VERTEX_POINT('',#1682);
#461=VERTEX_POINT('',#1688);
#462=VERTEX_POINT('',#1690);
#463=VERTEX_POINT('',#1694);
#464=VERTEX_POINT('',#1698);
#465=VERTEX_POINT('',#1702);
#466=VERTEX_POINT('',#1706);
#467=VERTEX_POINT('',#1708);
#468=VERTEX_POINT('',#1712);
#469=VERTEX_POINT('',#1713);
#470=VERTEX_POINT('',#1715);
#471=VERTEX_POINT('',#1722);
#472=VERTEX_POINT('',#1724);
#473=VERTEX_POINT('',#1728);
#474=VERTEX_POINT('',#1732);
#475=VERTEX_POINT('',#1734);
#476=VERTEX_POINT('',#1740);
#477=VERTEX_POINT('',#1742);
#478=VERTEX_POINT('',#1746);
#479=VERTEX_POINT('',#1750);
#480=VERTEX_POINT('',#1752);
#481=VERTEX_POINT('',#1758);
#482=VERTEX_POINT('',#1760);
#483=VERTEX_POINT('',#1764);
#484=VERTEX_POINT('',#1768);
#485=VERTEX_POINT('',#1770);
#486=VERTEX_POINT('',#1782);
#487=VERTEX_POINT('',#1783);
#488=VERTEX_POINT('',#1786);
#489=VERTEX_POINT('',#1787);
#490=VERTEX_POINT('',#1790);
#491=VERTEX_POINT('',#1791);
#492=VERTEX_POINT('',#1795);
#493=VERTEX_POINT('',#1798);
#494=VERTEX_POINT('',#1802);
#495=VERTEX_POINT('',#1803);
#496=VERTEX_POINT('',#1805);
#497=VERTEX_POINT('',#1809);
#498=VERTEX_POINT('',#1810);
#499=VERTEX_POINT('',#1812);
#500=VERTEX_POINT('',#1816);
#501=VERTEX_POINT('',#1817);
#502=VERTEX_POINT('',#1819);
#503=VERTEX_POINT('',#1826);
#504=VERTEX_POINT('',#1827);
#505=VERTEX_POINT('',#1829);
#506=VERTEX_POINT('',#1836);
#507=VERTEX_POINT('',#1837);
#508=VERTEX_POINT('',#1845);
#509=VERTEX_POINT('',#1846);
#510=VERTEX_POINT('',#1854);
#511=VERTEX_POINT('',#1855);
#512=VERTEX_POINT('',#1860);
#513=VERTEX_POINT('',#1861);
#514=VERTEX_POINT('',#1867);
#515=VERTEX_POINT('',#1869);
#516=VERTEX_POINT('',#1871);
#517=VERTEX_POINT('',#1877);
#518=VERTEX_POINT('',#1879);
#519=VERTEX_POINT('',#1881);
#520=VERTEX_POINT('',#1883);
#521=VERTEX_POINT('',#1888);
#522=VERTEX_POINT('',#1889);
#523=VERTEX_POINT('',#1896);
#524=VERTEX_POINT('',#1897);
#525=VERTEX_POINT('',#1904);
#526=VERTEX_POINT('',#1905);
#527=VERTEX_POINT('',#1912);
#528=VERTEX_POINT('',#1917);
#529=VERTEX_POINT('',#1922);
#530=VERTEX_POINT('',#1927);
#531=VERTEX_POINT('',#1932);
#532=VERTEX_POINT('',#1937);
#533=VERTEX_POINT('',#1942);
#534=EDGE_CURVE('',#446,#447,#364,.T.);
#535=EDGE_CURVE('',#447,#448,#228,.T.);
#536=EDGE_CURVE('',#448,#449,#365,.T.);
#537=EDGE_CURVE('',#449,#446,#229,.T.);
#538=EDGE_CURVE('',#448,#450,#366,.T.);
#539=EDGE_CURVE('',#450,#449,#367,.T.);
#540=EDGE_CURVE('',#448,#451,#368,.T.);
#541=EDGE_CURVE('',#452,#451,#369,.T.);
#542=EDGE_CURVE('',#452,#450,#370,.T.);
#543=EDGE_CURVE('',#453,#447,#371,.T.);
#544=EDGE_CURVE('',#451,#453,#230,.T.);
#545=EDGE_CURVE('',#454,#451,#372,.T.);
#546=EDGE_CURVE('',#453,#455,#373,.T.);
#547=EDGE_CURVE('',#455,#454,#231,.T.);
#548=EDGE_CURVE('',#454,#452,#374,.T.);
#549=EDGE_CURVE('',#454,#456,#232,.T.);
#550=EDGE_CURVE('',#457,#456,#375,.T.);
#551=EDGE_CURVE('',#457,#452,#233,.T.);
#552=EDGE_CURVE('',#458,#455,#234,.T.);
#553=EDGE_CURVE('',#456,#458,#235,.T.);
#554=EDGE_CURVE('',#458,#459,#376,.T.);
#555=EDGE_CURVE('',#459,#460,#236,.T.);
#556=EDGE_CURVE('',#460,#456,#377,.T.);
#557=EDGE_CURVE('',#460,#457,#378,.T.);
#558=EDGE_CURVE('',#460,#461,#379,.T.);
#559=EDGE_CURVE('',#462,#461,#380,.T.);
#560=EDGE_CURVE('',#462,#457,#381,.T.);
#561=EDGE_CURVE('',#463,#459,#382,.T.);
#562=EDGE_CURVE('',#461,#463,#237,.T.);
#563=EDGE_CURVE('',#461,#464,#383,.T.);
#564=EDGE_CURVE('',#464,#462,#384,.T.);
#565=EDGE_CURVE('',#463,#465,#385,.T.);
#566=EDGE_CURVE('',#465,#464,#238,.T.);
#567=EDGE_CURVE('',#464,#466,#239,.T.);
#568=EDGE_CURVE('',#467,#466,#386,.T.);
#569=EDGE_CURVE('',#467,#462,#240,.T.);
#570=EDGE_CURVE('',#468,#469,#387,.T.);
#571=EDGE_CURVE('',#469,#470,#241,.T.);
#572=EDGE_CURVE('',#470,#466,#388,.T.);
#573=EDGE_CURVE('',#466,#468,#242,.T.);
#574=EDGE_CURVE('',#470,#467,#389,.T.);
#575=EDGE_CURVE('',#470,#471,#390,.T.);
#576=EDGE_CURVE('',#472,#471,#391,.T.);
#577=EDGE_CURVE('',#472,#467,#392,.T.);
#578=EDGE_CURVE('',#473,#469,#393,.T.);
#579=EDGE_CURVE('',#471,#473,#243,.T.);
#580=EDGE_CURVE('',#474,#471,#394,.T.);
#581=EDGE_CURVE('',#473,#475,#395,.T.);
#582=EDGE_CURVE('',#475,#474,#244,.T.);
#583=EDGE_CURVE('',#474,#472,#396,.T.);
#584=EDGE_CURVE('',#474,#476,#245,.T.);
#585=EDGE_CURVE('',#477,#476,#397,.T.);
#586=EDGE_CURVE('',#477,#472,#246,.T.);
#587=EDGE_CURVE('',#478,#475,#247,.T.);
#588=EDGE_CURVE('',#476,#478,#248,.T.);
#589=EDGE_CURVE('',#478,#479,#398,.T.);
#590=EDGE_CURVE('',#479,#480,#249,.T.);
#591=EDGE_CURVE('',#480,#476,#399,.T.);
#592=EDGE_CURVE('',#480,#477,#400,.T.);
#593=EDGE_CURVE('',#480,#481,#401,.T.);
#594=EDGE_CURVE('',#482,#481,#402,.T.);
#595=EDGE_CURVE('',#482,#477,#403,.T.);
#596=EDGE_CURVE('',#483,#479,#404,.T.);
#597=EDGE_CURVE('',#481,#483,#250,.T.);
#598=EDGE_CURVE('',#484,#481,#405,.T.);
#599=EDGE_CURVE('',#483,#485,#406,.T.);
#600=EDGE_CURVE('',#485,#484,#251,.T.);
#601=EDGE_CURVE('',#484,#482,#407,.T.);
#602=EDGE_CURVE('',#450,#482,#252,.T.);
#603=EDGE_CURVE('',#484,#449,#253,.T.);
#604=EDGE_CURVE('',#446,#485,#254,.T.);
#605=EDGE_CURVE('',#468,#465,#255,.T.);
#606=EDGE_CURVE('',#486,#487,#408,.T.);
#607=EDGE_CURVE('',#487,#486,#256,.T.);
#608=EDGE_CURVE('',#488,#489,#409,.T.);
#609=EDGE_CURVE('',#489,#488,#257,.T.);
#610=EDGE_CURVE('',#490,#491,#410,.T.);
#611=EDGE_CURVE('',#491,#490,#258,.T.);
#612=EDGE_CURVE('',#492,#492,#411,.T.);
#613=EDGE_CURVE('',#493,#493,#412,.T.);
#614=EDGE_CURVE('',#493,#492,#259,.T.);
#615=EDGE_CURVE('',#494,#495,#413,.F.);
#616=EDGE_CURVE('',#496,#494,#414,.F.);
#617=EDGE_CURVE('',#495,#496,#415,.F.);
#618=EDGE_CURVE('',#497,#498,#416,.F.);
#619=EDGE_CURVE('',#499,#497,#417,.F.);
#620=EDGE_CURVE('',#498,#499,#418,.F.);
#621=EDGE_CURVE('',#500,#501,#419,.F.);
#622=EDGE_CURVE('',#502,#500,#420,.F.);
#623=EDGE_CURVE('',#501,#502,#421,.F.);
#624=EDGE_CURVE('',#500,#495,#260,.T.);
#625=EDGE_CURVE('',#496,#502,#261,.T.);
#626=EDGE_CURVE('',#503,#504,#422,.F.);
#627=EDGE_CURVE('',#505,#503,#423,.F.);
#628=EDGE_CURVE('',#504,#505,#424,.F.);
#629=EDGE_CURVE('',#497,#505,#262,.T.);
#630=EDGE_CURVE('',#503,#499,#263,.T.);
#631=EDGE_CURVE('',#506,#507,#425,.T.);
#632=EDGE_CURVE('',#507,#504,#264,.T.);
#633=EDGE_CURVE('',#505,#506,#265,.T.);
#634=EDGE_CURVE('',#504,#501,#266,.T.);
#635=EDGE_CURVE('',#502,#503,#267,.T.);
#636=EDGE_CURVE('',#508,#509,#426,.T.);
#637=EDGE_CURVE('',#509,#500,#268,.T.);
#638=EDGE_CURVE('',#501,#508,#269,.T.);
#639=EDGE_CURVE('',#494,#498,#270,.T.);
#640=EDGE_CURVE('',#499,#496,#271,.T.);
#641=EDGE_CURVE('',#510,#511,#427,.T.);
#642=EDGE_CURVE('',#511,#497,#272,.T.);
#643=EDGE_CURVE('',#498,#510,#273,.T.);
#644=EDGE_CURVE('',#512,#513,#428,.T.);
#645=EDGE_CURVE('',#513,#494,#274,.T.);
#646=EDGE_CURVE('',#495,#512,#275,.T.);
#647=EDGE_CURVE('',#506,#511,#276,.T.);
#648=EDGE_CURVE('',#514,#514,#429,.T.);
#649=EDGE_CURVE('',#515,#515,#430,.T.);
#650=EDGE_CURVE('',#516,#516,#431,.T.);
#651=EDGE_CURVE('',#510,#513,#277,.T.);
#652=EDGE_CURVE('',#512,#509,#278,.T.);
#653=EDGE_CURVE('',#508,#507,#279,.T.);
#654=EDGE_CURVE('',#517,#517,#432,.T.);
#655=EDGE_CURVE('',#518,#518,#433,.T.);
#656=EDGE_CURVE('',#519,#519,#434,.T.);
#657=EDGE_CURVE('',#520,#520,#435,.T.);
#658=EDGE_CURVE('',#521,#522,#436,.T.);
#659=EDGE_CURVE('',#522,#491,#280,.T.);
#660=EDGE_CURVE('',#521,#490,#281,.T.);
#661=EDGE_CURVE('',#522,#521,#282,.T.);
#662=EDGE_CURVE('',#523,#524,#437,.T.);
#663=EDGE_CURVE('',#524,#489,#283,.T.);
#664=EDGE_CURVE('',#523,#488,#284,.T.);
#665=EDGE_CURVE('',#524,#523,#285,.T.);
#666=EDGE_CURVE('',#525,#526,#438,.T.);
#667=EDGE_CURVE('',#526,#487,#286,.T.);
#668=EDGE_CURVE('',#525,#486,#287,.T.);
#669=EDGE_CURVE('',#526,#525,#288,.T.);
#670=EDGE_CURVE('',#514,#527,#289,.T.);
#671=EDGE_CURVE('',#527,#527,#439,.T.);
#672=EDGE_CURVE('',#515,#528,#290,.T.);
#673=EDGE_CURVE('',#528,#528,#440,.T.);
#674=EDGE_CURVE('',#516,#529,#291,.T.);
#675=EDGE_CURVE('',#529,#529,#441,.T.);
#676=EDGE_CURVE('',#520,#530,#292,.T.);
#677=EDGE_CURVE('',#530,#530,#442,.T.);
#678=EDGE_CURVE('',#519,#531,#293,.T.);
#679=EDGE_CURVE('',#531,#531,#443,.T.);
#680=EDGE_CURVE('',#518,#532,#294,.T.);
#681=EDGE_CURVE('',#532,#532,#444,.T.);
#682=EDGE_CURVE('',#517,#533,#295,.T.);
#683=EDGE_CURVE('',#533,#533,#445,.T.);
#684=ORIENTED_EDGE('',*,*,#534,.T.);
#685=ORIENTED_EDGE('',*,*,#535,.T.);
#686=ORIENTED_EDGE('',*,*,#536,.T.);
#687=ORIENTED_EDGE('',*,*,#537,.T.);
#688=ORIENTED_EDGE('',*,*,#536,.F.);
#689=ORIENTED_EDGE('',*,*,#538,.T.);
#690=ORIENTED_EDGE('',*,*,#539,.T.);
#691=ORIENTED_EDGE('',*,*,#538,.F.);
#692=ORIENTED_EDGE('',*,*,#540,.T.);
#693=ORIENTED_EDGE('',*,*,#541,.F.);
#694=ORIENTED_EDGE('',*,*,#542,.T.);
#695=ORIENTED_EDGE('',*,*,#535,.F.);
#696=ORIENTED_EDGE('',*,*,#543,.F.);
#697=ORIENTED_EDGE('',*,*,#544,.F.);
#698=ORIENTED_EDGE('',*,*,#540,.F.);
#699=ORIENTED_EDGE('',*,*,#545,.T.);
#700=ORIENTED_EDGE('',*,*,#544,.T.);
#701=ORIENTED_EDGE('',*,*,#546,.T.);
#702=ORIENTED_EDGE('',*,*,#547,.T.);
#703=ORIENTED_EDGE('',*,*,#545,.F.);
#704=ORIENTED_EDGE('',*,*,#548,.T.);
#705=ORIENTED_EDGE('',*,*,#541,.T.);
#706=ORIENTED_EDGE('',*,*,#548,.F.);
#707=ORIENTED_EDGE('',*,*,#549,.T.);
#708=ORIENTED_EDGE('',*,*,#550,.F.);
#709=ORIENTED_EDGE('',*,*,#551,.T.);
#710=ORIENTED_EDGE('',*,*,#547,.F.);
#711=ORIENTED_EDGE('',*,*,#552,.F.);
#712=ORIENTED_EDGE('',*,*,#553,.F.);
#713=ORIENTED_EDGE('',*,*,#549,.F.);
#714=ORIENTED_EDGE('',*,*,#554,.T.);
#715=ORIENTED_EDGE('',*,*,#555,.T.);
#716=ORIENTED_EDGE('',*,*,#556,.T.);
#717=ORIENTED_EDGE('',*,*,#553,.T.);
#718=ORIENTED_EDGE('',*,*,#556,.F.);
#719=ORIENTED_EDGE('',*,*,#557,.T.);
#720=ORIENTED_EDGE('',*,*,#550,.T.);
#721=ORIENTED_EDGE('',*,*,#557,.F.);
#722=ORIENTED_EDGE('',*,*,#558,.T.);
#723=ORIENTED_EDGE('',*,*,#559,.F.);
#724=ORIENTED_EDGE('',*,*,#560,.T.);
#725=ORIENTED_EDGE('',*,*,#555,.F.);
#726=ORIENTED_EDGE('',*,*,#561,.F.);
#727=ORIENTED_EDGE('',*,*,#562,.F.);
#728=ORIENTED_EDGE('',*,*,#558,.F.);
#729=ORIENTED_EDGE('',*,*,#563,.T.);
#730=ORIENTED_EDGE('',*,*,#564,.T.);
#731=ORIENTED_EDGE('',*,*,#559,.T.);
#732=ORIENTED_EDGE('',*,*,#563,.F.);
#733=ORIENTED_EDGE('',*,*,#562,.T.);
#734=ORIENTED_EDGE('',*,*,#565,.T.);
#735=ORIENTED_EDGE('',*,*,#566,.T.);
#736=ORIENTED_EDGE('',*,*,#564,.F.);
#737=ORIENTED_EDGE('',*,*,#567,.T.);
#738=ORIENTED_EDGE('',*,*,#568,.F.);
#739=ORIENTED_EDGE('',*,*,#569,.T.);
#740=ORIENTED_EDGE('',*,*,#570,.T.);
#741=ORIENTED_EDGE('',*,*,#571,.T.);
#742=ORIENTED_EDGE('',*,*,#572,.T.);
#743=ORIENTED_EDGE('',*,*,#573,.T.);
#744=ORIENTED_EDGE('',*,*,#572,.F.);
#745=ORIENTED_EDGE('',*,*,#574,.T.);
#746=ORIENTED_EDGE('',*,*,#568,.T.);
#747=ORIENTED_EDGE('',*,*,#574,.F.);
#748=ORIENTED_EDGE('',*,*,#575,.T.);
#749=ORIENTED_EDGE('',*,*,#576,.F.);
#750=ORIENTED_EDGE('',*,*,#577,.T.);
#751=ORIENTED_EDGE('',*,*,#571,.F.);
#752=ORIENTED_EDGE('',*,*,#578,.F.);
#753=ORIENTED_EDGE('',*,*,#579,.F.);
#754=ORIENTED_EDGE('',*,*,#575,.F.);
#755=ORIENTED_EDGE('',*,*,#580,.T.);
#756=ORIENTED_EDGE('',*,*,#579,.T.);
#757=ORIENTED_EDGE('',*,*,#581,.T.);
#758=ORIENTED_EDGE('',*,*,#582,.T.);
#759=ORIENTED_EDGE('',*,*,#580,.F.);
#760=ORIENTED_EDGE('',*,*,#583,.T.);
#761=ORIENTED_EDGE('',*,*,#576,.T.);
#762=ORIENTED_EDGE('',*,*,#583,.F.);
#763=ORIENTED_EDGE('',*,*,#584,.T.);
#764=ORIENTED_EDGE('',*,*,#585,.F.);
#765=ORIENTED_EDGE('',*,*,#586,.T.);
#766=ORIENTED_EDGE('',*,*,#582,.F.);
#767=ORIENTED_EDGE('',*,*,#587,.F.);
#768=ORIENTED_EDGE('',*,*,#588,.F.);
#769=ORIENTED_EDGE('',*,*,#584,.F.);
#770=ORIENTED_EDGE('',*,*,#589,.T.);
#771=ORIENTED_EDGE('',*,*,#590,.T.);
#772=ORIENTED_EDGE('',*,*,#591,.T.);
#773=ORIENTED_EDGE('',*,*,#588,.T.);
#774=ORIENTED_EDGE('',*,*,#591,.F.);
#775=ORIENTED_EDGE('',*,*,#592,.T.);
#776=ORIENTED_EDGE('',*,*,#585,.T.);
#777=ORIENTED_EDGE('',*,*,#592,.F.);
#778=ORIENTED_EDGE('',*,*,#593,.T.);
#779=ORIENTED_EDGE('',*,*,#594,.F.);
#780=ORIENTED_EDGE('',*,*,#595,.T.);
#781=ORIENTED_EDGE('',*,*,#590,.F.);
#782=ORIENTED_EDGE('',*,*,#596,.F.);
#783=ORIENTED_EDGE('',*,*,#597,.F.);
#784=ORIENTED_EDGE('',*,*,#593,.F.);
#785=ORIENTED_EDGE('',*,*,#598,.T.);
#786=ORIENTED_EDGE('',*,*,#597,.T.);
#787=ORIENTED_EDGE('',*,*,#599,.T.);
#788=ORIENTED_EDGE('',*,*,#600,.T.);
#789=ORIENTED_EDGE('',*,*,#598,.F.);
#790=ORIENTED_EDGE('',*,*,#601,.T.);
#791=ORIENTED_EDGE('',*,*,#594,.T.);
#792=ORIENTED_EDGE('',*,*,#539,.F.);
#793=ORIENTED_EDGE('',*,*,#602,.T.);
#794=ORIENTED_EDGE('',*,*,#601,.F.);
#795=ORIENTED_EDGE('',*,*,#603,.T.);
#796=ORIENTED_EDGE('',*,*,#537,.F.);
#797=ORIENTED_EDGE('',*,*,#603,.F.);
#798=ORIENTED_EDGE('',*,*,#600,.F.);
#799=ORIENTED_EDGE('',*,*,#604,.F.);
#800=ORIENTED_EDGE('',*,*,#566,.F.);
#801=ORIENTED_EDGE('',*,*,#605,.F.);
#802=ORIENTED_EDGE('',*,*,#573,.F.);
#803=ORIENTED_EDGE('',*,*,#567,.F.);
#804=ORIENTED_EDGE('',*,*,#606,.T.);
#805=ORIENTED_EDGE('',*,*,#607,.T.);
#806=ORIENTED_EDGE('',*,*,#608,.T.);
#807=ORIENTED_EDGE('',*,*,#609,.T.);
#808=ORIENTED_EDGE('',*,*,#610,.T.);
#809=ORIENTED_EDGE('',*,*,#611,.T.);
#810=ORIENTED_EDGE('',*,*,#569,.F.);
#811=ORIENTED_EDGE('',*,*,#577,.F.);
#812=ORIENTED_EDGE('',*,*,#586,.F.);
#813=ORIENTED_EDGE('',*,*,#595,.F.);
#814=ORIENTED_EDGE('',*,*,#602,.F.);
#815=ORIENTED_EDGE('',*,*,#542,.F.);
#816=ORIENTED_EDGE('',*,*,#551,.F.);
#817=ORIENTED_EDGE('',*,*,#560,.F.);
#818=ORIENTED_EDGE('',*,*,#612,.T.);
#819=ORIENTED_EDGE('',*,*,#613,.F.);
#820=ORIENTED_EDGE('',*,*,#614,.T.);
#821=ORIENTED_EDGE('',*,*,#612,.F.);
#822=ORIENTED_EDGE('',*,*,#614,.F.);
#823=ORIENTED_EDGE('',*,*,#615,.F.);
#824=ORIENTED_EDGE('',*,*,#616,.F.);
#825=ORIENTED_EDGE('',*,*,#617,.F.);
#826=ORIENTED_EDGE('',*,*,#618,.F.);
#827=ORIENTED_EDGE('',*,*,#619,.F.);
#828=ORIENTED_EDGE('',*,*,#620,.F.);
#829=ORIENTED_EDGE('',*,*,#621,.F.);
#830=ORIENTED_EDGE('',*,*,#622,.F.);
#831=ORIENTED_EDGE('',*,*,#623,.F.);
#832=ORIENTED_EDGE('',*,*,#622,.T.);
#833=ORIENTED_EDGE('',*,*,#624,.T.);
#834=ORIENTED_EDGE('',*,*,#617,.T.);
#835=ORIENTED_EDGE('',*,*,#625,.T.);
#836=ORIENTED_EDGE('',*,*,#626,.F.);
#837=ORIENTED_EDGE('',*,*,#627,.F.);
#838=ORIENTED_EDGE('',*,*,#628,.F.);
#839=ORIENTED_EDGE('',*,*,#619,.T.);
#840=ORIENTED_EDGE('',*,*,#629,.T.);
#841=ORIENTED_EDGE('',*,*,#627,.T.);
#842=ORIENTED_EDGE('',*,*,#630,.T.);
#843=ORIENTED_EDGE('',*,*,#631,.T.);
#844=ORIENTED_EDGE('',*,*,#632,.T.);
#845=ORIENTED_EDGE('',*,*,#628,.T.);
#846=ORIENTED_EDGE('',*,*,#633,.T.);
#847=ORIENTED_EDGE('',*,*,#626,.T.);
#848=ORIENTED_EDGE('',*,*,#634,.T.);
#849=ORIENTED_EDGE('',*,*,#623,.T.);
#850=ORIENTED_EDGE('',*,*,#635,.T.);
#851=ORIENTED_EDGE('',*,*,#636,.T.);
#852=ORIENTED_EDGE('',*,*,#637,.T.);
#853=ORIENTED_EDGE('',*,*,#621,.T.);
#854=ORIENTED_EDGE('',*,*,#638,.T.);
#855=ORIENTED_EDGE('',*,*,#616,.T.);
#856=ORIENTED_EDGE('',*,*,#639,.T.);
#857=ORIENTED_EDGE('',*,*,#620,.T.);
#858=ORIENTED_EDGE('',*,*,#640,.T.);
#859=ORIENTED_EDGE('',*,*,#641,.T.);
#860=ORIENTED_EDGE('',*,*,#642,.T.);
#861=ORIENTED_EDGE('',*,*,#618,.T.);
#862=ORIENTED_EDGE('',*,*,#643,.T.);
#863=ORIENTED_EDGE('',*,*,#644,.T.);
#864=ORIENTED_EDGE('',*,*,#645,.T.);
#865=ORIENTED_EDGE('',*,*,#615,.T.);
#866=ORIENTED_EDGE('',*,*,#646,.T.);
#867=ORIENTED_EDGE('',*,*,#633,.F.);
#868=ORIENTED_EDGE('',*,*,#629,.F.);
#869=ORIENTED_EDGE('',*,*,#642,.F.);
#870=ORIENTED_EDGE('',*,*,#647,.F.);
#871=ORIENTED_EDGE('',*,*,#648,.T.);
#872=ORIENTED_EDGE('',*,*,#649,.T.);
#873=ORIENTED_EDGE('',*,*,#650,.T.);
#874=ORIENTED_EDGE('',*,*,#631,.F.);
#875=ORIENTED_EDGE('',*,*,#647,.T.);
#876=ORIENTED_EDGE('',*,*,#641,.F.);
#877=ORIENTED_EDGE('',*,*,#651,.T.);
#878=ORIENTED_EDGE('',*,*,#644,.F.);
#879=ORIENTED_EDGE('',*,*,#652,.T.);
#880=ORIENTED_EDGE('',*,*,#636,.F.);
#881=ORIENTED_EDGE('',*,*,#653,.T.);
#882=ORIENTED_EDGE('',*,*,#605,.T.);
#883=ORIENTED_EDGE('',*,*,#565,.F.);
#884=ORIENTED_EDGE('',*,*,#561,.T.);
#885=ORIENTED_EDGE('',*,*,#554,.F.);
#886=ORIENTED_EDGE('',*,*,#552,.T.);
#887=ORIENTED_EDGE('',*,*,#546,.F.);
#888=ORIENTED_EDGE('',*,*,#543,.T.);
#889=ORIENTED_EDGE('',*,*,#534,.F.);
#890=ORIENTED_EDGE('',*,*,#604,.T.);
#891=ORIENTED_EDGE('',*,*,#599,.F.);
#892=ORIENTED_EDGE('',*,*,#596,.T.);
#893=ORIENTED_EDGE('',*,*,#589,.F.);
#894=ORIENTED_EDGE('',*,*,#587,.T.);
#895=ORIENTED_EDGE('',*,*,#581,.F.);
#896=ORIENTED_EDGE('',*,*,#578,.T.);
#897=ORIENTED_EDGE('',*,*,#570,.F.);
#898=ORIENTED_EDGE('',*,*,#654,.T.);
#899=ORIENTED_EDGE('',*,*,#655,.T.);
#900=ORIENTED_EDGE('',*,*,#656,.T.);
#901=ORIENTED_EDGE('',*,*,#657,.T.);
#902=ORIENTED_EDGE('',*,*,#643,.F.);
#903=ORIENTED_EDGE('',*,*,#639,.F.);
#904=ORIENTED_EDGE('',*,*,#645,.F.);
#905=ORIENTED_EDGE('',*,*,#651,.F.);
#906=ORIENTED_EDGE('',*,*,#630,.F.);
#907=ORIENTED_EDGE('',*,*,#635,.F.);
#908=ORIENTED_EDGE('',*,*,#625,.F.);
#909=ORIENTED_EDGE('',*,*,#640,.F.);
#910=ORIENTED_EDGE('',*,*,#613,.T.);
#911=ORIENTED_EDGE('',*,*,#658,.T.);
#912=ORIENTED_EDGE('',*,*,#659,.T.);
#913=ORIENTED_EDGE('',*,*,#610,.F.);
#914=ORIENTED_EDGE('',*,*,#660,.F.);
#915=ORIENTED_EDGE('',*,*,#661,.T.);
#916=ORIENTED_EDGE('',*,*,#660,.T.);
#917=ORIENTED_EDGE('',*,*,#611,.F.);
#918=ORIENTED_EDGE('',*,*,#659,.F.);
#919=ORIENTED_EDGE('',*,*,#662,.T.);
#920=ORIENTED_EDGE('',*,*,#663,.T.);
#921=ORIENTED_EDGE('',*,*,#608,.F.);
#922=ORIENTED_EDGE('',*,*,#664,.F.);
#923=ORIENTED_EDGE('',*,*,#665,.T.);
#924=ORIENTED_EDGE('',*,*,#664,.T.);
#925=ORIENTED_EDGE('',*,*,#609,.F.);
#926=ORIENTED_EDGE('',*,*,#663,.F.);
#927=ORIENTED_EDGE('',*,*,#666,.T.);
#928=ORIENTED_EDGE('',*,*,#667,.T.);
#929=ORIENTED_EDGE('',*,*,#606,.F.);
#930=ORIENTED_EDGE('',*,*,#668,.F.);
#931=ORIENTED_EDGE('',*,*,#669,.T.);
#932=ORIENTED_EDGE('',*,*,#668,.T.);
#933=ORIENTED_EDGE('',*,*,#607,.F.);
#934=ORIENTED_EDGE('',*,*,#667,.F.);
#935=ORIENTED_EDGE('',*,*,#648,.F.);
#936=ORIENTED_EDGE('',*,*,#670,.T.);
#937=ORIENTED_EDGE('',*,*,#671,.T.);
#938=ORIENTED_EDGE('',*,*,#670,.F.);
#939=ORIENTED_EDGE('',*,*,#671,.F.);
#940=ORIENTED_EDGE('',*,*,#662,.F.);
#941=ORIENTED_EDGE('',*,*,#665,.F.);
#942=ORIENTED_EDGE('',*,*,#649,.F.);
#943=ORIENTED_EDGE('',*,*,#672,.T.);
#944=ORIENTED_EDGE('',*,*,#673,.T.);
#945=ORIENTED_EDGE('',*,*,#672,.F.);
#946=ORIENTED_EDGE('',*,*,#673,.F.);
#947=ORIENTED_EDGE('',*,*,#658,.F.);
#948=ORIENTED_EDGE('',*,*,#661,.F.);
#949=ORIENTED_EDGE('',*,*,#650,.F.);
#950=ORIENTED_EDGE('',*,*,#674,.T.);
#951=ORIENTED_EDGE('',*,*,#675,.T.);
#952=ORIENTED_EDGE('',*,*,#674,.F.);
#953=ORIENTED_EDGE('',*,*,#675,.F.);
#954=ORIENTED_EDGE('',*,*,#666,.F.);
#955=ORIENTED_EDGE('',*,*,#669,.F.);
#956=ORIENTED_EDGE('',*,*,#657,.F.);
#957=ORIENTED_EDGE('',*,*,#676,.T.);
#958=ORIENTED_EDGE('',*,*,#677,.T.);
#959=ORIENTED_EDGE('',*,*,#676,.F.);
#960=ORIENTED_EDGE('',*,*,#677,.F.);
#961=ORIENTED_EDGE('',*,*,#656,.F.);
#962=ORIENTED_EDGE('',*,*,#678,.T.);
#963=ORIENTED_EDGE('',*,*,#679,.T.);
#964=ORIENTED_EDGE('',*,*,#678,.F.);
#965=ORIENTED_EDGE('',*,*,#679,.F.);
#966=ORIENTED_EDGE('',*,*,#655,.F.);
#967=ORIENTED_EDGE('',*,*,#680,.T.);
#968=ORIENTED_EDGE('',*,*,#681,.T.);
#969=ORIENTED_EDGE('',*,*,#680,.F.);
#970=ORIENTED_EDGE('',*,*,#681,.F.);
#971=ORIENTED_EDGE('',*,*,#654,.F.);
#972=ORIENTED_EDGE('',*,*,#682,.T.);
#973=ORIENTED_EDGE('',*,*,#683,.T.);
#974=ORIENTED_EDGE('',*,*,#682,.F.);
#975=ORIENTED_EDGE('',*,*,#683,.F.);
#976=ORIENTED_EDGE('',*,*,#632,.F.);
#977=ORIENTED_EDGE('',*,*,#653,.F.);
#978=ORIENTED_EDGE('',*,*,#638,.F.);
#979=ORIENTED_EDGE('',*,*,#634,.F.);
#980=ORIENTED_EDGE('',*,*,#637,.F.);
#981=ORIENTED_EDGE('',*,*,#652,.F.);
#982=ORIENTED_EDGE('',*,*,#646,.F.);
#983=ORIENTED_EDGE('',*,*,#624,.F.);
#984=CYLINDRICAL_SURFACE('',#1105,1.);
#985=CYLINDRICAL_SURFACE('',#1115,5.);
#986=CYLINDRICAL_SURFACE('',#1117,1.);
#987=CYLINDRICAL_SURFACE('',#1122,1.);
#988=CYLINDRICAL_SURFACE('',#1125,1.);
#989=CYLINDRICAL_SURFACE('',#1134,5.);
#990=CYLINDRICAL_SURFACE('',#1139,1.);
#991=CYLINDRICAL_SURFACE('',#1141,1.);
#992=CYLINDRICAL_SURFACE('',#1143,1.);
#993=CYLINDRICAL_SURFACE('',#1152,5.);
#994=CYLINDRICAL_SURFACE('',#1154,1.);
#995=CYLINDRICAL_SURFACE('',#1159,1.);
#996=CYLINDRICAL_SURFACE('',#1162,1.);
#997=CYLINDRICAL_SURFACE('',#1171,5.);
#998=CYLINDRICAL_SURFACE('',#1173,1.);
#999=CYLINDRICAL_SURFACE('',#1178,1.);
#1000=CYLINDRICAL_SURFACE('',#1186,6.5);
#1001=CYLINDRICAL_SURFACE('',#1200,1.);
#1002=CYLINDRICAL_SURFACE('',#1205,1.);
#1003=CYLINDRICAL_SURFACE('',#1206,1.);
#1004=CYLINDRICAL_SURFACE('',#1208,1.);
#1005=CYLINDRICAL_SURFACE('',#1209,1.);
#1006=CYLINDRICAL_SURFACE('',#1211,1.);
#1007=CYLINDRICAL_SURFACE('',#1212,1.);
#1008=CYLINDRICAL_SURFACE('',#1214,1.);
#1009=CYLINDRICAL_SURFACE('',#1227,3.25);
#1010=CYLINDRICAL_SURFACE('',#1230,3.25);
#1011=CYLINDRICAL_SURFACE('',#1233,3.25);
#1012=CYLINDRICAL_SURFACE('',#1236,5.25);
#1013=CYLINDRICAL_SURFACE('',#1239,5.25);
#1014=CYLINDRICAL_SURFACE('',#1242,5.25);
#1015=CYLINDRICAL_SURFACE('',#1245,1.5);
#1016=CYLINDRICAL_SURFACE('',#1248,1.5);
#1017=CYLINDRICAL_SURFACE('',#1251,1.5);
#1018=CYLINDRICAL_SURFACE('',#1254,1.5);
#1019=ADVANCED_FACE('',(#68),#984,.F.);
#1020=ADVANCED_FACE('',(#69),#56,.F.);
#1021=ADVANCED_FACE('',(#70),#52,.F.);
#1022=ADVANCED_FACE('',(#71),#985,.T.);
#1023=ADVANCED_FACE('',(#72),#986,.F.);
#1024=ADVANCED_FACE('',(#73),#57,.F.);
#1025=ADVANCED_FACE('',(#74),#987,.F.);
#1026=ADVANCED_FACE('',(#75),#31,.F.);
#1027=ADVANCED_FACE('',(#76),#988,.F.);
#1028=ADVANCED_FACE('',(#77),#58,.F.);
#1029=ADVANCED_FACE('',(#78),#53,.F.);
#1030=ADVANCED_FACE('',(#79),#989,.T.);
#1031=ADVANCED_FACE('',(#80),#59,.F.);
#1032=ADVANCED_FACE('',(#81),#990,.F.);
#1033=ADVANCED_FACE('',(#82),#991,.F.);
#1034=ADVANCED_FACE('',(#83),#992,.F.);
#1035=ADVANCED_FACE('',(#84),#60,.F.);
#1036=ADVANCED_FACE('',(#85),#54,.F.);
#1037=ADVANCED_FACE('',(#86),#993,.T.);
#1038=ADVANCED_FACE('',(#87),#994,.F.);
#1039=ADVANCED_FACE('',(#88),#61,.F.);
#1040=ADVANCED_FACE('',(#89),#995,.F.);
#1041=ADVANCED_FACE('',(#90),#32,.F.);
#1042=ADVANCED_FACE('',(#91),#996,.F.);
#1043=ADVANCED_FACE('',(#92),#62,.F.);
#1044=ADVANCED_FACE('',(#93),#55,.F.);
#1045=ADVANCED_FACE('',(#94),#997,.T.);
#1046=ADVANCED_FACE('',(#95),#998,.F.);
#1047=ADVANCED_FACE('',(#96),#63,.F.);
#1048=ADVANCED_FACE('',(#97),#999,.F.);
#1049=ADVANCED_FACE('',(#98),#33,.F.);
#1050=ADVANCED_FACE('',(#99,#15,#16,#17),#34,.F.);
#1051=ADVANCED_FACE('',(#100,#18),#35,.F.);
#1052=ADVANCED_FACE('',(#101),#1000,.F.);
#1053=ADVANCED_FACE('',(#102),#64,.T.);
#1054=ADVANCED_FACE('',(#103),#65,.T.);
#1055=ADVANCED_FACE('',(#104),#66,.T.);
#1056=ADVANCED_FACE('',(#105),#1001,.T.);
#1057=ADVANCED_FACE('',(#106),#67,.T.);
#1058=ADVANCED_FACE('',(#107),#1002,.T.);
#1059=ADVANCED_FACE('',(#108),#1003,.T.);
#1060=ADVANCED_FACE('',(#109),#1004,.T.);
#1061=ADVANCED_FACE('',(#110),#1005,.T.);
#1062=ADVANCED_FACE('',(#111),#1006,.T.);
#1063=ADVANCED_FACE('',(#112),#1007,.T.);
#1064=ADVANCED_FACE('',(#113),#1008,.T.);
#1065=ADVANCED_FACE('',(#114,#19,#20,#21),#36,.T.);
#1066=ADVANCED_FACE('',(#115,#22,#23,#24,#25,#26),#37,.T.);
#1067=ADVANCED_FACE('',(#116),#38,.T.);
#1068=ADVANCED_FACE('',(#117,#27),#39,.F.);
#1069=ADVANCED_FACE('',(#118),#1009,.F.);
#1070=ADVANCED_FACE('',(#119),#40,.F.);
#1071=ADVANCED_FACE('',(#120),#1010,.F.);
#1072=ADVANCED_FACE('',(#121),#41,.F.);
#1073=ADVANCED_FACE('',(#122),#1011,.F.);
#1074=ADVANCED_FACE('',(#123),#42,.F.);
#1075=ADVANCED_FACE('',(#124),#1012,.F.);
#1076=ADVANCED_FACE('',(#125,#28),#43,.T.);
#1077=ADVANCED_FACE('',(#126),#1013,.F.);
#1078=ADVANCED_FACE('',(#127,#29),#44,.T.);
#1079=ADVANCED_FACE('',(#128),#1014,.F.);
#1080=ADVANCED_FACE('',(#129,#30),#45,.T.);
#1081=ADVANCED_FACE('',(#130),#1015,.F.);
#1082=ADVANCED_FACE('',(#131),#46,.T.);
#1083=ADVANCED_FACE('',(#132),#1016,.F.);
#1084=ADVANCED_FACE('',(#133),#47,.T.);
#1085=ADVANCED_FACE('',(#134),#1017,.F.);
#1086=ADVANCED_FACE('',(#135),#48,.T.);
#1087=ADVANCED_FACE('',(#136),#1018,.F.);
#1088=ADVANCED_FACE('',(#137),#49,.T.);
#1089=ADVANCED_FACE('',(#138),#50,.T.);
#1090=ADVANCED_FACE('',(#139),#51,.T.);
#1091=CLOSED_SHELL('',(#1019,#1020,#1021,#1022,#1023,#1024,#1025,#1026,
#1027,#1028,#1029,#1030,#1031,#1032,#1033,#1034,#1035,#1036,#1037,#1038,
#1039,#1040,#1041,#1042,#1043,#1044,#1045,#1046,#1047,#1048,#1049,#1050,
#1051,#1052,#1053,#1054,#1055,#1056,#1057,#1058,#1059,#1060,#1061,#1062,
#1063,#1064,#1065,#1066,#1067,#1068,#1069,#1070,#1071,#1072,#1073,#1074,
#1075,#1076,#1077,#1078,#1079,#1080,#1081,#1082,#1083,#1084,#1085,#1086,
#1087,#1088,#1089,#1090));
#1092=DERIVED_UNIT_ELEMENT(#1094,1.);
#1093=DERIVED_UNIT_ELEMENT(#1953,-3.);
#1094=(
MASS_UNIT()
NAMED_UNIT(*)
SI_UNIT(.KILO.,.GRAM.)
);
#1095=DERIVED_UNIT((#1092,#1093));
#1096=MEASURE_REPRESENTATION_ITEM('density measure',
POSITIVE_RATIO_MEASURE(7850.),#1095);
#1097=PROPERTY_DEFINITION_REPRESENTATION(#1102,#1099);
#1098=PROPERTY_DEFINITION_REPRESENTATION(#1103,#1100);
#1099=REPRESENTATION('material name',(#1101),#1950);
#1100=REPRESENTATION('density',(#1096),#1950);
#1101=DESCRIPTIVE_REPRESENTATION_ITEM('Steel','Steel');
#1102=PROPERTY_DEFINITION('material property','material name',#1960);
#1103=PROPERTY_DEFINITION('material property','density of part',#1960);
#1104=AXIS2_PLACEMENT_3D('',#1637,#1259,#1260);
#1105=AXIS2_PLACEMENT_3D('',#1638,#1261,#1262);
#1106=AXIS2_PLACEMENT_3D('',#1641,#1263,#1264);
#1107=AXIS2_PLACEMENT_3D('',#1645,#1266,#1267);
#1108=AXIS2_PLACEMENT_3D('',#1647,#1269,#1270);
#1109=AXIS2_PLACEMENT_3D('',#1649,#1271,#1272);
#1110=AXIS2_PLACEMENT_3D('',#1650,#1273,#1274);
#1111=AXIS2_PLACEMENT_3D('',#1651,#1275,#1276);
#1112=AXIS2_PLACEMENT_3D('',#1653,#1277,#1278);
#1113=AXIS2_PLACEMENT_3D('',#1655,#1279,#1280);
#1114=AXIS2_PLACEMENT_3D('',#1656,#1281,#1282);
#1115=AXIS2_PLACEMENT_3D('',#1657,#1283,#1284);
#1116=AXIS2_PLACEMENT_3D('',#1659,#1285,#1286);
#1117=AXIS2_PLACEMENT_3D('',#1661,#1288,#1289);
#1118=AXIS2_PLACEMENT_3D('',#1663,#1290,#1291);
#1119=AXIS2_PLACEMENT_3D('',#1665,#1292,#1293);
#1120=AXIS2_PLACEMENT_3D('',#1667,#1295,#1296);
#1121=AXIS2_PLACEMENT_3D('',#1668,#1297,#1298);
#1122=AXIS2_PLACEMENT_3D('',#1669,#1299,#1300);
#1123=AXIS2_PLACEMENT_3D('',#1673,#1302,#1303);
#1124=AXIS2_PLACEMENT_3D('',#1675,#1305,#1306);
#1125=AXIS2_PLACEMENT_3D('',#1679,#1309,#1310);
#1126=AXIS2_PLACEMENT_3D('',#1681,#1311,#1312);
#1127=AXIS2_PLACEMENT_3D('',#1684,#1314,#1315);
#1128=AXIS2_PLACEMENT_3D('',#1685,#1316,#1317);
#1129=AXIS2_PLACEMENT_3D('',#1686,#1318,#1319);
#1130=AXIS2_PLACEMENT_3D('',#1687,#1320,#1321);
#1131=AXIS2_PLACEMENT_3D('',#1689,#1322,#1323);
#1132=AXIS2_PLACEMENT_3D('',#1691,#1324,#1325);
#1133=AXIS2_PLACEMENT_3D('',#1692,#1326,#1327);
#1134=AXIS2_PLACEMENT_3D('',#1693,#1328,#1329);
#1135=AXIS2_PLACEMENT_3D('',#1695,#1330,#1331);
#1136=AXIS2_PLACEMENT_3D('',#1697,#1333,#1334);
#1137=AXIS2_PLACEMENT_3D('',#1699,#1335,#1336);
#1138=AXIS2_PLACEMENT_3D('',#1700,#1337,#1338);
#1139=AXIS2_PLACEMENT_3D('',#1701,#1339,#1340);
#1140=AXIS2_PLACEMENT_3D('',#1703,#1341,#1342);
#1141=AXIS2_PLACEMENT_3D('',#1705,#1344,#1345);
#1142=AXIS2_PLACEMENT_3D('',#1709,#1347,#1348);
#1143=AXIS2_PLACEMENT_3D('',#1711,#1350,#1351);
#1144=AXIS2_PLACEMENT_3D('',#1714,#1352,#1353);
#1145=AXIS2_PLACEMENT_3D('',#1717,#1355,#1356);
#1146=AXIS2_PLACEMENT_3D('',#1719,#1358,#1359);
#1147=AXIS2_PLACEMENT_3D('',#1720,#1360,#1361);
#1148=AXIS2_PLACEMENT_3D('',#1721,#1362,#1363);
#1149=AXIS2_PLACEMENT_3D('',#1723,#1364,#1365);
#1150=AXIS2_PLACEMENT_3D('',#1725,#1366,#1367);
#1151=AXIS2_PLACEMENT_3D('',#1726,#1368,#1369);
#1152=AXIS2_PLACEMENT_3D('',#1727,#1370,#1371);
#1153=AXIS2_PLACEMENT_3D('',#1729,#1372,#1373);
#1154=AXIS2_PLACEMENT_3D('',#1731,#1375,#1376);
#1155=AXIS2_PLACEMENT_3D('',#1733,#1377,#1378);
#1156=AXIS2_PLACEMENT_3D('',#1735,#1379,#1380);
#1157=AXIS2_PLACEMENT_3D('',#1737,#1382,#1383);
#1158=AXIS2_PLACEMENT_3D('',#1738,#1384,#1385);
#1159=AXIS2_PLACEMENT_3D('',#1739,#1386,#1387);
#1160=AXIS2_PLACEMENT_3D('',#1743,#1389,#1390);
#1161=AXIS2_PLACEMENT_3D('',#1745,#1392,#1393);
#1162=AXIS2_PLACEMENT_3D('',#1749,#1396,#1397);
#1163=AXIS2_PLACEMENT_3D('',#1751,#1398,#1399);
#1164=AXIS2_PLACEMENT_3D('',#1754,#1401,#1402);
#1165=AXIS2_PLACEMENT_3D('',#1755,#1403,#1404);
#1166=AXIS2_PLACEMENT_3D('',#1756,#1405,#1406);
#1167=AXIS2_PLACEMENT_3D('',#1757,#1407,#1408);
#1168=AXIS2_PLACEMENT_3D('',#1759,#1409,#1410);
#1169=AXIS2_PLACEMENT_3D('',#1761,#1411,#1412);
#1170=AXIS2_PLACEMENT_3D('',#1762,#1413,#1414);
#1171=AXIS2_PLACEMENT_3D('',#1763,#1415,#1416);
#1172=AXIS2_PLACEMENT_3D('',#1765,#1417,#1418);
#1173=AXIS2_PLACEMENT_3D('',#1767,#1420,#1421);
#1174=AXIS2_PLACEMENT_3D('',#1769,#1422,#1423);
#1175=AXIS2_PLACEMENT_3D('',#1771,#1424,#1425);
#1176=AXIS2_PLACEMENT_3D('',#1773,#1427,#1428);
#1177=AXIS2_PLACEMENT_3D('',#1774,#1429,#1430);
#1178=AXIS2_PLACEMENT_3D('',#1775,#1431,#1432);
#1179=AXIS2_PLACEMENT_3D('',#1778,#1435,#1436);
#1180=AXIS2_PLACEMENT_3D('',#1780,#1438,#1439);
#1181=AXIS2_PLACEMENT_3D('',#1784,#1441,#1442);
#1182=AXIS2_PLACEMENT_3D('',#1788,#1444,#1445);
#1183=AXIS2_PLACEMENT_3D('',#1792,#1447,#1448);
#1184=AXIS2_PLACEMENT_3D('',#1794,#1450,#1451);
#1185=AXIS2_PLACEMENT_3D('',#1796,#1452,#1453);
#1186=AXIS2_PLACEMENT_3D('',#1797,#1454,#1455);
#1187=AXIS2_PLACEMENT_3D('',#1799,#1456,#1457);
#1188=AXIS2_PLACEMENT_3D('',#1801,#1459,#1460);
#1189=AXIS2_PLACEMENT_3D('',#1804,#1461,#1462);
#1190=AXIS2_PLACEMENT_3D('',#1806,#1463,#1464);
#1191=AXIS2_PLACEMENT_3D('',#1807,#1465,#1466);
#1192=AXIS2_PLACEMENT_3D('',#1808,#1467,#1468);
#1193=AXIS2_PLACEMENT_3D('',#1811,#1469,#1470);
#1194=AXIS2_PLACEMENT_3D('',#1813,#1471,#1472);
#1195=AXIS2_PLACEMENT_3D('',#1814,#1473,#1474);
#1196=AXIS2_PLACEMENT_3D('',#1815,#1475,#1476);
#1197=AXIS2_PLACEMENT_3D('',#1818,#1477,#1478);
#1198=AXIS2_PLACEMENT_3D('',#1820,#1479,#1480);
#1199=AXIS2_PLACEMENT_3D('',#1821,#1481,#1482);
#1200=AXIS2_PLACEMENT_3D('',#1822,#1483,#1484);
#1201=AXIS2_PLACEMENT_3D('',#1825,#1487,#1488);
#1202=AXIS2_PLACEMENT_3D('',#1828,#1489,#1490);
#1203=AXIS2_PLACEMENT_3D('',#1830,#1491,#1492);
#1204=AXIS2_PLACEMENT_3D('',#1831,#1493,#1494);
#1205=AXIS2_PLACEMENT_3D('',#1832,#1495,#1496);
#1206=AXIS2_PLACEMENT_3D('',#1835,#1499,#1500);
#1207=AXIS2_PLACEMENT_3D('',#1838,#1501,#1502);
#1208=AXIS2_PLACEMENT_3D('',#1841,#1505,#1506);
#1209=AXIS2_PLACEMENT_3D('',#1844,#1509,#1510);
#1210=AXIS2_PLACEMENT_3D('',#1847,#1511,#1512);
#1211=AXIS2_PLACEMENT_3D('',#1850,#1515,#1516);
#1212=AXIS2_PLACEMENT_3D('',#1853,#1519,#1520);
#1213=AXIS2_PLACEMENT_3D('',#1856,#1521,#1522);
#1214=AXIS2_PLACEMENT_3D('',#1859,#1525,#1526);
#1215=AXIS2_PLACEMENT_3D('',#1862,#1527,#1528);
#1216=AXIS2_PLACEMENT_3D('',#1865,#1531,#1532);
#1217=AXIS2_PLACEMENT_3D('',#1868,#1534,#1535);
#1218=AXIS2_PLACEMENT_3D('',#1870,#1536,#1537);
#1219=AXIS2_PLACEMENT_3D('',#1872,#1538,#1539);
#1220=AXIS2_PLACEMENT_3D('',#1873,#1540,#1541);
#1221=AXIS2_PLACEMENT_3D('',#1878,#1545,#1546);
#1222=AXIS2_PLACEMENT_3D('',#1880,#1547,#1548);
#1223=AXIS2_PLACEMENT_3D('',#1882,#1549,#1550);
#1224=AXIS2_PLACEMENT_3D('',#1884,#1551,#1552);
#1225=AXIS2_PLACEMENT_3D('',#1885,#1553,#1554);
#1226=AXIS2_PLACEMENT_3D('',#1886,#1555,#1556);
#1227=AXIS2_PLACEMENT_3D('',#1887,#1557,#1558);
#1228=AXIS2_PLACEMENT_3D('',#1890,#1559,#1560);
#1229=AXIS2_PLACEMENT_3D('',#1893,#1563,#1564);
#1230=AXIS2_PLACEMENT_3D('',#1895,#1566,#1567);
#1231=AXIS2_PLACEMENT_3D('',#1898,#1568,#1569);
#1232=AXIS2_PLACEMENT_3D('',#1901,#1572,#1573);
#1233=AXIS2_PLACEMENT_3D('',#1903,#1575,#1576);
#1234=AXIS2_PLACEMENT_3D('',#1906,#1577,#1578);
#1235=AXIS2_PLACEMENT_3D('',#1909,#1581,#1582);
#1236=AXIS2_PLACEMENT_3D('',#1911,#1584,#1585);
#1237=AXIS2_PLACEMENT_3D('',#1914,#1587,#1588);
#1238=AXIS2_PLACEMENT_3D('',#1915,#1589,#1590);
#1239=AXIS2_PLACEMENT_3D('',#1916,#1591,#1592);
#1240=AXIS2_PLACEMENT_3D('',#1919,#1594,#1595);
#1241=AXIS2_PLACEMENT_3D('',#1920,#1596,#1597);
#1242=AXIS2_PLACEMENT_3D('',#1921,#1598,#1599);
#1243=AXIS2_PLACEMENT_3D('',#1924,#1601,#1602);
#1244=AXIS2_PLACEMENT_3D('',#1925,#1603,#1604);
#1245=AXIS2_PLACEMENT_3D('',#1926,#1605,#1606);
#1246=AXIS2_PLACEMENT_3D('',#1929,#1608,#1609);
#1247=AXIS2_PLACEMENT_3D('',#1930,#1610,#1611);
#1248=AXIS2_PLACEMENT_3D('',#1931,#1612,#1613);
#1249=AXIS2_PLACEMENT_3D('',#1934,#1615,#1616);
#1250=AXIS2_PLACEMENT_3D('',#1935,#1617,#1618);
#1251=AXIS2_PLACEMENT_3D('',#1936,#1619,#1620);
#1252=AXIS2_PLACEMENT_3D('',#1939,#1622,#1623);
#1253=AXIS2_PLACEMENT_3D('',#1940,#1624,#1625);
#1254=AXIS2_PLACEMENT_3D('',#1941,#1626,#1627);
#1255=AXIS2_PLACEMENT_3D('',#1944,#1629,#1630);
#1256=AXIS2_PLACEMENT_3D('',#1945,#1631,#1632);
#1257=AXIS2_PLACEMENT_3D('',#1946,#1633,#1634);
#1258=AXIS2_PLACEMENT_3D('',#1947,#1635,#1636);
#1259=DIRECTION('axis',(0.,0.,1.));
#1260=DIRECTION('refdir',(1.,0.,0.));
#1261=DIRECTION('center_axis',(0.,-1.,0.));
#1262=DIRECTION('ref_axis',(-0.707106781186548,0.,0.707106781186548));
#1263=DIRECTION('center_axis',(0.,1.,0.));
#1264=DIRECTION('ref_axis',(-0.707106781186548,0.,0.707106781186548));
#1265=DIRECTION('',(0.,-1.,0.));
#1266=DIRECTION('center_axis',(-4.44089209850064E-15,-1.,0.));
#1267=DIRECTION('ref_axis',(0.,0.,1.));
#1268=DIRECTION('',(0.,1.,0.));
#1269=DIRECTION('center_axis',(0.40824829046386,-0.816496580927729,-0.40824829046386));
#1270=DIRECTION('ref_axis',(-0.577350269189628,-0.577350269189622,0.577350269189628));
#1271=DIRECTION('center_axis',(1.,0.,0.));
#1272=DIRECTION('ref_axis',(0.,0.,1.));
#1273=DIRECTION('center_axis',(0.,0.,-1.));
#1274=DIRECTION('ref_axis',(-0.707106781186546,-0.707106781186549,0.));
#1275=DIRECTION('center_axis',(0.,-1.,0.));
#1276=DIRECTION('ref_axis',(0.,0.,-1.));
#1277=DIRECTION('center_axis',(0.,-1.,0.));
#1278=DIRECTION('ref_axis',(0.707106781186548,0.,-0.707106781186548));
#1279=DIRECTION('center_axis',(0.,0.,-1.));
#1280=DIRECTION('ref_axis',(-1.,0.,0.));
#1281=DIRECTION('center_axis',(0.,1.,0.));
#1282=DIRECTION('ref_axis',(0.707106781186548,0.,-0.707106781186548));
#1283=DIRECTION('center_axis',(0.,-1.,0.));
#1284=DIRECTION('ref_axis',(-1.,0.,0.));
#1285=DIRECTION('center_axis',(0.,1.,0.));
#1286=DIRECTION('ref_axis',(-1.,0.,0.));
#1287=DIRECTION('',(0.,1.,0.));
#1288=DIRECTION('center_axis',(0.,1.,0.));
#1289=DIRECTION('ref_axis',(-0.707106781186548,0.,0.707106781186548));
#1290=DIRECTION('center_axis',(0.,-1.,4.44089209850064E-15));
#1291=DIRECTION('ref_axis',(0.,4.44089209850064E-15,1.));
#1292=DIRECTION('center_axis',(0.,1.,0.));
#1293=DIRECTION('ref_axis',(-0.707106781186548,0.,0.707106781186548));
#1294=DIRECTION('',(0.,-1.,0.));
#1295=DIRECTION('center_axis',(0.40824829046386,-0.816496580927729,-0.40824829046386));
#1296=DIRECTION('ref_axis',(-0.577350269189628,-0.577350269189622,0.577350269189628));
#1297=DIRECTION('center_axis',(1.,0.,0.));
#1298=DIRECTION('ref_axis',(0.,-0.707106781186549,0.707106781186546));
#1299=DIRECTION('center_axis',(-1.,0.,0.));
#1300=DIRECTION('ref_axis',(0.,-0.707106781186549,0.707106781186546));
#1301=DIRECTION('',(1.,0.,0.));
#1302=DIRECTION('center_axis',(-1.,0.,0.));
#1303=DIRECTION('ref_axis',(0.,-0.707106781186549,0.707106781186546));
#1304=DIRECTION('',(-1.,0.,0.));
#1305=DIRECTION('center_axis',(0.,0.,1.));
#1306=DIRECTION('ref_axis',(-1.,0.,0.));
#1307=DIRECTION('',(-1.,0.,0.));
#1308=DIRECTION('',(0.,1.,0.));
#1309=DIRECTION('center_axis',(0.,-1.,0.));
#1310=DIRECTION('ref_axis',(0.707106781186548,0.,0.707106781186548));
#1311=DIRECTION('center_axis',(0.,1.,0.));
#1312=DIRECTION('ref_axis',(0.707106781186548,0.,0.707106781186548));
#1313=DIRECTION('',(0.,-1.,0.));
#1314=DIRECTION('center_axis',(0.,-1.,4.44089209850064E-15));
#1315=DIRECTION('ref_axis',(1.,0.,0.));
#1316=DIRECTION('center_axis',(-0.40824829046386,-0.816496580927729,-0.40824829046386));
#1317=DIRECTION('ref_axis',(0.577350269189628,-0.577350269189622,0.577350269189628));
#1318=DIRECTION('center_axis',(0.,0.,-1.));
#1319=DIRECTION('ref_axis',(1.,0.,0.));
#1320=DIRECTION('center_axis',(0.,-1.,0.));
#1321=DIRECTION('ref_axis',(0.,0.,-1.));
#1322=DIRECTION('center_axis',(0.,-1.,0.));
#1323=DIRECTION('ref_axis',(-0.707106781186548,0.,-0.707106781186548));
#1324=DIRECTION('center_axis',(-1.,0.,0.));
#1325=DIRECTION('ref_axis',(0.,0.,1.));
#1326=DIRECTION('center_axis',(0.,1.,0.));
#1327=DIRECTION('ref_axis',(-0.707106781186548,0.,-0.707106781186548));
#1328=DIRECTION('center_axis',(0.,-1.,0.));
#1329=DIRECTION('ref_axis',(-1.,0.,0.));
#1330=DIRECTION('center_axis',(0.,1.,0.));
#1331=DIRECTION('ref_axis',(-1.,0.,0.));
#1332=DIRECTION('',(0.,1.,0.));
#1333=DIRECTION('center_axis',(-0.40824829046386,-0.816496580927729,-0.40824829046386));
#1334=DIRECTION('ref_axis',(0.577350269189628,-0.577350269189622,0.577350269189628));
#1335=DIRECTION('center_axis',(-4.44089209850064E-15,1.,0.));
#1336=DIRECTION('ref_axis',(0.,0.,1.));
#1337=DIRECTION('center_axis',(0.,0.,-1.));
#1338=DIRECTION('ref_axis',(0.707106781186546,-0.707106781186549,0.));
#1339=DIRECTION('center_axis',(0.,1.,0.));
#1340=DIRECTION('ref_axis',(0.707106781186548,0.,0.707106781186548));
#1341=DIRECTION('center_axis',(0.,1.,0.));
#1342=DIRECTION('ref_axis',(0.707106781186548,0.,0.707106781186548));
#1343=DIRECTION('',(0.,-1.,0.));
#1344=DIRECTION('center_axis',(0.,0.,1.));
#1345=DIRECTION('ref_axis',(0.707106781186546,-0.707106781186549,0.));
#1346=DIRECTION('',(0.,0.,-1.));
#1347=DIRECTION('center_axis',(0.,0.,1.));
#1348=DIRECTION('ref_axis',(0.707106781186546,-0.707106781186549,0.));
#1349=DIRECTION('',(0.,0.,1.));
#1350=DIRECTION('center_axis',(0.,-1.,0.));
#1351=DIRECTION('ref_axis',(0.707106781186548,0.,-0.707106781186548));
#1352=DIRECTION('center_axis',(0.,1.,0.));
#1353=DIRECTION('ref_axis',(0.707106781186548,0.,-0.707106781186548));
#1354=DIRECTION('',(0.,-1.,0.));
#1355=DIRECTION('center_axis',(4.44089209850064E-15,-1.,0.));
#1356=DIRECTION('ref_axis',(0.,0.,-1.));
#1357=DIRECTION('',(0.,1.,0.));
#1358=DIRECTION('center_axis',(-0.40824829046386,-0.816496580927729,0.40824829046386));
#1359=DIRECTION('ref_axis',(0.577350269189628,-0.577350269189622,-0.577350269189628));
#1360=DIRECTION('center_axis',(-1.,0.,0.));
#1361=DIRECTION('ref_axis',(0.,0.,-1.));
#1362=DIRECTION('center_axis',(0.,-1.,0.));
#1363=DIRECTION('ref_axis',(0.,0.,-1.));
#1364=DIRECTION('center_axis',(0.,-1.,0.));
#1365=DIRECTION('ref_axis',(-0.707106781186548,0.,0.707106781186548));
#1366=DIRECTION('center_axis',(0.,0.,1.));
#1367=DIRECTION('ref_axis',(1.,0.,0.));
#1368=DIRECTION('center_axis',(0.,1.,0.));
#1369=DIRECTION('ref_axis',(-0.707106781186548,0.,0.707106781186548));
#1370=DIRECTION('center_axis',(0.,-1.,0.));
#1371=DIRECTION('ref_axis',(-1.,0.,0.));
#1372=DIRECTION('center_axis',(0.,1.,0.));
#1373=DIRECTION('ref_axis',(-1.,0.,0.));
#1374=DIRECTION('',(0.,1.,0.));
#1375=DIRECTION('center_axis',(0.,1.,0.));
#1376=DIRECTION('ref_axis',(0.707106781186548,0.,-0.707106781186548));
#1377=DIRECTION('center_axis',(0.,-1.,-4.44089209850064E-15));
#1378=DIRECTION('ref_axis',(0.,4.44089209850064E-15,-1.));
#1379=DIRECTION('center_axis',(0.,1.,0.));
#1380=DIRECTION('ref_axis',(0.707106781186548,0.,-0.707106781186548));
#1381=DIRECTION('',(0.,-1.,0.));
#1382=DIRECTION('center_axis',(-0.40824829046386,-0.816496580927729,0.40824829046386));
#1383=DIRECTION('ref_axis',(0.577350269189628,-0.577350269189622,-0.577350269189628));
#1384=DIRECTION('center_axis',(-1.,0.,0.));
#1385=DIRECTION('ref_axis',(0.,-0.707106781186549,-0.707106781186546));
#1386=DIRECTION('center_axis',(1.,0.,0.));
#1387=DIRECTION('ref_axis',(0.,-0.707106781186549,-0.707106781186546));
#1388=DIRECTION('',(-1.,0.,0.));
#1389=DIRECTION('center_axis',(1.,0.,0.));
#1390=DIRECTION('ref_axis',(0.,-0.707106781186549,-0.707106781186546));
#1391=DIRECTION('',(1.,0.,0.));
#1392=DIRECTION('center_axis',(0.,0.,-1.));
#1393=DIRECTION('ref_axis',(1.,0.,0.));
#1394=DIRECTION('',(1.,0.,0.));
#1395=DIRECTION('',(0.,1.,0.));
#1396=DIRECTION('center_axis',(0.,-1.,0.));
#1397=DIRECTION('ref_axis',(-0.707106781186548,0.,-0.707106781186548));
#1398=DIRECTION('center_axis',(0.,1.,0.));
#1399=DIRECTION('ref_axis',(-0.707106781186548,0.,-0.707106781186548));
#1400=DIRECTION('',(0.,-1.,0.));
#1401=DIRECTION('center_axis',(0.,-1.,-4.44089209850064E-15));
#1402=DIRECTION('ref_axis',(-1.,0.,0.));
#1403=DIRECTION('center_axis',(0.40824829046386,-0.816496580927729,0.40824829046386));
#1404=DIRECTION('ref_axis',(-0.577350269189628,-0.577350269189622,-0.577350269189628));
#1405=DIRECTION('center_axis',(0.,0.,1.));
#1406=DIRECTION('ref_axis',(-1.,0.,0.));
#1407=DIRECTION('center_axis',(0.,-1.,0.));
#1408=DIRECTION('ref_axis',(0.,0.,-1.));
#1409=DIRECTION('center_axis',(0.,-1.,0.));
#1410=DIRECTION('ref_axis',(0.707106781186548,0.,0.707106781186548));
#1411=DIRECTION('center_axis',(1.,0.,0.));
#1412=DIRECTION('ref_axis',(0.,0.,-1.));
#1413=DIRECTION('center_axis',(0.,1.,0.));
#1414=DIRECTION('ref_axis',(0.707106781186548,0.,0.707106781186548));
#1415=DIRECTION('center_axis',(0.,-1.,0.));
#1416=DIRECTION('ref_axis',(-1.,0.,0.));
#1417=DIRECTION('center_axis',(0.,1.,0.));
#1418=DIRECTION('ref_axis',(-1.,0.,0.));
#1419=DIRECTION('',(0.,1.,0.));
#1420=DIRECTION('center_axis',(0.,1.,0.));
#1421=DIRECTION('ref_axis',(-0.707106781186548,0.,-0.707106781186548));
#1422=DIRECTION('center_axis',(-4.44089209850064E-15,-1.,0.));
#1423=DIRECTION('ref_axis',(-1.,4.44089209850064E-15,0.));
#1424=DIRECTION('center_axis',(0.,1.,0.));
#1425=DIRECTION('ref_axis',(-0.707106781186548,0.,-0.707106781186548));
#1426=DIRECTION('',(0.,-1.,0.));
#1427=DIRECTION('center_axis',(0.40824829046386,-0.816496580927729,0.40824829046386));
#1428=DIRECTION('ref_axis',(-0.577350269189628,-0.577350269189622,-0.577350269189628));
#1429=DIRECTION('center_axis',(0.,0.,1.));
#1430=DIRECTION('ref_axis',(-0.707106781186546,-0.707106781186549,0.));
#1431=DIRECTION('center_axis',(0.,0.,-1.));
#1432=DIRECTION('ref_axis',(-0.707106781186546,-0.707106781186549,0.));
#1433=DIRECTION('',(0.,0.,-1.));
#1434=DIRECTION('',(0.,0.,1.));
#1435=DIRECTION('center_axis',(-1.,0.,0.));
#1436=DIRECTION('ref_axis',(0.,0.,-1.));
#1437=DIRECTION('',(0.,0.,-1.));
#1438=DIRECTION('center_axis',(1.,0.,0.));
#1439=DIRECTION('ref_axis',(0.,0.,1.));
#1440=DIRECTION('',(0.,0.,1.));
#1441=DIRECTION('center_axis',(1.,0.,0.));
#1442=DIRECTION('ref_axis',(0.,0.,-1.));
#1443=DIRECTION('',(0.,1.,0.));
#1444=DIRECTION('center_axis',(1.,0.,0.));
#1445=DIRECTION('ref_axis',(0.,0.,-1.));
#1446=DIRECTION('',(0.,0.999999999999996,9.12330134899888E-8));
#1447=DIRECTION('center_axis',(1.,0.,0.));
#1448=DIRECTION('ref_axis',(0.,0.,-1.));
#1449=DIRECTION('',(0.,1.,-1.60246890531964E-16));
#1450=DIRECTION('center_axis',(0.,-1.,0.));
#1451=DIRECTION('ref_axis',(0.,0.,-1.));
#1452=DIRECTION('center_axis',(0.,-1.,0.));
#1453=DIRECTION('ref_axis',(1.,0.,0.));
#1454=DIRECTION('center_axis',(0.,1.,0.));
#1455=DIRECTION('ref_axis',(1.,0.,0.));
#1456=DIRECTION('center_axis',(0.,1.,0.));
#1457=DIRECTION('ref_axis',(1.,0.,0.));
#1458=DIRECTION('',(0.,1.,0.));
#1459=DIRECTION('center_axis',(-0.816496580927727,0.408248290463864,0.40824829046386));
#1460=DIRECTION('ref_axis',(-0.577350269189624,-0.577350269189629,-0.577350269189624));
#1461=DIRECTION('center_axis',(0.,-1.,0.));
#1462=DIRECTION('ref_axis',(0.,0.,-1.));
#1463=DIRECTION('center_axis',(-1.,0.,0.));
#1464=DIRECTION('ref_axis',(0.,-1.,0.));
#1465=DIRECTION('center_axis',(0.,0.,-1.));
#1466=DIRECTION('ref_axis',(-1.,0.,0.));
#1467=DIRECTION('center_axis',(-0.816496580927727,-0.408248290463864,-0.40824829046386));
#1468=DIRECTION('ref_axis',(0.577350269189624,-0.577350269189629,-0.577350269189624));
#1469=DIRECTION('center_axis',(0.,-1.,0.));
#1470=DIRECTION('ref_axis',(1.,0.,0.));
#1471=DIRECTION('center_axis',(0.,0.,-1.));
#1472=DIRECTION('ref_axis',(0.,-1.,0.));
#1473=DIRECTION('center_axis',(1.,0.,0.));
#1474=DIRECTION('ref_axis',(0.,0.,-1.));
#1475=DIRECTION('center_axis',(-0.408248290463861,-0.408248290463861,-0.816496580927728));
#1476=DIRECTION('ref_axis',(-0.57735026918963,-0.577350269189625,0.577350269189622));
#1477=DIRECTION('center_axis',(0.,-1.,0.));
#1478=DIRECTION('ref_axis',(-1.,0.,0.));
#1479=DIRECTION('center_axis',(0.,0.,1.));
#1480=DIRECTION('ref_axis',(0.,-1.,0.));
#1481=DIRECTION('center_axis',(-1.,-8.88178419700125E-15,0.));
#1482=DIRECTION('ref_axis',(0.,0.,1.));
#1483=DIRECTION('center_axis',(-1.48029736616688E-16,0.,1.));
#1484=DIRECTION('ref_axis',(-0.707106781186546,-0.707106781186549,0.));
#1485=DIRECTION('',(1.48029736616688E-16,0.,-1.));
#1486=DIRECTION('',(-1.48029736616688E-16,0.,1.));
#1487=DIRECTION('center_axis',(0.408248290463862,-0.408248290463856,-0.81649658092773));
#1488=DIRECTION('ref_axis',(0.577350269189632,-0.577350269189629,0.577350269189617));
#1489=DIRECTION('center_axis',(1.,0.,0.));
#1490=DIRECTION('ref_axis',(0.,-1.,0.));
#1491=DIRECTION('center_axis',(0.,-8.88178419700125E-15,1.));
#1492=DIRECTION('ref_axis',(1.,0.,0.));
#1493=DIRECTION('center_axis',(0.,-1.,0.));
#1494=DIRECTION('ref_axis',(0.,0.,1.));
#1495=DIRECTION('center_axis',(0.,0.,-1.));
#1496=DIRECTION('ref_axis',(0.707106781186546,-0.707106781186549,0.));
#1497=DIRECTION('',(0.,0.,1.));
#1498=DIRECTION('',(0.,0.,-1.));
#1499=DIRECTION('center_axis',(0.,1.,0.));
#1500=DIRECTION('ref_axis',(0.707106781186548,0.,0.707106781186548));
#1501=DIRECTION('center_axis',(0.,-1.,0.));
#1502=DIRECTION('ref_axis',(0.707106781186548,0.,0.707106781186548));
#1503=DIRECTION('',(0.,-1.,0.));
#1504=DIRECTION('',(0.,1.,0.));
#1505=DIRECTION('center_axis',(1.,0.,1.48029736616688E-16));
#1506=DIRECTION('ref_axis',(0.,-0.707106781186549,0.707106781186546));
#1507=DIRECTION('',(-1.,0.,-1.48029736616688E-16));
#1508=DIRECTION('',(1.,0.,1.48029736616688E-16));
#1509=DIRECTION('center_axis',(0.,1.,0.));
#1510=DIRECTION('ref_axis',(-0.707106781186548,0.,0.707106781186548));
#1511=DIRECTION('center_axis',(0.,-1.,0.));
#1512=DIRECTION('ref_axis',(-0.707106781186548,0.,0.707106781186548));
#1513=DIRECTION('',(0.,-1.,0.));
#1514=DIRECTION('',(0.,1.,0.));
#1515=DIRECTION('center_axis',(-1.,0.,7.40148683083438E-17));
#1516=DIRECTION('ref_axis',(0.,-0.707106781186549,-0.707106781186546));
#1517=DIRECTION('',(1.,0.,-7.40148683083438E-17));
#1518=DIRECTION('',(-1.,0.,7.40148683083438E-17));
#1519=DIRECTION('center_axis',(0.,1.,0.));
#1520=DIRECTION('ref_axis',(0.707106781186548,0.,-0.707106781186548));
#1521=DIRECTION('center_axis',(0.,-1.,0.));
#1522=DIRECTION('ref_axis',(0.707106781186548,0.,-0.707106781186548));
#1523=DIRECTION('',(0.,-1.,0.));
#1524=DIRECTION('',(0.,1.,0.));
#1525=DIRECTION('center_axis',(0.,1.,0.));
#1526=DIRECTION('ref_axis',(-0.707106781186548,0.,-0.707106781186548));
#1527=DIRECTION('center_axis',(0.,-1.,0.));
#1528=DIRECTION('ref_axis',(-0.707106781186548,0.,-0.707106781186548));
#1529=DIRECTION('',(0.,-1.,0.));
#1530=DIRECTION('',(0.,1.,0.));
#1531=DIRECTION('center_axis',(1.,0.,0.));
#1532=DIRECTION('ref_axis',(0.,0.,-1.));
#1533=DIRECTION('',(0.,0.,-1.));
#1534=DIRECTION('center_axis',(-1.,0.,0.));
#1535=DIRECTION('ref_axis',(0.,0.,-1.));
#1536=DIRECTION('center_axis',(-1.,0.,0.));
#1537=DIRECTION('ref_axis',(0.,0.,-1.));
#1538=DIRECTION('center_axis',(-1.,0.,0.));
#1539=DIRECTION('ref_axis',(0.,0.,-1.));
#1540=DIRECTION('center_axis',(0.,1.,0.));
#1541=DIRECTION('ref_axis',(0.,0.,1.));
#1542=DIRECTION('',(-1.,0.,7.40148683083438E-17));
#1543=DIRECTION('',(-1.48029736616688E-16,0.,1.));
#1544=DIRECTION('',(1.,0.,1.48029736616688E-16));
#1545=DIRECTION('center_axis',(0.,-1.,0.));
#1546=DIRECTION('ref_axis',(-1.,0.,0.));
#1547=DIRECTION('center_axis',(0.,-1.,0.));
#1548=DIRECTION('ref_axis',(-1.,0.,0.));
#1549=DIRECTION('center_axis',(0.,-1.,0.));
#1550=DIRECTION('ref_axis',(-1.,0.,0.));
#1551=DIRECTION('center_axis',(0.,-1.,0.));
#1552=DIRECTION('ref_axis',(-1.,0.,0.));
#1553=DIRECTION('center_axis',(-7.40148683083438E-17,0.,-1.));
#1554=DIRECTION('ref_axis',(-1.,0.,7.40148683083438E-17));
#1555=DIRECTION('center_axis',(0.,1.,0.));
#1556=DIRECTION('ref_axis',(1.,0.,0.));
#1557=DIRECTION('center_axis',(-1.,0.,0.));
#1558=DIRECTION('ref_axis',(0.,-1.22464679914735E-16,1.));
#1559=DIRECTION('center_axis',(1.,0.,0.));
#1560=DIRECTION('ref_axis',(0.,0.,-1.));
#1561=DIRECTION('',(-1.,0.,0.));
#1562=DIRECTION('',(-1.,0.,0.));
#1563=DIRECTION('center_axis',(0.,-1.60246890531964E-16,-1.));
#1564=DIRECTION('ref_axis',(0.,-1.,1.60246890531964E-16));
#1565=DIRECTION('',(0.,1.,-1.60246890531964E-16));
#1566=DIRECTION('center_axis',(-1.,0.,0.));
#1567=DIRECTION('ref_axis',(0.,-9.12330137107301E-8,0.999999999999996));
#1568=DIRECTION('center_axis',(1.,0.,0.));
#1569=DIRECTION('ref_axis',(0.,0.,-1.));
#1570=DIRECTION('',(-1.,0.,0.));
#1571=DIRECTION('',(-1.,0.,0.));
#1572=DIRECTION('center_axis',(0.,9.12330134899889E-8,-0.999999999999996));
#1573=DIRECTION('ref_axis',(0.,-0.999999999999996,-9.12330134899888E-8));
#1574=DIRECTION('',(0.,0.999999999999996,9.12330134899888E-8));
#1575=DIRECTION('center_axis',(-1.,0.,0.));
#1576=DIRECTION('ref_axis',(0.,-1.22464679914735E-16,1.));
#1577=DIRECTION('center_axis',(1.,0.,0.));
#1578=DIRECTION('ref_axis',(0.,0.,-1.));
#1579=DIRECTION('',(-1.,0.,0.));
#1580=DIRECTION('',(-1.,0.,0.));
#1581=DIRECTION('center_axis',(0.,0.,-1.));
#1582=DIRECTION('ref_axis',(0.,-1.,0.));
#1583=DIRECTION('',(0.,1.,0.));
#1584=DIRECTION('center_axis',(-1.,0.,0.));
#1585=DIRECTION('ref_axis',(0.,0.,-1.));
#1586=DIRECTION('',(-1.,0.,0.));
#1587=DIRECTION('center_axis',(-1.,0.,0.));
#1588=DIRECTION('ref_axis',(0.,0.,-1.));
#1589=DIRECTION('center_axis',(1.,0.,0.));
#1590=DIRECTION('ref_axis',(0.,0.,-1.));
#1591=DIRECTION('center_axis',(-1.,0.,0.));
#1592=DIRECTION('ref_axis',(0.,0.,-1.));
#1593=DIRECTION('',(-1.,0.,0.));
#1594=DIRECTION('center_axis',(-1.,0.,0.));
#1595=DIRECTION('ref_axis',(0.,0.,-1.));
#1596=DIRECTION('center_axis',(1.,0.,0.));
#1597=DIRECTION('ref_axis',(0.,0.,-1.));
#1598=DIRECTION('center_axis',(-1.,0.,0.));
#1599=DIRECTION('ref_axis',(0.,0.,-1.));
#1600=DIRECTION('',(-1.,0.,0.));
#1601=DIRECTION('center_axis',(-1.,0.,0.));
#1602=DIRECTION('ref_axis',(0.,0.,-1.));
#1603=DIRECTION('center_axis',(1.,0.,0.));
#1604=DIRECTION('ref_axis',(0.,0.,-1.));
#1605=DIRECTION('center_axis',(0.,-1.,0.));
#1606=DIRECTION('ref_axis',(-1.,0.,0.));
#1607=DIRECTION('',(0.,-1.,0.));
#1608=DIRECTION('center_axis',(0.,-1.,0.));
#1609=DIRECTION('ref_axis',(-1.,0.,0.));
#1610=DIRECTION('center_axis',(0.,1.,0.));
#1611=DIRECTION('ref_axis',(-1.,0.,0.));
#1612=DIRECTION('center_axis',(0.,-1.,0.));
#1613=DIRECTION('ref_axis',(-1.,0.,0.));
#1614=DIRECTION('',(0.,-1.,0.));
#1615=DIRECTION('center_axis',(0.,-1.,0.));
#1616=DIRECTION('ref_axis',(-1.,0.,0.));
#1617=DIRECTION('center_axis',(0.,1.,0.));
#1618=DIRECTION('ref_axis',(-1.,0.,0.));
#1619=DIRECTION('center_axis',(0.,-1.,0.));
#1620=DIRECTION('ref_axis',(-1.,0.,0.));
#1621=DIRECTION('',(0.,-1.,0.));
#1622=DIRECTION('center_axis',(0.,-1.,0.));
#1623=DIRECTION('ref_axis',(-1.,0.,0.));
#1624=DIRECTION('center_axis',(0.,1.,0.));
#1625=DIRECTION('ref_axis',(-1.,0.,0.));
#1626=DIRECTION('center_axis',(0.,-1.,0.));
#1627=DIRECTION('ref_axis',(-1.,0.,0.));
#1628=DIRECTION('',(0.,-1.,0.));
#1629=DIRECTION('center_axis',(0.,-1.,0.));
#1630=DIRECTION('ref_axis',(-1.,0.,0.));
#1631=DIRECTION('center_axis',(0.,1.,0.));
#1632=DIRECTION('ref_axis',(-1.,0.,0.));
#1633=DIRECTION('center_axis',(-1.48029736616688E-16,0.,1.));
#1634=DIRECTION('ref_axis',(1.,0.,1.48029736616688E-16));
#1635=DIRECTION('center_axis',(-1.,0.,-1.48029736616688E-16));
#1636=DIRECTION('ref_axis',(-1.48029736616688E-16,0.,1.));
#1637=CARTESIAN_POINT('',(0.,0.,0.));
#1638=CARTESIAN_POINT('Origin',(-55.,60.,49.));
#1639=CARTESIAN_POINT('',(-56.,60.,49.));
#1640=CARTESIAN_POINT('',(-55.,60.,50.));
#1641=CARTESIAN_POINT('Origin',(-55.,60.,49.));
#1642=CARTESIAN_POINT('',(-55.,5.,50.));
#1643=CARTESIAN_POINT('',(-55.,60.,50.));
#1644=CARTESIAN_POINT('',(-56.,5.,49.));
#1645=CARTESIAN_POINT('Origin',(-55.,5.,49.));
#1646=CARTESIAN_POINT('',(-56.,60.,49.));
#1647=CARTESIAN_POINT('Origin',(-55.,5.,49.));
#1648=CARTESIAN_POINT('',(-55.,4.,49.));
#1649=CARTESIAN_POINT('Origin',(-55.,5.,49.));
#1650=CARTESIAN_POINT('Origin',(-55.,5.,49.));
#1651=CARTESIAN_POINT('Origin',(-55.,5.,55.));
#1652=CARTESIAN_POINT('',(-50.,5.,55.));
#1653=CARTESIAN_POINT('Origin',(-55.,5.,55.));
#1654=CARTESIAN_POINT('',(-49.,4.,55.));
#1655=CARTESIAN_POINT('Origin',(-49.,5.,55.));
#1656=CARTESIAN_POINT('Origin',(-55.,4.,55.));
#1657=CARTESIAN_POINT('Origin',(-55.,60.,55.));
#1658=CARTESIAN_POINT('',(-50.,60.,55.));
#1659=CARTESIAN_POINT('Origin',(-55.,60.,55.));
#1660=CARTESIAN_POINT('',(-50.,60.,55.));
#1661=CARTESIAN_POINT('Origin',(-49.,60.,55.));
#1662=CARTESIAN_POINT('',(-49.,5.,56.));
#1663=CARTESIAN_POINT('Origin',(-49.,5.,55.));
#1664=CARTESIAN_POINT('',(-49.,60.,56.));
#1665=CARTESIAN_POINT('Origin',(-49.,60.,55.));
#1666=CARTESIAN_POINT('',(-49.,60.,56.));
#1667=CARTESIAN_POINT('Origin',(-49.,5.,55.));
#1668=CARTESIAN_POINT('Origin',(-49.,5.,55.));
#1669=CARTESIAN_POINT('Origin',(28.,5.,55.));
#1670=CARTESIAN_POINT('',(49.,5.,56.));
#1671=CARTESIAN_POINT('',(28.,5.,56.));
#1672=CARTESIAN_POINT('',(49.,4.,55.));
#1673=CARTESIAN_POINT('Origin',(49.,5.,55.));
#1674=CARTESIAN_POINT('',(28.,4.,55.));
#1675=CARTESIAN_POINT('Origin',(56.,60.,56.));
#1676=CARTESIAN_POINT('',(49.,60.,56.));
#1677=CARTESIAN_POINT('',(28.,60.,56.));
#1678=CARTESIAN_POINT('',(49.,60.,56.));
#1679=CARTESIAN_POINT('Origin',(49.,60.,55.));
#1680=CARTESIAN_POINT('',(50.,60.,55.));
#1681=CARTESIAN_POINT('Origin',(49.,60.,55.));
#1682=CARTESIAN_POINT('',(50.,5.,55.));
#1683=CARTESIAN_POINT('',(50.,60.,55.));
#1684=CARTESIAN_POINT('Origin',(49.,5.,55.));
#1685=CARTESIAN_POINT('Origin',(49.,5.,55.));
#1686=CARTESIAN_POINT('Origin',(49.,5.,55.));
#1687=CARTESIAN_POINT('Origin',(55.,5.,55.));
#1688=CARTESIAN_POINT('',(55.,5.,50.));
#1689=CARTESIAN_POINT('Origin',(55.,5.,55.));
#1690=CARTESIAN_POINT('',(55.,4.,49.));
#1691=CARTESIAN_POINT('Origin',(55.,5.,49.));
#1692=CARTESIAN_POINT('Origin',(55.,4.,55.));
#1693=CARTESIAN_POINT('Origin',(55.,60.,55.));
#1694=CARTESIAN_POINT('',(55.,60.,50.));
#1695=CARTESIAN_POINT('Origin',(55.,60.,55.));
#1696=CARTESIAN_POINT('',(55.,60.,50.));
#1697=CARTESIAN_POINT('Origin',(55.,5.,49.));
#1698=CARTESIAN_POINT('',(56.,5.,49.));
#1699=CARTESIAN_POINT('Origin',(55.,5.,49.));
#1700=CARTESIAN_POINT('Origin',(55.,5.,49.));
#1701=CARTESIAN_POINT('Origin',(55.,60.,49.));
#1702=CARTESIAN_POINT('',(56.,60.,49.));
#1703=CARTESIAN_POINT('Origin',(55.,60.,49.));
#1704=CARTESIAN_POINT('',(56.,60.,49.));
#1705=CARTESIAN_POINT('Origin',(55.,5.,-28.));
#1706=CARTESIAN_POINT('',(56.,5.,-49.));
#1707=CARTESIAN_POINT('',(56.,5.,-28.));
#1708=CARTESIAN_POINT('',(55.,4.,-49.));
#1709=CARTESIAN_POINT('Origin',(55.,5.,-49.));
#1710=CARTESIAN_POINT('',(55.,4.,-28.));
#1711=CARTESIAN_POINT('Origin',(55.,60.,-49.));
#1712=CARTESIAN_POINT('',(56.,60.,-49.));
#1713=CARTESIAN_POINT('',(55.,60.,-50.));
#1714=CARTESIAN_POINT('Origin',(55.,60.,-49.));
#1715=CARTESIAN_POINT('',(55.,5.,-50.));
#1716=CARTESIAN_POINT('',(55.,60.,-50.));
#1717=CARTESIAN_POINT('Origin',(55.,5.,-49.));
#1718=CARTESIAN_POINT('',(56.,60.,-49.));
#1719=CARTESIAN_POINT('Origin',(55.,5.,-49.));
#1720=CARTESIAN_POINT('Origin',(55.,5.,-49.));
#1721=CARTESIAN_POINT('Origin',(55.,5.,-55.));
#1722=CARTESIAN_POINT('',(50.,5.,-55.));
#1723=CARTESIAN_POINT('Origin',(55.,5.,-55.));
#1724=CARTESIAN_POINT('',(49.,4.,-55.));
#1725=CARTESIAN_POINT('Origin',(49.,5.,-55.));
#1726=CARTESIAN_POINT('Origin',(55.,4.,-55.));
#1727=CARTESIAN_POINT('Origin',(55.,60.,-55.));
#1728=CARTESIAN_POINT('',(50.,60.,-55.));
#1729=CARTESIAN_POINT('Origin',(55.,60.,-55.));
#1730=CARTESIAN_POINT('',(50.,60.,-55.));
#1731=CARTESIAN_POINT('Origin',(49.,60.,-55.));
#1732=CARTESIAN_POINT('',(49.,5.,-56.));
#1733=CARTESIAN_POINT('Origin',(49.,5.,-55.));
#1734=CARTESIAN_POINT('',(49.,60.,-56.));
#1735=CARTESIAN_POINT('Origin',(49.,60.,-55.));
#1736=CARTESIAN_POINT('',(49.,60.,-56.));
#1737=CARTESIAN_POINT('Origin',(49.,5.,-55.));
#1738=CARTESIAN_POINT('Origin',(49.,5.,-55.));
#1739=CARTESIAN_POINT('Origin',(-28.,5.,-55.));
#1740=CARTESIAN_POINT('',(-49.,5.,-56.));
#1741=CARTESIAN_POINT('',(-28.,5.,-56.));
#1742=CARTESIAN_POINT('',(-49.,4.,-55.));
#1743=CARTESIAN_POINT('Origin',(-49.,5.,-55.));
#1744=CARTESIAN_POINT('',(-28.,4.,-55.));
#1745=CARTESIAN_POINT('Origin',(-56.,60.,-56.));
#1746=CARTESIAN_POINT('',(-49.,60.,-56.));
#1747=CARTESIAN_POINT('',(-28.,60.,-56.));
#1748=CARTESIAN_POINT('',(-49.,60.,-56.));
#1749=CARTESIAN_POINT('Origin',(-49.,60.,-55.));
#1750=CARTESIAN_POINT('',(-50.,60.,-55.));
#1751=CARTESIAN_POINT('Origin',(-49.,60.,-55.));
#1752=CARTESIAN_POINT('',(-50.,5.,-55.));
#1753=CARTESIAN_POINT('',(-50.,60.,-55.));
#1754=CARTESIAN_POINT('Origin',(-49.,5.,-55.));
#1755=CARTESIAN_POINT('Origin',(-49.,5.,-55.));
#1756=CARTESIAN_POINT('Origin',(-49.,5.,-55.));
#1757=CARTESIAN_POINT('Origin',(-55.,5.,-55.));
#1758=CARTESIAN_POINT('',(-55.,5.,-50.));
#1759=CARTESIAN_POINT('Origin',(-55.,5.,-55.));
#1760=CARTESIAN_POINT('',(-55.,4.,-49.));
#1761=CARTESIAN_POINT('Origin',(-55.,5.,-49.));
#1762=CARTESIAN_POINT('Origin',(-55.,4.,-55.));
#1763=CARTESIAN_POINT('Origin',(-55.,60.,-55.));
#1764=CARTESIAN_POINT('',(-55.,60.,-50.));
#1765=CARTESIAN_POINT('Origin',(-55.,60.,-55.));
#1766=CARTESIAN_POINT('',(-55.,60.,-50.));
#1767=CARTESIAN_POINT('Origin',(-55.,60.,-49.));
#1768=CARTESIAN_POINT('',(-56.,5.,-49.));
#1769=CARTESIAN_POINT('Origin',(-55.,5.,-49.));
#1770=CARTESIAN_POINT('',(-56.,60.,-49.));
#1771=CARTESIAN_POINT('Origin',(-55.,60.,-49.));
#1772=CARTESIAN_POINT('',(-56.,60.,-49.));
#1773=CARTESIAN_POINT('Origin',(-55.,5.,-49.));
#1774=CARTESIAN_POINT('Origin',(-55.,5.,-49.));
#1775=CARTESIAN_POINT('Origin',(-55.,5.,28.));
#1776=CARTESIAN_POINT('',(-55.,4.,28.));
#1777=CARTESIAN_POINT('',(-56.,5.,28.));
#1778=CARTESIAN_POINT('Origin',(-56.,60.,56.));
#1779=CARTESIAN_POINT('',(-56.,60.,28.));
#1780=CARTESIAN_POINT('Origin',(56.,60.,-56.));
#1781=CARTESIAN_POINT('',(56.,60.,-28.));
#1782=CARTESIAN_POINT('',(56.,31.7320508075689,-23.5178328813019));
#1783=CARTESIAN_POINT('',(56.,28.2679491924311,-23.5178328813019));
#1784=CARTESIAN_POINT('Origin',(56.,30.,-20.7678328813019));
#1785=CARTESIAN_POINT('',(56.,45.8660254037844,-23.5178328813019));
#1786=CARTESIAN_POINT('',(56.,31.7320510584471,16.4821672767104));
#1787=CARTESIAN_POINT('',(56.,28.2679494433344,16.48216696067));
#1788=CARTESIAN_POINT('Origin',(56.,30.,19.2321671186981));
#1789=CARTESIAN_POINT('',(56.,45.8660222228402,16.4821685661952));
#1790=CARTESIAN_POINT('',(56.,31.7320508075689,-3.51783288130194));
#1791=CARTESIAN_POINT('',(56.,28.2679491924311,-3.51783288130194));
#1792=CARTESIAN_POINT('Origin',(56.,30.,-0.767832881301939));
#1793=CARTESIAN_POINT('',(56.,45.8660254037844,-3.51783288130194));
#1794=CARTESIAN_POINT('Origin',(8.88178419700125E-15,4.,-8.88178419700125E-15));
#1795=CARTESIAN_POINT('',(-26.5,4.,-2.02066721859313E-15));
#1796=CARTESIAN_POINT('Origin',(-20.,4.,-1.22464679914735E-15));
#1797=CARTESIAN_POINT('Origin',(-20.,0.,-1.22464679914735E-15));
#1798=CARTESIAN_POINT('',(-26.5,0.,-2.02066721859313E-15));
#1799=CARTESIAN_POINT('Origin',(-20.,0.,-1.22464679914735E-15));
#1800=CARTESIAN_POINT('',(-26.5,0.,-4.28626379701574E-16));
#1801=CARTESIAN_POINT('Origin',(-59.,1.,-59.));
#1802=CARTESIAN_POINT('',(-59.,1.,-60.));
#1803=CARTESIAN_POINT('',(-60.,1.,-59.));
#1804=CARTESIAN_POINT('Origin',(-59.,1.,-59.));
#1805=CARTESIAN_POINT('',(-59.,0.,-59.));
#1806=CARTESIAN_POINT('Origin',(-59.,1.,-59.));
#1807=CARTESIAN_POINT('Origin',(-59.,1.,-59.));
#1808=CARTESIAN_POINT('Origin',(59.,1.,-59.));
#1809=CARTESIAN_POINT('',(60.,1.,-59.));
#1810=CARTESIAN_POINT('',(59.,1.,-60.));
#1811=CARTESIAN_POINT('Origin',(59.,1.,-59.));
#1812=CARTESIAN_POINT('',(59.,0.,-59.));
#1813=CARTESIAN_POINT('Origin',(59.,1.,-59.));
#1814=CARTESIAN_POINT('Origin',(59.,1.,-59.));
#1815=CARTESIAN_POINT('Origin',(-59.,1.,59.));
#1816=CARTESIAN_POINT('',(-60.,1.,59.));
#1817=CARTESIAN_POINT('',(-59.,1.,60.));
#1818=CARTESIAN_POINT('Origin',(-59.,1.,59.));
#1819=CARTESIAN_POINT('',(-59.,0.,59.));
#1820=CARTESIAN_POINT('Origin',(-59.,1.,59.));
#1821=CARTESIAN_POINT('Origin',(-59.,1.,59.));
#1822=CARTESIAN_POINT('Origin',(-59.,1.,-30.));
#1823=CARTESIAN_POINT('',(-60.,1.,-30.));
#1824=CARTESIAN_POINT('',(-59.,0.,-30.));
#1825=CARTESIAN_POINT('Origin',(59.,1.,59.));
#1826=CARTESIAN_POINT('',(59.,0.,59.));
#1827=CARTESIAN_POINT('',(59.,1.,60.));
#1828=CARTESIAN_POINT('Origin',(59.,1.,59.));
#1829=CARTESIAN_POINT('',(60.,1.,59.));
#1830=CARTESIAN_POINT('Origin',(59.,1.,59.));
#1831=CARTESIAN_POINT('Origin',(59.,1.,59.));
#1832=CARTESIAN_POINT('Origin',(59.,1.,30.));
#1833=CARTESIAN_POINT('',(60.,1.,30.));
#1834=CARTESIAN_POINT('',(59.,0.,30.));
#1835=CARTESIAN_POINT('Origin',(59.,0.,59.));
#1836=CARTESIAN_POINT('',(60.,60.,59.));
#1837=CARTESIAN_POINT('',(59.,60.,60.));
#1838=CARTESIAN_POINT('Origin',(59.,60.,59.));
#1839=CARTESIAN_POINT('',(59.,0.,60.));
#1840=CARTESIAN_POINT('',(60.,0.,59.));
#1841=CARTESIAN_POINT('Origin',(-30.,1.,59.));
#1842=CARTESIAN_POINT('',(-30.,1.,60.));
#1843=CARTESIAN_POINT('',(-30.,0.,59.));
#1844=CARTESIAN_POINT('Origin',(-59.,0.,59.));
#1845=CARTESIAN_POINT('',(-59.,60.,60.));
#1846=CARTESIAN_POINT('',(-60.,60.,59.));
#1847=CARTESIAN_POINT('Origin',(-59.,60.,59.));
#1848=CARTESIAN_POINT('',(-60.,0.,59.));
#1849=CARTESIAN_POINT('',(-59.,0.,60.));
#1850=CARTESIAN_POINT('Origin',(30.,1.,-59.));
#1851=CARTESIAN_POINT('',(30.,1.,-60.));
#1852=CARTESIAN_POINT('',(30.,0.,-59.));
#1853=CARTESIAN_POINT('Origin',(59.,0.,-59.));
#1854=CARTESIAN_POINT('',(59.,60.,-60.));
#1855=CARTESIAN_POINT('',(60.,60.,-59.));
#1856=CARTESIAN_POINT('Origin',(59.,60.,-59.));
#1857=CARTESIAN_POINT('',(60.,0.,-59.));
#1858=CARTESIAN_POINT('',(59.,0.,-60.));
#1859=CARTESIAN_POINT('Origin',(-59.,0.,-59.));
#1860=CARTESIAN_POINT('',(-60.,60.,-59.));
#1861=CARTESIAN_POINT('',(-59.,60.,-60.));
#1862=CARTESIAN_POINT('Origin',(-59.,60.,-59.));
#1863=CARTESIAN_POINT('',(-59.,0.,-60.));
#1864=CARTESIAN_POINT('',(-60.,0.,-59.));
#1865=CARTESIAN_POINT('Origin',(60.,0.,60.));
#1866=CARTESIAN_POINT('',(60.,60.,60.));
#1867=CARTESIAN_POINT('',(60.,30.,24.4821671186981));
#1868=CARTESIAN_POINT('Origin',(60.,30.,19.2321671186981));
#1869=CARTESIAN_POINT('',(60.,30.,4.48216711869806));
#1870=CARTESIAN_POINT('Origin',(60.,30.,-0.767832881301939));
#1871=CARTESIAN_POINT('',(60.,30.,-15.5178328813019));
#1872=CARTESIAN_POINT('Origin',(60.,30.,-20.7678328813019));
#1873=CARTESIAN_POINT('Origin',(0.,60.,0.));
#1874=CARTESIAN_POINT('',(60.,60.,-60.));
#1875=CARTESIAN_POINT('',(-60.,60.,-60.));
#1876=CARTESIAN_POINT('',(-60.,60.,60.));
#1877=CARTESIAN_POINT('',(-53.5,60.,-55.));
#1878=CARTESIAN_POINT('Origin',(-55.,60.,-55.));
#1879=CARTESIAN_POINT('',(-53.5,60.,55.));
#1880=CARTESIAN_POINT('Origin',(-55.,60.,55.));
#1881=CARTESIAN_POINT('',(56.5,60.,-55.));
#1882=CARTESIAN_POINT('Origin',(55.,60.,-55.));
#1883=CARTESIAN_POINT('',(56.5,60.,55.));
#1884=CARTESIAN_POINT('Origin',(55.,60.,55.));
#1885=CARTESIAN_POINT('Origin',(60.,0.,-60.));
#1886=CARTESIAN_POINT('Origin',(0.,0.,0.));
#1887=CARTESIAN_POINT('Origin',(60.,30.,-0.767832881301939));
#1888=CARTESIAN_POINT('',(59.,31.7320508075689,-3.51783288130194));
#1889=CARTESIAN_POINT('',(59.,28.2679491924311,-3.51783288130194));
#1890=CARTESIAN_POINT('Origin',(59.,30.,-0.767832881301939));
#1891=CARTESIAN_POINT('',(60.,28.2679491924311,-3.51783288130194));
#1892=CARTESIAN_POINT('',(60.,31.7320508075689,-3.51783288130194));
#1893=CARTESIAN_POINT('Origin',(60.,31.7320508075689,-3.51783288130193));
#1894=CARTESIAN_POINT('',(59.,31.7320508075689,-3.51783288130194));
#1895=CARTESIAN_POINT('Origin',(60.,30.,19.2321671186981));
#1896=CARTESIAN_POINT('',(59.,31.7320510584471,16.4821672767104));
#1897=CARTESIAN_POINT('',(59.,28.2679494433344,16.48216696067));
#1898=CARTESIAN_POINT('Origin',(59.,30.,19.2321671186981));
#1899=CARTESIAN_POINT('',(60.,28.2679494433344,16.48216696067));
#1900=CARTESIAN_POINT('',(60.,31.7320510584471,16.4821672767104));
#1901=CARTESIAN_POINT('Origin',(60.,31.7320510584471,16.4821672767104));
#1902=CARTESIAN_POINT('',(59.,31.7320510584471,16.4821672767104));
#1903=CARTESIAN_POINT('Origin',(60.,30.,-20.7678328813019));
#1904=CARTESIAN_POINT('',(59.,31.7320508075689,-23.5178328813019));
#1905=CARTESIAN_POINT('',(59.,28.2679491924311,-23.5178328813019));
#1906=CARTESIAN_POINT('Origin',(59.,30.,-20.7678328813019));
#1907=CARTESIAN_POINT('',(60.,28.2679491924311,-23.5178328813019));
#1908=CARTESIAN_POINT('',(60.,31.7320508075689,-23.5178328813019));
#1909=CARTESIAN_POINT('Origin',(60.,31.7320508075689,-23.5178328813019));
#1910=CARTESIAN_POINT('',(59.,31.7320508075689,-23.5178328813019));
#1911=CARTESIAN_POINT('Origin',(60.,30.,19.2321671186981));
#1912=CARTESIAN_POINT('',(59.,30.,24.4821671186981));
#1913=CARTESIAN_POINT('',(60.,30.,24.4821671186981));
#1914=CARTESIAN_POINT('Origin',(59.,30.,19.2321671186981));
#1915=CARTESIAN_POINT('Origin',(59.,30.,19.2321671186981));
#1916=CARTESIAN_POINT('Origin',(60.,30.,-0.767832881301939));
#1917=CARTESIAN_POINT('',(59.,30.,4.48216711869806));
#1918=CARTESIAN_POINT('',(60.,30.,4.48216711869806));
#1919=CARTESIAN_POINT('Origin',(59.,30.,-0.767832881301939));
#1920=CARTESIAN_POINT('Origin',(59.,30.,-0.767832881301939));
#1921=CARTESIAN_POINT('Origin',(60.,30.,-20.7678328813019));
#1922=CARTESIAN_POINT('',(59.,30.,-15.5178328813019));
#1923=CARTESIAN_POINT('',(60.,30.,-15.5178328813019));
#1924=CARTESIAN_POINT('Origin',(59.,30.,-20.7678328813019));
#1925=CARTESIAN_POINT('Origin',(59.,30.,-20.7678328813019));
#1926=CARTESIAN_POINT('Origin',(55.,60.,55.));
#1927=CARTESIAN_POINT('',(56.5,55.,55.));
#1928=CARTESIAN_POINT('',(56.5,60.,55.));
#1929=CARTESIAN_POINT('Origin',(55.,55.,55.));
#1930=CARTESIAN_POINT('Origin',(55.,55.,55.));
#1931=CARTESIAN_POINT('Origin',(55.,60.,-55.));
#1932=CARTESIAN_POINT('',(56.5,55.,-55.));
#1933=CARTESIAN_POINT('',(56.5,60.,-55.));
#1934=CARTESIAN_POINT('Origin',(55.,55.,-55.));
#1935=CARTESIAN_POINT('Origin',(55.,55.,-55.));
#1936=CARTESIAN_POINT('Origin',(-55.,60.,55.));
#1937=CARTESIAN_POINT('',(-53.5,55.,55.));
#1938=CARTESIAN_POINT('',(-53.5,60.,55.));
#1939=CARTESIAN_POINT('Origin',(-55.,55.,55.));
#1940=CARTESIAN_POINT('Origin',(-55.,55.,55.));
#1941=CARTESIAN_POINT('Origin',(-55.,60.,-55.));
#1942=CARTESIAN_POINT('',(-53.5,55.,-55.));
#1943=CARTESIAN_POINT('',(-53.5,60.,-55.));
#1944=CARTESIAN_POINT('Origin',(-55.,55.,-55.));
#1945=CARTESIAN_POINT('Origin',(-55.,55.,-55.));
#1946=CARTESIAN_POINT('Origin',(-60.,0.,60.));
#1947=CARTESIAN_POINT('Origin',(-60.,0.,-60.));
#1948=UNCERTAINTY_MEASURE_WITH_UNIT(LENGTH_MEASURE(0.01),#1952,
'DISTANCE_ACCURACY_VALUE',
'Maximum model space distance between geometric entities at asserted c
onnectivities');
#1949=UNCERTAINTY_MEASURE_WITH_UNIT(LENGTH_MEASURE(0.01),#1952,
'DISTANCE_ACCURACY_VALUE',
'Maximum model space distance between geometric entities at asserted c
onnectivities');
#1950=(
GEOMETRIC_REPRESENTATION_CONTEXT(3)
GLOBAL_UNCERTAINTY_ASSIGNED_CONTEXT((#1948))
GLOBAL_UNIT_ASSIGNED_CONTEXT((#1952,#1954,#1955))
REPRESENTATION_CONTEXT('','3D')
);
#1951=(
GEOMETRIC_REPRESENTATION_CONTEXT(3)
GLOBAL_UNCERTAINTY_ASSIGNED_CONTEXT((#1949))
GLOBAL_UNIT_ASSIGNED_CONTEXT((#1952,#1954,#1955))
REPRESENTATION_CONTEXT('','3D')
);
#1952=(
LENGTH_UNIT()
NAMED_UNIT(*)
SI_UNIT(.MILLI.,.METRE.)
);
#1953=(
LENGTH_UNIT()
NAMED_UNIT(*)
SI_UNIT($,.METRE.)
);
#1954=(
NAMED_UNIT(*)
PLANE_ANGLE_UNIT()
SI_UNIT($,.RADIAN.)
);
#1955=(
NAMED_UNIT(*)
SI_UNIT($,.STERADIAN.)
SOLID_ANGLE_UNIT()
);
#1956=SHAPE_DEFINITION_REPRESENTATION(#1957,#1958);
#1957=PRODUCT_DEFINITION_SHAPE('',$,#1960);
#1958=SHAPE_REPRESENTATION('',(#1104),#1950);
#1959=PRODUCT_DEFINITION_CONTEXT('part definition',#1964,'design');
#1960=PRODUCT_DEFINITION('box','box',#1961,#1959);
#1961=PRODUCT_DEFINITION_FORMATION('',$,#1966);
#1962=PRODUCT_RELATED_PRODUCT_CATEGORY('box','box',(#1966));
#1963=APPLICATION_PROTOCOL_DEFINITION('international standard',
'automotive_design',2009,#1964);
#1964=APPLICATION_CONTEXT(
'Core Data for Automotive Mechanical Design Process');
#1965=PRODUCT_CONTEXT('part definition',#1964,'mechanical');
#1966=PRODUCT('box','box',$,(#1965));
#1967=PRESENTATION_STYLE_ASSIGNMENT((#1969));
#1968=PRESENTATION_STYLE_ASSIGNMENT((#1970));
#1969=SURFACE_STYLE_USAGE(.BOTH.,#1971);
#1970=SURFACE_STYLE_USAGE(.BOTH.,#1972);
#1971=SURFACE_SIDE_STYLE('',(#1973));
#1972=SURFACE_SIDE_STYLE('',(#1974));
#1973=SURFACE_STYLE_FILL_AREA(#1975);
#1974=SURFACE_STYLE_FILL_AREA(#1976);
#1975=FILL_AREA_STYLE('Steel - Satin',(#1977));
#1976=FILL_AREA_STYLE('Aluminum - Bead Blasted',(#1978));
#1977=FILL_AREA_STYLE_COLOUR('Steel - Satin',#1979);
#1978=FILL_AREA_STYLE_COLOUR('Aluminum - Bead Blasted',#1980);
#1979=COLOUR_RGB('Steel - Satin',0.627450980392157,0.627450980392157,0.627450980392157);
#1980=COLOUR_RGB('Aluminum - Bead Blasted',0.96078431372549,0.96078431372549,
0.964705882352941);
ENDSEC;
END-ISO-10303-21;
